<svg width="463" height="80" viewBox="0 0 463 80" fill="none" xmlns="http://www.w3.org/2000/svg">
<path d="M168.061 47V34.436H175.909V36.236H170.095V39.728H175.261V41.528H170.095V47H168.061ZM182.965 47.216C182.149 47.216 181.405 47.078 180.733 46.802C180.073 46.514 179.503 46.1 179.023 45.56C178.555 45.008 178.189 44.33 177.925 43.526C177.673 42.71 177.547 41.774 177.547 40.718C177.547 39.662 177.673 38.732 177.925 37.928C178.189 37.112 178.555 36.434 179.023 35.894C179.503 35.342 180.073 34.928 180.733 34.652C181.405 34.364 182.149 34.22 182.965 34.22C183.781 34.22 184.519 34.364 185.179 34.652C185.851 34.928 186.421 35.342 186.889 35.894C187.369 36.434 187.735 37.112 187.987 37.928C188.251 38.732 188.383 39.662 188.383 40.718C188.383 41.774 188.251 42.71 187.987 43.526C187.735 44.33 187.369 45.008 186.889 45.56C186.421 46.1 185.851 46.514 185.179 46.802C184.519 47.078 183.781 47.216 182.965 47.216ZM182.965 45.398C183.445 45.398 183.883 45.314 184.279 45.146C184.687 44.978 185.029 44.738 185.305 44.426C185.593 44.102 185.815 43.712 185.971 43.256C186.127 42.8 186.205 42.284 186.205 41.708V39.728C186.205 39.152 186.127 38.636 185.971 38.18C185.815 37.724 185.593 37.34 185.305 37.028C185.029 36.704 184.687 36.458 184.279 36.29C183.883 36.122 183.445 36.038 182.965 36.038C182.473 36.038 182.029 36.122 181.633 36.29C181.237 36.458 180.895 36.704 180.607 37.028C180.331 37.34 180.115 37.724 179.959 38.18C179.803 38.636 179.725 39.152 179.725 39.728V41.708C179.725 42.284 179.803 42.8 179.959 43.256C180.115 43.712 180.331 44.102 180.607 44.426C180.895 44.738 181.237 44.978 181.633 45.146C182.029 45.314 182.473 45.398 182.965 45.398ZM193.153 47H191.119V34.436H196.537C197.665 34.436 198.553 34.778 199.201 35.462C199.849 36.134 200.173 37.052 200.173 38.216C200.173 39.116 199.963 39.866 199.543 40.466C199.135 41.054 198.529 41.468 197.725 41.708L200.443 47H198.175L195.655 41.924H193.153V47ZM196.393 40.214C196.909 40.214 197.311 40.082 197.599 39.818C197.887 39.542 198.031 39.152 198.031 38.648V37.784C198.031 37.28 197.887 36.896 197.599 36.632C197.311 36.356 196.909 36.218 196.393 36.218H193.153V40.214H196.393ZM215.416 47L214.282 43.598H209.584L208.486 47H206.416L210.7 34.436H213.256L217.54 47H215.416ZM211.978 36.308H211.888L210.07 41.852H213.778L211.978 36.308ZM227.382 45.092H227.31C227.178 45.704 226.818 46.214 226.23 46.622C225.654 47.018 224.886 47.216 223.926 47.216C223.182 47.216 222.492 47.078 221.856 46.802C221.22 46.514 220.668 46.1 220.2 45.56C219.744 45.008 219.384 44.33 219.12 43.526C218.868 42.71 218.742 41.774 218.742 40.718C218.742 39.674 218.874 38.75 219.138 37.946C219.402 37.13 219.774 36.446 220.254 35.894C220.734 35.342 221.31 34.928 221.982 34.652C222.654 34.364 223.404 34.22 224.232 34.22C225.36 34.22 226.314 34.472 227.094 34.976C227.874 35.468 228.48 36.158 228.912 37.046L227.256 38.018C227.016 37.43 226.644 36.956 226.14 36.596C225.636 36.224 225 36.038 224.232 36.038C223.236 36.038 222.432 36.356 221.82 36.992C221.22 37.628 220.92 38.528 220.92 39.692V41.744C220.92 42.908 221.22 43.808 221.82 44.444C222.432 45.08 223.236 45.398 224.232 45.398C224.628 45.398 225.006 45.35 225.366 45.254C225.726 45.146 226.038 44.996 226.302 44.804C226.578 44.6 226.794 44.354 226.95 44.066C227.118 43.766 227.202 43.418 227.202 43.022V42.05H224.61V40.304H229.164V47H227.382V45.092ZM232.191 47V34.436H240.237V36.236H234.225V39.728H239.679V41.528H234.225V45.2H240.237V47H232.191ZM246.445 40.052L245.059 37.388H245.005V47H243.061V34.436H245.329L249.433 41.384L250.819 44.048H250.873V34.436H252.817V47H250.549L246.445 40.052ZM260.827 47.216C259.183 47.216 257.893 46.664 256.957 45.56C256.021 44.444 255.553 42.83 255.553 40.718C255.553 39.662 255.673 38.732 255.913 37.928C256.153 37.124 256.501 36.446 256.957 35.894C257.413 35.342 257.965 34.928 258.613 34.652C259.273 34.364 260.011 34.22 260.827 34.22C261.919 34.22 262.831 34.46 263.562 34.94C264.307 35.42 264.889 36.128 265.309 37.064L263.599 38C263.383 37.4 263.047 36.926 262.591 36.578C262.147 36.218 261.559 36.038 260.827 36.038C259.855 36.038 259.093 36.368 258.541 37.028C257.989 37.688 257.713 38.6 257.713 39.764V41.672C257.713 42.836 257.989 43.748 258.541 44.408C259.093 45.068 259.855 45.398 260.827 45.398C261.583 45.398 262.195 45.206 262.663 44.822C263.143 44.426 263.497 43.922 263.725 43.31L265.363 44.3C264.943 45.212 264.355 45.926 263.599 46.442C262.843 46.958 261.919 47.216 260.827 47.216ZM267.179 47V45.344H268.889V36.092H267.179V34.436H272.651V36.092H270.923V45.344H272.651V47H267.179ZM275.407 47V34.436H283.453V36.236H277.441V39.728H282.895V41.528H277.441V45.2H283.453V47H275.407ZM290.039 47.216C288.983 47.216 288.083 47.024 287.339 46.64C286.607 46.256 285.977 45.74 285.449 45.092L286.853 43.778C287.297 44.318 287.783 44.726 288.311 45.002C288.851 45.278 289.463 45.416 290.147 45.416C290.951 45.416 291.557 45.236 291.965 44.876C292.373 44.516 292.577 44.03 292.577 43.418C292.577 42.926 292.433 42.536 292.145 42.248C291.857 41.96 291.347 41.744 290.615 41.6L289.499 41.402C288.275 41.174 287.357 40.772 286.745 40.196C286.133 39.62 285.827 38.828 285.827 37.82C285.827 37.268 285.929 36.77 286.133 36.326C286.349 35.87 286.643 35.492 287.015 35.192C287.399 34.88 287.861 34.64 288.401 34.472C288.941 34.304 289.547 34.22 290.219 34.22C291.167 34.22 291.989 34.388 292.685 34.724C293.381 35.048 293.975 35.522 294.467 36.146L293.045 37.406C292.721 36.986 292.325 36.65 291.857 36.398C291.389 36.146 290.807 36.02 290.111 36.02C289.391 36.02 288.833 36.164 288.437 36.452C288.041 36.74 287.843 37.16 287.843 37.712C287.843 38.24 288.005 38.636 288.329 38.9C288.653 39.152 289.157 39.344 289.841 39.476L290.957 39.71C292.217 39.95 293.135 40.358 293.711 40.934C294.299 41.51 294.593 42.302 294.593 43.31C294.593 43.898 294.491 44.432 294.287 44.912C294.083 45.392 293.783 45.806 293.387 46.154C293.003 46.49 292.529 46.754 291.965 46.946C291.401 47.126 290.759 47.216 290.039 47.216Z" fill="white"/>
<rect x="0.5" y="0.5" width="462" height="79" stroke="#3E3E3E"/>
</svg>
