<svg width="463" height="80" viewBox="0 0 463 80" fill="none" xmlns="http://www.w3.org/2000/svg">
<rect x="0.5" y="0.5" width="462" height="79" fill="url(#paint0_linear_1181_18787)"/>
<path d="M148.061 47V34.436H155.909V36.236H150.095V39.728H155.261V41.528H150.095V47H148.061ZM162.965 47.216C162.149 47.216 161.405 47.078 160.733 46.802C160.073 46.514 159.503 46.1 159.023 45.56C158.555 45.008 158.189 44.33 157.925 43.526C157.673 42.71 157.547 41.774 157.547 40.718C157.547 39.662 157.673 38.732 157.925 37.928C158.189 37.112 158.555 36.434 159.023 35.894C159.503 35.342 160.073 34.928 160.733 34.652C161.405 34.364 162.149 34.22 162.965 34.22C163.781 34.22 164.519 34.364 165.179 34.652C165.851 34.928 166.421 35.342 166.889 35.894C167.369 36.434 167.735 37.112 167.987 37.928C168.251 38.732 168.383 39.662 168.383 40.718C168.383 41.774 168.251 42.71 167.987 43.526C167.735 44.33 167.369 45.008 166.889 45.56C166.421 46.1 165.851 46.514 165.179 46.802C164.519 47.078 163.781 47.216 162.965 47.216ZM162.965 45.398C163.445 45.398 163.883 45.314 164.279 45.146C164.687 44.978 165.029 44.738 165.305 44.426C165.593 44.102 165.815 43.712 165.971 43.256C166.127 42.8 166.205 42.284 166.205 41.708V39.728C166.205 39.152 166.127 38.636 165.971 38.18C165.815 37.724 165.593 37.34 165.305 37.028C165.029 36.704 164.687 36.458 164.279 36.29C163.883 36.122 163.445 36.038 162.965 36.038C162.473 36.038 162.029 36.122 161.633 36.29C161.237 36.458 160.895 36.704 160.607 37.028C160.331 37.34 160.115 37.724 159.959 38.18C159.803 38.636 159.725 39.152 159.725 39.728V41.708C159.725 42.284 159.803 42.8 159.959 43.256C160.115 43.712 160.331 44.102 160.607 44.426C160.895 44.738 161.237 44.978 161.633 45.146C162.029 45.314 162.473 45.398 162.965 45.398ZM173.153 47H171.119V34.436H176.537C177.665 34.436 178.553 34.778 179.201 35.462C179.849 36.134 180.173 37.052 180.173 38.216C180.173 39.116 179.963 39.866 179.543 40.466C179.135 41.054 178.529 41.468 177.725 41.708L180.443 47H178.175L175.655 41.924H173.153V47ZM176.393 40.214C176.909 40.214 177.311 40.082 177.599 39.818C177.887 39.542 178.031 39.152 178.031 38.648V37.784C178.031 37.28 177.887 36.896 177.599 36.632C177.311 36.356 176.909 36.218 176.393 36.218H173.153V40.214H176.393ZM195.416 47L194.282 43.598H189.584L188.486 47H186.416L190.7 34.436H193.256L197.54 47H195.416ZM191.978 36.308H191.888L190.07 41.852H193.778L191.978 36.308ZM207.382 45.092H207.31C207.178 45.704 206.818 46.214 206.23 46.622C205.654 47.018 204.886 47.216 203.926 47.216C203.182 47.216 202.492 47.078 201.856 46.802C201.22 46.514 200.668 46.1 200.2 45.56C199.744 45.008 199.384 44.33 199.12 43.526C198.868 42.71 198.742 41.774 198.742 40.718C198.742 39.674 198.874 38.75 199.138 37.946C199.402 37.13 199.774 36.446 200.254 35.894C200.734 35.342 201.31 34.928 201.982 34.652C202.654 34.364 203.404 34.22 204.232 34.22C205.36 34.22 206.314 34.472 207.094 34.976C207.874 35.468 208.48 36.158 208.912 37.046L207.256 38.018C207.016 37.43 206.644 36.956 206.14 36.596C205.636 36.224 205 36.038 204.232 36.038C203.236 36.038 202.432 36.356 201.82 36.992C201.22 37.628 200.92 38.528 200.92 39.692V41.744C200.92 42.908 201.22 43.808 201.82 44.444C202.432 45.08 203.236 45.398 204.232 45.398C204.628 45.398 205.006 45.35 205.366 45.254C205.726 45.146 206.038 44.996 206.302 44.804C206.578 44.6 206.794 44.354 206.95 44.066C207.118 43.766 207.202 43.418 207.202 43.022V42.05H204.61V40.304H209.164V47H207.382V45.092ZM212.191 47V34.436H220.237V36.236H214.225V39.728H219.679V41.528H214.225V45.2H220.237V47H212.191ZM226.445 40.052L225.059 37.388H225.005V47H223.061V34.436H225.329L229.433 41.384L230.819 44.048H230.873V34.436H232.817V47H230.549L226.445 40.052ZM240.827 47.216C239.183 47.216 237.893 46.664 236.957 45.56C236.021 44.444 235.553 42.83 235.553 40.718C235.553 39.662 235.673 38.732 235.913 37.928C236.153 37.124 236.501 36.446 236.957 35.894C237.413 35.342 237.965 34.928 238.613 34.652C239.273 34.364 240.011 34.22 240.827 34.22C241.919 34.22 242.831 34.46 243.562 34.94C244.307 35.42 244.889 36.128 245.309 37.064L243.599 38C243.383 37.4 243.047 36.926 242.591 36.578C242.147 36.218 241.559 36.038 240.827 36.038C239.855 36.038 239.093 36.368 238.541 37.028C237.989 37.688 237.713 38.6 237.713 39.764V41.672C237.713 42.836 237.989 43.748 238.541 44.408C239.093 45.068 239.855 45.398 240.827 45.398C241.583 45.398 242.195 45.206 242.663 44.822C243.143 44.426 243.497 43.922 243.725 43.31L245.363 44.3C244.943 45.212 244.355 45.926 243.599 46.442C242.843 46.958 241.919 47.216 240.827 47.216ZM247.179 47V45.344H248.889V36.092H247.179V34.436H252.651V36.092H250.923V45.344H252.651V47H247.179ZM255.407 47V34.436H263.453V36.236H257.441V39.728H262.895V41.528H257.441V45.2H263.453V47H255.407ZM270.039 47.216C268.983 47.216 268.083 47.024 267.339 46.64C266.607 46.256 265.977 45.74 265.449 45.092L266.853 43.778C267.297 44.318 267.783 44.726 268.311 45.002C268.851 45.278 269.463 45.416 270.147 45.416C270.951 45.416 271.557 45.236 271.965 44.876C272.373 44.516 272.577 44.03 272.577 43.418C272.577 42.926 272.433 42.536 272.145 42.248C271.857 41.96 271.347 41.744 270.615 41.6L269.499 41.402C268.275 41.174 267.357 40.772 266.745 40.196C266.133 39.62 265.827 38.828 265.827 37.82C265.827 37.268 265.929 36.77 266.133 36.326C266.349 35.87 266.643 35.492 267.015 35.192C267.399 34.88 267.861 34.64 268.401 34.472C268.941 34.304 269.547 34.22 270.219 34.22C271.167 34.22 271.989 34.388 272.685 34.724C273.381 35.048 273.975 35.522 274.467 36.146L273.045 37.406C272.721 36.986 272.325 36.65 271.857 36.398C271.389 36.146 270.807 36.02 270.111 36.02C269.391 36.02 268.833 36.164 268.437 36.452C268.041 36.74 267.843 37.16 267.843 37.712C267.843 38.24 268.005 38.636 268.329 38.9C268.653 39.152 269.157 39.344 269.841 39.476L270.957 39.71C272.217 39.95 273.135 40.358 273.711 40.934C274.299 41.51 274.593 42.302 274.593 43.31C274.593 43.898 274.491 44.432 274.287 44.912C274.083 45.392 273.783 45.806 273.387 46.154C273.003 46.49 272.529 46.754 271.965 46.946C271.401 47.126 270.759 47.216 270.039 47.216Z" fill="white"/>
<path fill-rule="evenodd" clip-rule="evenodd" d="M313.892 40.467H285.5V39.533H313.892L310.408 35.6604L311.002 35L315.5 40L311.002 45L310.408 44.3396L313.892 40.467Z" fill="white"/>
<rect x="0.5" y="0.5" width="462" height="79" stroke="#3E3E3E"/>
<defs>
<linearGradient id="paint0_linear_1181_18787" x1="231.5" y1="0" x2="231.5" y2="80" gradientUnits="userSpaceOnUse">
<stop stop-color="#8560A3"/>
<stop offset="1" stop-color="#6963AB"/>
</linearGradient>
</defs>
</svg>
