<svg width="463" height="80" viewBox="0 0 463 80" fill="none" xmlns="http://www.w3.org/2000/svg">
<path d="M176.558 47V34.436H184.406V36.236H178.592V39.728H183.758V41.528H178.592V47H176.558ZM191.462 47.216C190.646 47.216 189.902 47.078 189.23 46.802C188.57 46.514 188 46.1 187.52 45.56C187.052 45.008 186.686 44.33 186.422 43.526C186.17 42.71 186.044 41.774 186.044 40.718C186.044 39.662 186.17 38.732 186.422 37.928C186.686 37.112 187.052 36.434 187.52 35.894C188 35.342 188.57 34.928 189.23 34.652C189.902 34.364 190.646 34.22 191.462 34.22C192.278 34.22 193.016 34.364 193.676 34.652C194.348 34.928 194.918 35.342 195.386 35.894C195.866 36.434 196.232 37.112 196.484 37.928C196.748 38.732 196.88 39.662 196.88 40.718C196.88 41.774 196.748 42.71 196.484 43.526C196.232 44.33 195.866 45.008 195.386 45.56C194.918 46.1 194.348 46.514 193.676 46.802C193.016 47.078 192.278 47.216 191.462 47.216ZM191.462 45.398C191.942 45.398 192.38 45.314 192.776 45.146C193.184 44.978 193.526 44.738 193.802 44.426C194.09 44.102 194.312 43.712 194.468 43.256C194.624 42.8 194.702 42.284 194.702 41.708V39.728C194.702 39.152 194.624 38.636 194.468 38.18C194.312 37.724 194.09 37.34 193.802 37.028C193.526 36.704 193.184 36.458 192.776 36.29C192.38 36.122 191.942 36.038 191.462 36.038C190.97 36.038 190.526 36.122 190.13 36.29C189.734 36.458 189.392 36.704 189.104 37.028C188.828 37.34 188.612 37.724 188.456 38.18C188.3 38.636 188.222 39.152 188.222 39.728V41.708C188.222 42.284 188.3 42.8 188.456 43.256C188.612 43.712 188.828 44.102 189.104 44.426C189.392 44.738 189.734 44.978 190.13 45.146C190.526 45.314 190.97 45.398 191.462 45.398ZM201.65 47H199.616V34.436H205.034C206.162 34.436 207.05 34.778 207.698 35.462C208.346 36.134 208.67 37.052 208.67 38.216C208.67 39.116 208.46 39.866 208.04 40.466C207.632 41.054 207.026 41.468 206.222 41.708L208.94 47H206.672L204.152 41.924H201.65V47ZM204.89 40.214C205.406 40.214 205.808 40.082 206.096 39.818C206.384 39.542 206.528 39.152 206.528 38.648V37.784C206.528 37.28 206.384 36.896 206.096 36.632C205.808 36.356 205.406 36.218 204.89 36.218H201.65V40.214H204.89ZM216.065 34.436H221.627C222.671 34.436 223.487 34.73 224.075 35.318C224.675 35.906 224.975 36.692 224.975 37.676C224.975 38.144 224.909 38.546 224.777 38.882C224.645 39.206 224.477 39.476 224.273 39.692C224.069 39.896 223.835 40.052 223.571 40.16C223.307 40.256 223.049 40.316 222.797 40.34V40.448C223.049 40.46 223.325 40.52 223.625 40.628C223.937 40.736 224.225 40.91 224.489 41.15C224.753 41.378 224.975 41.678 225.155 42.05C225.335 42.41 225.425 42.854 225.425 43.382C225.425 43.886 225.341 44.36 225.173 44.804C225.017 45.248 224.795 45.632 224.507 45.956C224.219 46.28 223.877 46.538 223.481 46.73C223.085 46.91 222.653 47 222.185 47H216.065V34.436ZM218.099 45.254H221.591C222.119 45.254 222.533 45.116 222.833 44.84C223.133 44.564 223.283 44.168 223.283 43.652V43.04C223.283 42.524 223.133 42.128 222.833 41.852C222.533 41.576 222.119 41.438 221.591 41.438H218.099V45.254ZM218.099 39.746H221.249C221.753 39.746 222.143 39.62 222.419 39.368C222.695 39.104 222.833 38.732 222.833 38.252V37.676C222.833 37.196 222.695 36.83 222.419 36.578C222.143 36.314 221.753 36.182 221.249 36.182H218.099V39.746ZM230.164 47H228.13V34.436H233.548C234.676 34.436 235.564 34.778 236.212 35.462C236.86 36.134 237.184 37.052 237.184 38.216C237.184 39.116 236.974 39.866 236.554 40.466C236.146 41.054 235.54 41.468 234.736 41.708L237.454 47H235.186L232.666 41.924H230.164V47ZM233.404 40.214C233.92 40.214 234.322 40.082 234.61 39.818C234.898 39.542 235.042 39.152 235.042 38.648V37.784C235.042 37.28 234.898 36.896 234.61 36.632C234.322 36.356 233.92 36.218 233.404 36.218H230.164V40.214H233.404ZM247.973 47L246.839 43.598H242.141L241.043 47H238.973L243.257 34.436H245.813L250.097 47H247.973ZM244.535 36.308H244.445L242.627 41.852H246.335L244.535 36.308ZM255.627 40.052L254.241 37.388H254.187V47H252.243V34.436H254.511L258.615 41.384L260.001 44.048H260.055V34.436H261.999V47H259.731L255.627 40.052ZM265.293 34.436H269.739C270.543 34.436 271.269 34.568 271.917 34.832C272.577 35.096 273.135 35.492 273.591 36.02C274.059 36.536 274.419 37.19 274.671 37.982C274.923 38.762 275.049 39.674 275.049 40.718C275.049 41.762 274.923 42.68 274.671 43.472C274.419 44.252 274.059 44.906 273.591 45.434C273.135 45.95 272.577 46.34 271.917 46.604C271.269 46.868 270.543 47 269.739 47H265.293V34.436ZM269.739 45.2C270.675 45.2 271.431 44.906 272.007 44.318C272.583 43.73 272.871 42.866 272.871 41.726V39.71C272.871 38.57 272.583 37.706 272.007 37.118C271.431 36.53 270.675 36.236 269.739 36.236H267.327V45.2H269.739ZM281.542 47.216C280.486 47.216 279.586 47.024 278.842 46.64C278.11 46.256 277.48 45.74 276.952 45.092L278.356 43.778C278.8 44.318 279.286 44.726 279.814 45.002C280.354 45.278 280.966 45.416 281.65 45.416C282.454 45.416 283.06 45.236 283.468 44.876C283.876 44.516 284.08 44.03 284.08 43.418C284.08 42.926 283.936 42.536 283.648 42.248C283.36 41.96 282.85 41.744 282.118 41.6L281.002 41.402C279.778 41.174 278.86 40.772 278.248 40.196C277.636 39.62 277.33 38.828 277.33 37.82C277.33 37.268 277.432 36.77 277.636 36.326C277.852 35.87 278.146 35.492 278.518 35.192C278.902 34.88 279.364 34.64 279.904 34.472C280.444 34.304 281.05 34.22 281.722 34.22C282.67 34.22 283.492 34.388 284.188 34.724C284.884 35.048 285.478 35.522 285.97 36.146L284.548 37.406C284.224 36.986 283.828 36.65 283.36 36.398C282.892 36.146 282.31 36.02 281.614 36.02C280.894 36.02 280.336 36.164 279.94 36.452C279.544 36.74 279.346 37.16 279.346 37.712C279.346 38.24 279.508 38.636 279.832 38.9C280.156 39.152 280.66 39.344 281.344 39.476L282.46 39.71C283.72 39.95 284.638 40.358 285.214 40.934C285.802 41.51 286.096 42.302 286.096 43.31C286.096 43.898 285.994 44.432 285.79 44.912C285.586 45.392 285.286 45.806 284.89 46.154C284.506 46.49 284.032 46.754 283.468 46.946C282.904 47.126 282.262 47.216 281.542 47.216Z" fill="white"/>
<rect x="0.5" y="0.5" width="462" height="79" stroke="#3E3E3E"/>
</svg>
