<svg width="463" height="80" viewBox="0 0 463 80" fill="none" xmlns="http://www.w3.org/2000/svg">
<rect x="0.5" y="0.5" width="462" height="79" fill="url(#paint0_linear_1181_18786)"/>
<path d="M156.558 47V34.436H164.406V36.236H158.592V39.728H163.758V41.528H158.592V47H156.558ZM171.462 47.216C170.646 47.216 169.902 47.078 169.23 46.802C168.57 46.514 168 46.1 167.52 45.56C167.052 45.008 166.686 44.33 166.422 43.526C166.17 42.71 166.044 41.774 166.044 40.718C166.044 39.662 166.17 38.732 166.422 37.928C166.686 37.112 167.052 36.434 167.52 35.894C168 35.342 168.57 34.928 169.23 34.652C169.902 34.364 170.646 34.22 171.462 34.22C172.278 34.22 173.016 34.364 173.676 34.652C174.348 34.928 174.918 35.342 175.386 35.894C175.866 36.434 176.232 37.112 176.484 37.928C176.748 38.732 176.88 39.662 176.88 40.718C176.88 41.774 176.748 42.71 176.484 43.526C176.232 44.33 175.866 45.008 175.386 45.56C174.918 46.1 174.348 46.514 173.676 46.802C173.016 47.078 172.278 47.216 171.462 47.216ZM171.462 45.398C171.942 45.398 172.38 45.314 172.776 45.146C173.184 44.978 173.526 44.738 173.802 44.426C174.09 44.102 174.312 43.712 174.468 43.256C174.624 42.8 174.702 42.284 174.702 41.708V39.728C174.702 39.152 174.624 38.636 174.468 38.18C174.312 37.724 174.09 37.34 173.802 37.028C173.526 36.704 173.184 36.458 172.776 36.29C172.38 36.122 171.942 36.038 171.462 36.038C170.97 36.038 170.526 36.122 170.13 36.29C169.734 36.458 169.392 36.704 169.104 37.028C168.828 37.34 168.612 37.724 168.456 38.18C168.3 38.636 168.222 39.152 168.222 39.728V41.708C168.222 42.284 168.3 42.8 168.456 43.256C168.612 43.712 168.828 44.102 169.104 44.426C169.392 44.738 169.734 44.978 170.13 45.146C170.526 45.314 170.97 45.398 171.462 45.398ZM181.65 47H179.616V34.436H185.034C186.162 34.436 187.05 34.778 187.698 35.462C188.346 36.134 188.67 37.052 188.67 38.216C188.67 39.116 188.46 39.866 188.04 40.466C187.632 41.054 187.026 41.468 186.222 41.708L188.94 47H186.672L184.152 41.924H181.65V47ZM184.89 40.214C185.406 40.214 185.808 40.082 186.096 39.818C186.384 39.542 186.528 39.152 186.528 38.648V37.784C186.528 37.28 186.384 36.896 186.096 36.632C185.808 36.356 185.406 36.218 184.89 36.218H181.65V40.214H184.89ZM196.065 34.436H201.627C202.671 34.436 203.487 34.73 204.075 35.318C204.675 35.906 204.975 36.692 204.975 37.676C204.975 38.144 204.909 38.546 204.777 38.882C204.645 39.206 204.477 39.476 204.273 39.692C204.069 39.896 203.835 40.052 203.571 40.16C203.307 40.256 203.049 40.316 202.797 40.34V40.448C203.049 40.46 203.325 40.52 203.625 40.628C203.937 40.736 204.225 40.91 204.489 41.15C204.753 41.378 204.975 41.678 205.155 42.05C205.335 42.41 205.425 42.854 205.425 43.382C205.425 43.886 205.341 44.36 205.173 44.804C205.017 45.248 204.795 45.632 204.507 45.956C204.219 46.28 203.877 46.538 203.481 46.73C203.085 46.91 202.653 47 202.185 47H196.065V34.436ZM198.099 45.254H201.591C202.119 45.254 202.533 45.116 202.833 44.84C203.133 44.564 203.283 44.168 203.283 43.652V43.04C203.283 42.524 203.133 42.128 202.833 41.852C202.533 41.576 202.119 41.438 201.591 41.438H198.099V45.254ZM198.099 39.746H201.249C201.753 39.746 202.143 39.62 202.419 39.368C202.695 39.104 202.833 38.732 202.833 38.252V37.676C202.833 37.196 202.695 36.83 202.419 36.578C202.143 36.314 201.753 36.182 201.249 36.182H198.099V39.746ZM210.164 47H208.13V34.436H213.548C214.676 34.436 215.564 34.778 216.212 35.462C216.86 36.134 217.184 37.052 217.184 38.216C217.184 39.116 216.974 39.866 216.554 40.466C216.146 41.054 215.54 41.468 214.736 41.708L217.454 47H215.186L212.666 41.924H210.164V47ZM213.404 40.214C213.92 40.214 214.322 40.082 214.61 39.818C214.898 39.542 215.042 39.152 215.042 38.648V37.784C215.042 37.28 214.898 36.896 214.61 36.632C214.322 36.356 213.92 36.218 213.404 36.218H210.164V40.214H213.404ZM227.973 47L226.839 43.598H222.141L221.043 47H218.973L223.257 34.436H225.813L230.097 47H227.973ZM224.535 36.308H224.445L222.627 41.852H226.335L224.535 36.308ZM235.627 40.052L234.241 37.388H234.187V47H232.243V34.436H234.511L238.615 41.384L240.001 44.048H240.055V34.436H241.999V47H239.731L235.627 40.052ZM245.293 34.436H249.739C250.543 34.436 251.269 34.568 251.917 34.832C252.577 35.096 253.135 35.492 253.591 36.02C254.059 36.536 254.419 37.19 254.671 37.982C254.923 38.762 255.049 39.674 255.049 40.718C255.049 41.762 254.923 42.68 254.671 43.472C254.419 44.252 254.059 44.906 253.591 45.434C253.135 45.95 252.577 46.34 251.917 46.604C251.269 46.868 250.543 47 249.739 47H245.293V34.436ZM249.739 45.2C250.675 45.2 251.431 44.906 252.007 44.318C252.583 43.73 252.871 42.866 252.871 41.726V39.71C252.871 38.57 252.583 37.706 252.007 37.118C251.431 36.53 250.675 36.236 249.739 36.236H247.327V45.2H249.739ZM261.542 47.216C260.486 47.216 259.586 47.024 258.842 46.64C258.11 46.256 257.48 45.74 256.952 45.092L258.356 43.778C258.8 44.318 259.286 44.726 259.814 45.002C260.354 45.278 260.966 45.416 261.65 45.416C262.454 45.416 263.06 45.236 263.468 44.876C263.876 44.516 264.08 44.03 264.08 43.418C264.08 42.926 263.936 42.536 263.648 42.248C263.36 41.96 262.85 41.744 262.118 41.6L261.002 41.402C259.778 41.174 258.86 40.772 258.248 40.196C257.636 39.62 257.33 38.828 257.33 37.82C257.33 37.268 257.432 36.77 257.636 36.326C257.852 35.87 258.146 35.492 258.518 35.192C258.902 34.88 259.364 34.64 259.904 34.472C260.444 34.304 261.05 34.22 261.722 34.22C262.67 34.22 263.492 34.388 264.188 34.724C264.884 35.048 265.478 35.522 265.97 36.146L264.548 37.406C264.224 36.986 263.828 36.65 263.36 36.398C262.892 36.146 262.31 36.02 261.614 36.02C260.894 36.02 260.336 36.164 259.94 36.452C259.544 36.74 259.346 37.16 259.346 37.712C259.346 38.24 259.508 38.636 259.832 38.9C260.156 39.152 260.66 39.344 261.344 39.476L262.46 39.71C263.72 39.95 264.638 40.358 265.214 40.934C265.802 41.51 266.096 42.302 266.096 43.31C266.096 43.898 265.994 44.432 265.79 44.912C265.586 45.392 265.286 45.806 264.89 46.154C264.506 46.49 264.032 46.754 263.468 46.946C262.904 47.126 262.262 47.216 261.542 47.216Z" fill="white"/>
<path fill-rule="evenodd" clip-rule="evenodd" d="M305.392 40.467H277V39.533H305.392L301.908 35.6604L302.502 35L307 40L302.502 45L301.908 44.3396L305.392 40.467Z" fill="white"/>
<rect x="0.5" y="0.5" width="462" height="79" stroke="#3E3E3E"/>
<defs>
<linearGradient id="paint0_linear_1181_18786" x1="231.5" y1="0" x2="231.5" y2="80" gradientUnits="userSpaceOnUse">
<stop stop-color="#8560A3"/>
<stop offset="1" stop-color="#6963AB"/>
</linearGradient>
</defs>
</svg>
