<svg width="463" height="80" viewBox="0 0 463 80" fill="none" xmlns="http://www.w3.org/2000/svg">
<path d="M157.819 47V34.436H165.667V36.236H159.853V39.728H165.019V41.528H159.853V47H157.819ZM172.722 47.216C171.906 47.216 171.162 47.078 170.49 46.802C169.83 46.514 169.26 46.1 168.78 45.56C168.312 45.008 167.946 44.33 167.682 43.526C167.43 42.71 167.304 41.774 167.304 40.718C167.304 39.662 167.43 38.732 167.682 37.928C167.946 37.112 168.312 36.434 168.78 35.894C169.26 35.342 169.83 34.928 170.49 34.652C171.162 34.364 171.906 34.22 172.722 34.22C173.538 34.22 174.276 34.364 174.936 34.652C175.608 34.928 176.178 35.342 176.646 35.894C177.126 36.434 177.492 37.112 177.744 37.928C178.008 38.732 178.14 39.662 178.14 40.718C178.14 41.774 178.008 42.71 177.744 43.526C177.492 44.33 177.126 45.008 176.646 45.56C176.178 46.1 175.608 46.514 174.936 46.802C174.276 47.078 173.538 47.216 172.722 47.216ZM172.722 45.398C173.202 45.398 173.64 45.314 174.036 45.146C174.444 44.978 174.786 44.738 175.062 44.426C175.35 44.102 175.572 43.712 175.728 43.256C175.884 42.8 175.962 42.284 175.962 41.708V39.728C175.962 39.152 175.884 38.636 175.728 38.18C175.572 37.724 175.35 37.34 175.062 37.028C174.786 36.704 174.444 36.458 174.036 36.29C173.64 36.122 173.202 36.038 172.722 36.038C172.23 36.038 171.786 36.122 171.39 36.29C170.994 36.458 170.652 36.704 170.364 37.028C170.088 37.34 169.872 37.724 169.716 38.18C169.56 38.636 169.482 39.152 169.482 39.728V41.708C169.482 42.284 169.56 42.8 169.716 43.256C169.872 43.712 170.088 44.102 170.364 44.426C170.652 44.738 170.994 44.978 171.39 45.146C171.786 45.314 172.23 45.398 172.722 45.398ZM182.911 47H180.877V34.436H186.295C187.423 34.436 188.311 34.778 188.959 35.462C189.607 36.134 189.931 37.052 189.931 38.216C189.931 39.116 189.721 39.866 189.301 40.466C188.893 41.054 188.287 41.468 187.483 41.708L190.201 47H187.933L185.413 41.924H182.911V47ZM186.151 40.214C186.667 40.214 187.069 40.082 187.357 39.818C187.645 39.542 187.789 39.152 187.789 38.648V37.784C187.789 37.28 187.645 36.896 187.357 36.632C187.069 36.356 186.667 36.218 186.151 36.218H182.911V40.214H186.151ZM197.326 47V34.436H205.372V36.236H199.36V39.728H204.814V41.528H199.36V45.2H205.372V47H197.326ZM212.912 47.216C211.268 47.216 209.978 46.664 209.042 45.56C208.106 44.444 207.638 42.83 207.638 40.718C207.638 39.662 207.758 38.732 207.998 37.928C208.238 37.124 208.586 36.446 209.042 35.894C209.498 35.342 210.05 34.928 210.698 34.652C211.358 34.364 212.096 34.22 212.912 34.22C214.004 34.22 214.916 34.46 215.648 34.94C216.392 35.42 216.974 36.128 217.394 37.064L215.684 38C215.468 37.4 215.132 36.926 214.676 36.578C214.232 36.218 213.644 36.038 212.912 36.038C211.94 36.038 211.178 36.368 210.626 37.028C210.074 37.688 209.798 38.6 209.798 39.764V41.672C209.798 42.836 210.074 43.748 210.626 44.408C211.178 45.068 211.94 45.398 212.912 45.398C213.668 45.398 214.28 45.206 214.748 44.822C215.228 44.426 215.582 43.922 215.81 43.31L217.448 44.3C217.028 45.212 216.44 45.926 215.684 46.442C214.928 46.958 214.004 47.216 212.912 47.216ZM224.435 47.216C223.619 47.216 222.875 47.078 222.203 46.802C221.543 46.514 220.973 46.1 220.493 45.56C220.025 45.008 219.659 44.33 219.395 43.526C219.143 42.71 219.017 41.774 219.017 40.718C219.017 39.662 219.143 38.732 219.395 37.928C219.659 37.112 220.025 36.434 220.493 35.894C220.973 35.342 221.543 34.928 222.203 34.652C222.875 34.364 223.619 34.22 224.435 34.22C225.251 34.22 225.989 34.364 226.649 34.652C227.321 34.928 227.891 35.342 228.359 35.894C228.839 36.434 229.205 37.112 229.457 37.928C229.721 38.732 229.853 39.662 229.853 40.718C229.853 41.774 229.721 42.71 229.457 43.526C229.205 44.33 228.839 45.008 228.359 45.56C227.891 46.1 227.321 46.514 226.649 46.802C225.989 47.078 225.251 47.216 224.435 47.216ZM224.435 45.398C224.915 45.398 225.353 45.314 225.749 45.146C226.157 44.978 226.499 44.738 226.775 44.426C227.063 44.102 227.285 43.712 227.441 43.256C227.597 42.8 227.675 42.284 227.675 41.708V39.728C227.675 39.152 227.597 38.636 227.441 38.18C227.285 37.724 227.063 37.34 226.775 37.028C226.499 36.704 226.157 36.458 225.749 36.29C225.353 36.122 224.915 36.038 224.435 36.038C223.943 36.038 223.499 36.122 223.103 36.29C222.707 36.458 222.365 36.704 222.077 37.028C221.801 37.34 221.585 37.724 221.429 38.18C221.273 38.636 221.195 39.152 221.195 39.728V41.708C221.195 42.284 221.273 42.8 221.429 43.256C221.585 43.712 221.801 44.102 222.077 44.426C222.365 44.738 222.707 44.978 223.103 45.146C223.499 45.314 223.943 45.398 224.435 45.398ZM242.202 37.388H242.112L241.122 39.422L238.368 44.444L235.614 39.422L234.624 37.388H234.534V47H232.59V34.436H235.002L238.368 40.826H238.476L241.842 34.436H244.146V47H242.202V37.388ZM257.062 37.388H256.972L255.982 39.422L253.228 44.444L250.474 39.422L249.484 37.388H249.394V47H247.45V34.436H249.862L253.228 40.826H253.336L256.702 34.436H259.006V47H257.062V37.388ZM262.31 47V34.436H270.356V36.236H264.344V39.728H269.798V41.528H264.344V45.2H270.356V47H262.31ZM275.214 47H273.18V34.436H278.598C279.726 34.436 280.614 34.778 281.262 35.462C281.91 36.134 282.234 37.052 282.234 38.216C282.234 39.116 282.024 39.866 281.604 40.466C281.196 41.054 280.59 41.468 279.786 41.708L282.504 47H280.236L277.716 41.924H275.214V47ZM278.454 40.214C278.97 40.214 279.372 40.082 279.66 39.818C279.948 39.542 280.092 39.152 280.092 38.648V37.784C280.092 37.28 279.948 36.896 279.66 36.632C279.372 36.356 278.97 36.218 278.454 36.218H275.214V40.214H278.454ZM289.715 47.216C288.071 47.216 286.781 46.664 285.845 45.56C284.909 44.444 284.441 42.83 284.441 40.718C284.441 39.662 284.561 38.732 284.801 37.928C285.041 37.124 285.389 36.446 285.845 35.894C286.301 35.342 286.853 34.928 287.501 34.652C288.161 34.364 288.899 34.22 289.715 34.22C290.807 34.22 291.719 34.46 292.451 34.94C293.195 35.42 293.777 36.128 294.197 37.064L292.487 38C292.271 37.4 291.935 36.926 291.479 36.578C291.035 36.218 290.447 36.038 289.715 36.038C288.743 36.038 287.981 36.368 287.429 37.028C286.877 37.688 286.601 38.6 286.601 39.764V41.672C286.601 42.836 286.877 43.748 287.429 44.408C287.981 45.068 288.743 45.398 289.715 45.398C290.471 45.398 291.083 45.206 291.551 44.822C292.031 44.426 292.385 43.922 292.613 43.31L294.251 44.3C293.831 45.212 293.243 45.926 292.487 46.442C291.731 46.958 290.807 47.216 289.715 47.216ZM296.607 47V34.436H304.653V36.236H298.641V39.728H304.095V41.528H298.641V45.2H304.653V47H296.607Z" fill="white"/>
<rect x="0.5" y="0.5" width="462" height="79" stroke="#3E3E3E"/>
</svg>
