<svg width="463" height="80" viewBox="0 0 463 80" fill="none" xmlns="http://www.w3.org/2000/svg">
<rect x="0.5" y="0.5" width="462" height="79" fill="url(#paint0_linear_1181_18788)"/>
<path d="M137.819 47V34.436H145.667V36.236H139.853V39.728H145.019V41.528H139.853V47H137.819ZM152.722 47.216C151.906 47.216 151.162 47.078 150.49 46.802C149.83 46.514 149.26 46.1 148.78 45.56C148.312 45.008 147.946 44.33 147.682 43.526C147.43 42.71 147.304 41.774 147.304 40.718C147.304 39.662 147.43 38.732 147.682 37.928C147.946 37.112 148.312 36.434 148.78 35.894C149.26 35.342 149.83 34.928 150.49 34.652C151.162 34.364 151.906 34.22 152.722 34.22C153.538 34.22 154.276 34.364 154.936 34.652C155.608 34.928 156.178 35.342 156.646 35.894C157.126 36.434 157.492 37.112 157.744 37.928C158.008 38.732 158.14 39.662 158.14 40.718C158.14 41.774 158.008 42.71 157.744 43.526C157.492 44.33 157.126 45.008 156.646 45.56C156.178 46.1 155.608 46.514 154.936 46.802C154.276 47.078 153.538 47.216 152.722 47.216ZM152.722 45.398C153.202 45.398 153.64 45.314 154.036 45.146C154.444 44.978 154.786 44.738 155.062 44.426C155.35 44.102 155.572 43.712 155.728 43.256C155.884 42.8 155.962 42.284 155.962 41.708V39.728C155.962 39.152 155.884 38.636 155.728 38.18C155.572 37.724 155.35 37.34 155.062 37.028C154.786 36.704 154.444 36.458 154.036 36.29C153.64 36.122 153.202 36.038 152.722 36.038C152.23 36.038 151.786 36.122 151.39 36.29C150.994 36.458 150.652 36.704 150.364 37.028C150.088 37.34 149.872 37.724 149.716 38.18C149.56 38.636 149.482 39.152 149.482 39.728V41.708C149.482 42.284 149.56 42.8 149.716 43.256C149.872 43.712 150.088 44.102 150.364 44.426C150.652 44.738 150.994 44.978 151.39 45.146C151.786 45.314 152.23 45.398 152.722 45.398ZM162.911 47H160.877V34.436H166.295C167.423 34.436 168.311 34.778 168.959 35.462C169.607 36.134 169.931 37.052 169.931 38.216C169.931 39.116 169.721 39.866 169.301 40.466C168.893 41.054 168.287 41.468 167.483 41.708L170.201 47H167.933L165.413 41.924H162.911V47ZM166.151 40.214C166.667 40.214 167.069 40.082 167.357 39.818C167.645 39.542 167.789 39.152 167.789 38.648V37.784C167.789 37.28 167.645 36.896 167.357 36.632C167.069 36.356 166.667 36.218 166.151 36.218H162.911V40.214H166.151ZM177.326 47V34.436H185.372V36.236H179.36V39.728H184.814V41.528H179.36V45.2H185.372V47H177.326ZM192.912 47.216C191.268 47.216 189.978 46.664 189.042 45.56C188.106 44.444 187.638 42.83 187.638 40.718C187.638 39.662 187.758 38.732 187.998 37.928C188.238 37.124 188.586 36.446 189.042 35.894C189.498 35.342 190.05 34.928 190.698 34.652C191.358 34.364 192.096 34.22 192.912 34.22C194.004 34.22 194.916 34.46 195.648 34.94C196.392 35.42 196.974 36.128 197.394 37.064L195.684 38C195.468 37.4 195.132 36.926 194.676 36.578C194.232 36.218 193.644 36.038 192.912 36.038C191.94 36.038 191.178 36.368 190.626 37.028C190.074 37.688 189.798 38.6 189.798 39.764V41.672C189.798 42.836 190.074 43.748 190.626 44.408C191.178 45.068 191.94 45.398 192.912 45.398C193.668 45.398 194.28 45.206 194.748 44.822C195.228 44.426 195.582 43.922 195.81 43.31L197.448 44.3C197.028 45.212 196.44 45.926 195.684 46.442C194.928 46.958 194.004 47.216 192.912 47.216ZM204.435 47.216C203.619 47.216 202.875 47.078 202.203 46.802C201.543 46.514 200.973 46.1 200.493 45.56C200.025 45.008 199.659 44.33 199.395 43.526C199.143 42.71 199.017 41.774 199.017 40.718C199.017 39.662 199.143 38.732 199.395 37.928C199.659 37.112 200.025 36.434 200.493 35.894C200.973 35.342 201.543 34.928 202.203 34.652C202.875 34.364 203.619 34.22 204.435 34.22C205.251 34.22 205.989 34.364 206.649 34.652C207.321 34.928 207.891 35.342 208.359 35.894C208.839 36.434 209.205 37.112 209.457 37.928C209.721 38.732 209.853 39.662 209.853 40.718C209.853 41.774 209.721 42.71 209.457 43.526C209.205 44.33 208.839 45.008 208.359 45.56C207.891 46.1 207.321 46.514 206.649 46.802C205.989 47.078 205.251 47.216 204.435 47.216ZM204.435 45.398C204.915 45.398 205.353 45.314 205.749 45.146C206.157 44.978 206.499 44.738 206.775 44.426C207.063 44.102 207.285 43.712 207.441 43.256C207.597 42.8 207.675 42.284 207.675 41.708V39.728C207.675 39.152 207.597 38.636 207.441 38.18C207.285 37.724 207.063 37.34 206.775 37.028C206.499 36.704 206.157 36.458 205.749 36.29C205.353 36.122 204.915 36.038 204.435 36.038C203.943 36.038 203.499 36.122 203.103 36.29C202.707 36.458 202.365 36.704 202.077 37.028C201.801 37.34 201.585 37.724 201.429 38.18C201.273 38.636 201.195 39.152 201.195 39.728V41.708C201.195 42.284 201.273 42.8 201.429 43.256C201.585 43.712 201.801 44.102 202.077 44.426C202.365 44.738 202.707 44.978 203.103 45.146C203.499 45.314 203.943 45.398 204.435 45.398ZM222.202 37.388H222.112L221.122 39.422L218.368 44.444L215.614 39.422L214.624 37.388H214.534V47H212.59V34.436H215.002L218.368 40.826H218.476L221.842 34.436H224.146V47H222.202V37.388ZM237.062 37.388H236.972L235.982 39.422L233.228 44.444L230.474 39.422L229.484 37.388H229.394V47H227.45V34.436H229.862L233.228 40.826H233.336L236.702 34.436H239.006V47H237.062V37.388ZM242.31 47V34.436H250.356V36.236H244.344V39.728H249.798V41.528H244.344V45.2H250.356V47H242.31ZM255.214 47H253.18V34.436H258.598C259.726 34.436 260.614 34.778 261.262 35.462C261.91 36.134 262.234 37.052 262.234 38.216C262.234 39.116 262.024 39.866 261.604 40.466C261.196 41.054 260.59 41.468 259.786 41.708L262.504 47H260.236L257.716 41.924H255.214V47ZM258.454 40.214C258.97 40.214 259.372 40.082 259.66 39.818C259.948 39.542 260.092 39.152 260.092 38.648V37.784C260.092 37.28 259.948 36.896 259.66 36.632C259.372 36.356 258.97 36.218 258.454 36.218H255.214V40.214H258.454ZM269.715 47.216C268.071 47.216 266.781 46.664 265.845 45.56C264.909 44.444 264.441 42.83 264.441 40.718C264.441 39.662 264.561 38.732 264.801 37.928C265.041 37.124 265.389 36.446 265.845 35.894C266.301 35.342 266.853 34.928 267.501 34.652C268.161 34.364 268.899 34.22 269.715 34.22C270.807 34.22 271.719 34.46 272.451 34.94C273.195 35.42 273.777 36.128 274.197 37.064L272.487 38C272.271 37.4 271.935 36.926 271.479 36.578C271.035 36.218 270.447 36.038 269.715 36.038C268.743 36.038 267.981 36.368 267.429 37.028C266.877 37.688 266.601 38.6 266.601 39.764V41.672C266.601 42.836 266.877 43.748 267.429 44.408C267.981 45.068 268.743 45.398 269.715 45.398C270.471 45.398 271.083 45.206 271.551 44.822C272.031 44.426 272.385 43.922 272.613 43.31L274.251 44.3C273.831 45.212 273.243 45.926 272.487 46.442C271.731 46.958 270.807 47.216 269.715 47.216ZM276.607 47V34.436H284.653V36.236H278.641V39.728H284.095V41.528H278.641V45.2H284.653V47H276.607Z" fill="white"/>
<path fill-rule="evenodd" clip-rule="evenodd" d="M324.392 40.467H296V39.533H324.392L320.908 35.6604L321.502 35L326 40L321.502 45L320.908 44.3396L324.392 40.467Z" fill="white"/>
<rect x="0.5" y="0.5" width="462" height="79" stroke="#3E3E3E"/>
<defs>
<linearGradient id="paint0_linear_1181_18788" x1="231.5" y1="0" x2="231.5" y2="80" gradientUnits="userSpaceOnUse">
<stop stop-color="#8560A3"/>
<stop offset="1" stop-color="#6963AB"/>
</linearGradient>
</defs>
</svg>
