<svg width="463" height="80" viewBox="0 0 463 80" fill="none" xmlns="http://www.w3.org/2000/svg">
<path d="M168.272 47V34.436H176.12V36.236H170.306V39.728H175.472V41.528H170.306V47H168.272ZM183.176 47.216C182.36 47.216 181.616 47.078 180.944 46.802C180.284 46.514 179.714 46.1 179.234 45.56C178.766 45.008 178.4 44.33 178.136 43.526C177.884 42.71 177.758 41.774 177.758 40.718C177.758 39.662 177.884 38.732 178.136 37.928C178.4 37.112 178.766 36.434 179.234 35.894C179.714 35.342 180.284 34.928 180.944 34.652C181.616 34.364 182.36 34.22 183.176 34.22C183.992 34.22 184.73 34.364 185.39 34.652C186.062 34.928 186.632 35.342 187.1 35.894C187.58 36.434 187.946 37.112 188.198 37.928C188.462 38.732 188.594 39.662 188.594 40.718C188.594 41.774 188.462 42.71 188.198 43.526C187.946 44.33 187.58 45.008 187.1 45.56C186.632 46.1 186.062 46.514 185.39 46.802C184.73 47.078 183.992 47.216 183.176 47.216ZM183.176 45.398C183.656 45.398 184.094 45.314 184.49 45.146C184.898 44.978 185.24 44.738 185.516 44.426C185.804 44.102 186.026 43.712 186.182 43.256C186.338 42.8 186.416 42.284 186.416 41.708V39.728C186.416 39.152 186.338 38.636 186.182 38.18C186.026 37.724 185.804 37.34 185.516 37.028C185.24 36.704 184.898 36.458 184.49 36.29C184.094 36.122 183.656 36.038 183.176 36.038C182.684 36.038 182.24 36.122 181.844 36.29C181.448 36.458 181.106 36.704 180.818 37.028C180.542 37.34 180.326 37.724 180.17 38.18C180.014 38.636 179.936 39.152 179.936 39.728V41.708C179.936 42.284 180.014 42.8 180.17 43.256C180.326 43.712 180.542 44.102 180.818 44.426C181.106 44.738 181.448 44.978 181.844 45.146C182.24 45.314 182.684 45.398 183.176 45.398ZM193.364 47H191.33V34.436H196.748C197.876 34.436 198.764 34.778 199.412 35.462C200.06 36.134 200.384 37.052 200.384 38.216C200.384 39.116 200.174 39.866 199.754 40.466C199.346 41.054 198.74 41.468 197.936 41.708L200.654 47H198.386L195.866 41.924H193.364V47ZM196.604 40.214C197.12 40.214 197.522 40.082 197.81 39.818C198.098 39.542 198.242 39.152 198.242 38.648V37.784C198.242 37.28 198.098 36.896 197.81 36.632C197.522 36.356 197.12 36.218 196.604 36.218H193.364V40.214H196.604ZM211.541 47.216C210.485 47.216 209.585 47.024 208.841 46.64C208.109 46.256 207.479 45.74 206.951 45.092L208.355 43.778C208.799 44.318 209.285 44.726 209.813 45.002C210.353 45.278 210.965 45.416 211.649 45.416C212.453 45.416 213.059 45.236 213.467 44.876C213.875 44.516 214.079 44.03 214.079 43.418C214.079 42.926 213.935 42.536 213.647 42.248C213.359 41.96 212.849 41.744 212.117 41.6L211.001 41.402C209.777 41.174 208.859 40.772 208.247 40.196C207.635 39.62 207.329 38.828 207.329 37.82C207.329 37.268 207.431 36.77 207.635 36.326C207.851 35.87 208.145 35.492 208.517 35.192C208.901 34.88 209.363 34.64 209.903 34.472C210.443 34.304 211.049 34.22 211.721 34.22C212.669 34.22 213.491 34.388 214.187 34.724C214.883 35.048 215.477 35.522 215.969 36.146L214.547 37.406C214.223 36.986 213.827 36.65 213.359 36.398C212.891 36.146 212.309 36.02 211.613 36.02C210.893 36.02 210.335 36.164 209.939 36.452C209.543 36.74 209.345 37.16 209.345 37.712C209.345 38.24 209.507 38.636 209.831 38.9C210.155 39.152 210.659 39.344 211.343 39.476L212.459 39.71C213.719 39.95 214.637 40.358 215.213 40.934C215.801 41.51 216.095 42.302 216.095 43.31C216.095 43.898 215.993 44.432 215.789 44.912C215.585 45.392 215.285 45.806 214.889 46.154C214.505 46.49 214.031 46.754 213.467 46.946C212.903 47.126 212.261 47.216 211.541 47.216ZM223.1 36.236V47H221.066V36.236H217.322V34.436H226.844V36.236H223.1ZM235.697 47L234.563 43.598H229.865L228.767 47H226.697L230.981 34.436H233.537L237.821 47H235.697ZM232.259 36.308H232.169L230.351 41.852H234.059L232.259 36.308ZM242.001 47H239.967V34.436H245.385C246.513 34.436 247.401 34.778 248.049 35.462C248.697 36.134 249.021 37.052 249.021 38.216C249.021 39.116 248.811 39.866 248.391 40.466C247.983 41.054 247.377 41.468 246.573 41.708L249.291 47H247.023L244.503 41.924H242.001V47ZM245.241 40.214C245.757 40.214 246.159 40.082 246.447 39.818C246.735 39.542 246.879 39.152 246.879 38.648V37.784C246.879 37.28 246.735 36.896 246.447 36.632C246.159 36.356 245.757 36.218 245.241 36.218H242.001V40.214H245.241ZM256.185 36.236V47H254.151V36.236H250.407V34.436H259.929V36.236H256.185ZM264.037 34.436V42.176C264.037 43.244 264.241 44.048 264.649 44.588C265.057 45.128 265.753 45.398 266.737 45.398C267.721 45.398 268.417 45.128 268.825 44.588C269.233 44.048 269.437 43.244 269.437 42.176V34.436H271.435V41.852C271.435 42.776 271.351 43.574 271.183 44.246C271.015 44.918 270.745 45.476 270.373 45.92C270.001 46.352 269.515 46.676 268.915 46.892C268.327 47.108 267.601 47.216 266.737 47.216C265.873 47.216 265.141 47.108 264.541 46.892C263.953 46.676 263.473 46.352 263.101 45.92C262.729 45.476 262.459 44.918 262.291 44.246C262.123 43.574 262.039 42.776 262.039 41.852V34.436H264.037ZM274.651 47V34.436H280.051C281.215 34.436 282.115 34.778 282.751 35.462C283.387 36.146 283.705 37.064 283.705 38.216C283.705 39.368 283.387 40.286 282.751 40.97C282.115 41.654 281.215 41.996 280.051 41.996H276.685V47H274.651ZM276.685 40.214H279.925C280.441 40.214 280.843 40.082 281.131 39.818C281.419 39.542 281.563 39.152 281.563 38.648V37.784C281.563 37.28 281.419 36.896 281.131 36.632C280.843 36.356 280.441 36.218 279.925 36.218H276.685V40.214ZM289.828 47.216C288.772 47.216 287.872 47.024 287.128 46.64C286.396 46.256 285.766 45.74 285.238 45.092L286.642 43.778C287.086 44.318 287.572 44.726 288.1 45.002C288.64 45.278 289.252 45.416 289.936 45.416C290.74 45.416 291.346 45.236 291.754 44.876C292.162 44.516 292.366 44.03 292.366 43.418C292.366 42.926 292.222 42.536 291.934 42.248C291.646 41.96 291.136 41.744 290.404 41.6L289.288 41.402C288.064 41.174 287.146 40.772 286.534 40.196C285.922 39.62 285.616 38.828 285.616 37.82C285.616 37.268 285.718 36.77 285.922 36.326C286.138 35.87 286.432 35.492 286.804 35.192C287.188 34.88 287.65 34.64 288.19 34.472C288.73 34.304 289.336 34.22 290.008 34.22C290.956 34.22 291.778 34.388 292.474 34.724C293.17 35.048 293.764 35.522 294.256 36.146L292.834 37.406C292.51 36.986 292.114 36.65 291.646 36.398C291.178 36.146 290.596 36.02 289.9 36.02C289.18 36.02 288.622 36.164 288.226 36.452C287.83 36.74 287.632 37.16 287.632 37.712C287.632 38.24 287.794 38.636 288.118 38.9C288.442 39.152 288.946 39.344 289.63 39.476L290.746 39.71C292.006 39.95 292.924 40.358 293.5 40.934C294.088 41.51 294.382 42.302 294.382 43.31C294.382 43.898 294.28 44.432 294.076 44.912C293.872 45.392 293.572 45.806 293.176 46.154C292.792 46.49 292.318 46.754 291.754 46.946C291.19 47.126 290.548 47.216 289.828 47.216Z" fill="white"/>
<rect x="0.5" y="0.5" width="462" height="79" stroke="#3E3E3E"/>
</svg>
