<svg width="463" height="80" viewBox="0 0 463 80" fill="none" xmlns="http://www.w3.org/2000/svg">
<rect x="0.5" y="0.5" width="462" height="79" fill="url(#paint0_linear_1181_18789)"/>
<path d="M148.272 47V34.436H156.12V36.236H150.306V39.728H155.472V41.528H150.306V47H148.272ZM163.176 47.216C162.36 47.216 161.616 47.078 160.944 46.802C160.284 46.514 159.714 46.1 159.234 45.56C158.766 45.008 158.4 44.33 158.136 43.526C157.884 42.71 157.758 41.774 157.758 40.718C157.758 39.662 157.884 38.732 158.136 37.928C158.4 37.112 158.766 36.434 159.234 35.894C159.714 35.342 160.284 34.928 160.944 34.652C161.616 34.364 162.36 34.22 163.176 34.22C163.992 34.22 164.73 34.364 165.39 34.652C166.062 34.928 166.632 35.342 167.1 35.894C167.58 36.434 167.946 37.112 168.198 37.928C168.462 38.732 168.594 39.662 168.594 40.718C168.594 41.774 168.462 42.71 168.198 43.526C167.946 44.33 167.58 45.008 167.1 45.56C166.632 46.1 166.062 46.514 165.39 46.802C164.73 47.078 163.992 47.216 163.176 47.216ZM163.176 45.398C163.656 45.398 164.094 45.314 164.49 45.146C164.898 44.978 165.24 44.738 165.516 44.426C165.804 44.102 166.026 43.712 166.182 43.256C166.338 42.8 166.416 42.284 166.416 41.708V39.728C166.416 39.152 166.338 38.636 166.182 38.18C166.026 37.724 165.804 37.34 165.516 37.028C165.24 36.704 164.898 36.458 164.49 36.29C164.094 36.122 163.656 36.038 163.176 36.038C162.684 36.038 162.24 36.122 161.844 36.29C161.448 36.458 161.106 36.704 160.818 37.028C160.542 37.34 160.326 37.724 160.17 38.18C160.014 38.636 159.936 39.152 159.936 39.728V41.708C159.936 42.284 160.014 42.8 160.17 43.256C160.326 43.712 160.542 44.102 160.818 44.426C161.106 44.738 161.448 44.978 161.844 45.146C162.24 45.314 162.684 45.398 163.176 45.398ZM173.364 47H171.33V34.436H176.748C177.876 34.436 178.764 34.778 179.412 35.462C180.06 36.134 180.384 37.052 180.384 38.216C180.384 39.116 180.174 39.866 179.754 40.466C179.346 41.054 178.74 41.468 177.936 41.708L180.654 47H178.386L175.866 41.924H173.364V47ZM176.604 40.214C177.12 40.214 177.522 40.082 177.81 39.818C178.098 39.542 178.242 39.152 178.242 38.648V37.784C178.242 37.28 178.098 36.896 177.81 36.632C177.522 36.356 177.12 36.218 176.604 36.218H173.364V40.214H176.604ZM191.541 47.216C190.485 47.216 189.585 47.024 188.841 46.64C188.109 46.256 187.479 45.74 186.951 45.092L188.355 43.778C188.799 44.318 189.285 44.726 189.813 45.002C190.353 45.278 190.965 45.416 191.649 45.416C192.453 45.416 193.059 45.236 193.467 44.876C193.875 44.516 194.079 44.03 194.079 43.418C194.079 42.926 193.935 42.536 193.647 42.248C193.359 41.96 192.849 41.744 192.117 41.6L191.001 41.402C189.777 41.174 188.859 40.772 188.247 40.196C187.635 39.62 187.329 38.828 187.329 37.82C187.329 37.268 187.431 36.77 187.635 36.326C187.851 35.87 188.145 35.492 188.517 35.192C188.901 34.88 189.363 34.64 189.903 34.472C190.443 34.304 191.049 34.22 191.721 34.22C192.669 34.22 193.491 34.388 194.187 34.724C194.883 35.048 195.477 35.522 195.969 36.146L194.547 37.406C194.223 36.986 193.827 36.65 193.359 36.398C192.891 36.146 192.309 36.02 191.613 36.02C190.893 36.02 190.335 36.164 189.939 36.452C189.543 36.74 189.345 37.16 189.345 37.712C189.345 38.24 189.507 38.636 189.831 38.9C190.155 39.152 190.659 39.344 191.343 39.476L192.459 39.71C193.719 39.95 194.637 40.358 195.213 40.934C195.801 41.51 196.095 42.302 196.095 43.31C196.095 43.898 195.993 44.432 195.789 44.912C195.585 45.392 195.285 45.806 194.889 46.154C194.505 46.49 194.031 46.754 193.467 46.946C192.903 47.126 192.261 47.216 191.541 47.216ZM203.1 36.236V47H201.066V36.236H197.322V34.436H206.844V36.236H203.1ZM215.697 47L214.563 43.598H209.865L208.767 47H206.697L210.981 34.436H213.537L217.821 47H215.697ZM212.259 36.308H212.169L210.351 41.852H214.059L212.259 36.308ZM222.001 47H219.967V34.436H225.385C226.513 34.436 227.401 34.778 228.049 35.462C228.697 36.134 229.021 37.052 229.021 38.216C229.021 39.116 228.811 39.866 228.391 40.466C227.983 41.054 227.377 41.468 226.573 41.708L229.291 47H227.023L224.503 41.924H222.001V47ZM225.241 40.214C225.757 40.214 226.159 40.082 226.447 39.818C226.735 39.542 226.879 39.152 226.879 38.648V37.784C226.879 37.28 226.735 36.896 226.447 36.632C226.159 36.356 225.757 36.218 225.241 36.218H222.001V40.214H225.241ZM236.185 36.236V47H234.151V36.236H230.407V34.436H239.929V36.236H236.185ZM244.037 34.436V42.176C244.037 43.244 244.241 44.048 244.649 44.588C245.057 45.128 245.753 45.398 246.737 45.398C247.721 45.398 248.417 45.128 248.825 44.588C249.233 44.048 249.437 43.244 249.437 42.176V34.436H251.435V41.852C251.435 42.776 251.351 43.574 251.183 44.246C251.015 44.918 250.745 45.476 250.373 45.92C250.001 46.352 249.515 46.676 248.915 46.892C248.327 47.108 247.601 47.216 246.737 47.216C245.873 47.216 245.141 47.108 244.541 46.892C243.953 46.676 243.473 46.352 243.101 45.92C242.729 45.476 242.459 44.918 242.291 44.246C242.123 43.574 242.039 42.776 242.039 41.852V34.436H244.037ZM254.651 47V34.436H260.051C261.215 34.436 262.115 34.778 262.751 35.462C263.387 36.146 263.705 37.064 263.705 38.216C263.705 39.368 263.387 40.286 262.751 40.97C262.115 41.654 261.215 41.996 260.051 41.996H256.685V47H254.651ZM256.685 40.214H259.925C260.441 40.214 260.843 40.082 261.131 39.818C261.419 39.542 261.563 39.152 261.563 38.648V37.784C261.563 37.28 261.419 36.896 261.131 36.632C260.843 36.356 260.441 36.218 259.925 36.218H256.685V40.214ZM269.828 47.216C268.772 47.216 267.872 47.024 267.128 46.64C266.396 46.256 265.766 45.74 265.238 45.092L266.642 43.778C267.086 44.318 267.572 44.726 268.1 45.002C268.64 45.278 269.252 45.416 269.936 45.416C270.74 45.416 271.346 45.236 271.754 44.876C272.162 44.516 272.366 44.03 272.366 43.418C272.366 42.926 272.222 42.536 271.934 42.248C271.646 41.96 271.136 41.744 270.404 41.6L269.288 41.402C268.064 41.174 267.146 40.772 266.534 40.196C265.922 39.62 265.616 38.828 265.616 37.82C265.616 37.268 265.718 36.77 265.922 36.326C266.138 35.87 266.432 35.492 266.804 35.192C267.188 34.88 267.65 34.64 268.19 34.472C268.73 34.304 269.336 34.22 270.008 34.22C270.956 34.22 271.778 34.388 272.474 34.724C273.17 35.048 273.764 35.522 274.256 36.146L272.834 37.406C272.51 36.986 272.114 36.65 271.646 36.398C271.178 36.146 270.596 36.02 269.9 36.02C269.18 36.02 268.622 36.164 268.226 36.452C267.83 36.74 267.632 37.16 267.632 37.712C267.632 38.24 267.794 38.636 268.118 38.9C268.442 39.152 268.946 39.344 269.63 39.476L270.746 39.71C272.006 39.95 272.924 40.358 273.5 40.934C274.088 41.51 274.382 42.302 274.382 43.31C274.382 43.898 274.28 44.432 274.076 44.912C273.872 45.392 273.572 45.806 273.176 46.154C272.792 46.49 272.318 46.754 271.754 46.946C271.19 47.126 270.548 47.216 269.828 47.216Z" fill="white"/>
<path fill-rule="evenodd" clip-rule="evenodd" d="M313.892 40.467H285.5V39.533H313.892L310.408 35.6604L311.002 35L315.5 40L311.002 45L310.408 44.3396L313.892 40.467Z" fill="white"/>
<rect x="0.5" y="0.5" width="462" height="79" stroke="#3E3E3E"/>
<defs>
<linearGradient id="paint0_linear_1181_18789" x1="231.5" y1="0" x2="231.5" y2="80" gradientUnits="userSpaceOnUse">
<stop stop-color="#8560A3"/>
<stop offset="1" stop-color="#6963AB"/>
</linearGradient>
</defs>
</svg>
