<svg width="136" height="24" viewBox="0 0 136 24" fill="none" xmlns="http://www.w3.org/2000/svg">
<path d="M33.572 11.232H33.39V11.204C35.056 11.204 36.036 10.406 36.036 9.034C36.036 7.536 35 6.64 33.222 6.64H29.33V17H33.432C35.574 17 36.834 15.908 36.834 14.074C36.834 12.282 35.63 11.232 33.572 11.232ZM34.79 9.426C34.79 10.546 34.062 11.204 32.83 11.204H30.52V7.62H32.83C34.062 7.62 34.79 8.292 34.79 9.426ZM33.502 16.02H30.52V12.142H33.502C34.818 12.142 35.602 12.856 35.602 14.074C35.602 15.292 34.818 16.02 33.502 16.02ZM43.7769 10.07V12.338H43.7489C43.7489 10.826 42.7829 9.93 41.1869 9.93C39.3389 9.93 38.2469 11.274 38.2469 13.528C38.2469 15.796 39.3389 17.14 41.1869 17.14C42.7829 17.14 43.7489 16.23 43.7489 14.718H43.7769V17H44.9249V10.07H43.7769ZM41.6349 16.188C40.2349 16.188 39.4229 15.208 39.4229 13.528C39.4229 11.862 40.2349 10.868 41.6349 10.868C43.0489 10.868 43.8609 11.89 43.8609 13.528C43.8609 15.166 43.0489 16.188 41.6349 16.188ZM50.1285 17.14C51.8925 17.14 53.0405 16.188 53.3485 14.55H52.2005C51.9345 15.586 51.2065 16.188 50.1285 16.188C48.7565 16.188 47.9445 15.208 47.9445 13.528C47.9445 11.862 48.7565 10.868 50.1285 10.868C51.1505 10.868 51.8505 11.414 52.1585 12.366H53.3065C52.9705 10.812 51.8225 9.93 50.1285 9.93C48.0285 9.93 46.7685 11.274 46.7685 13.528C46.7685 15.796 48.0285 17.14 50.1285 17.14ZM57.5741 13.374L61.3261 10.07H59.8561L56.2301 13.332H56.2021V6.22H55.0541V17H56.2021V13.458H56.2301L60.0801 17H61.6061L57.5741 13.374ZM69.8095 10.924V10.07H66.4355V10.042C67.1075 9.678 67.5275 9.02 67.5275 8.25V7.662H66.3795V10.07H65.1755V10.924H66.2955V15.04C66.2955 16.37 67.0515 17.14 68.3395 17.14C68.8295 17.14 69.3335 17.028 69.6975 16.86V15.964C69.4175 16.104 69.0535 16.188 68.7035 16.188C67.9055 16.188 67.4435 15.74 67.4435 14.97V10.924H69.8095ZM74.1955 17.14C76.3235 17.14 77.5835 15.796 77.5835 13.528C77.5835 11.274 76.3235 9.93 74.1955 9.93C72.0675 9.93 70.7935 11.274 70.7935 13.528C70.7935 15.796 72.0675 17.14 74.1955 17.14ZM74.1955 16.188C72.7955 16.188 71.9695 15.208 71.9695 13.528C71.9695 11.862 72.7955 10.868 74.1955 10.868C75.5955 10.868 76.4215 11.862 76.4215 13.528C76.4215 15.208 75.5955 16.188 74.1955 16.188ZM94.1594 6.64L91.8774 16.888H91.8494L89.7214 6.64H87.6354L85.5354 16.888H85.5074L83.2394 6.64H81.9374L84.3174 17H86.5714L88.6434 6.752H88.6714L90.7574 17H92.9974L95.3914 6.64H94.1594ZM102.635 13.542C102.635 11.26 101.445 9.93 99.4287 9.93C97.4127 9.93 96.2087 11.26 96.2087 13.542C96.2087 15.81 97.4127 17.14 99.4287 17.14C101.221 17.14 102.411 16.188 102.635 14.564H101.501C101.319 15.6 100.549 16.23 99.4287 16.23C98.1687 16.23 97.3987 15.306 97.3427 13.71H102.635V13.542ZM99.4287 10.84C100.619 10.84 101.375 11.68 101.487 13.136H97.3567C97.4687 11.68 98.2387 10.84 99.4287 10.84ZM108.205 9.93C106.609 9.93 105.657 10.826 105.657 12.338H105.629V6.22H104.481V17H105.629V14.718H105.657C105.657 16.23 106.609 17.14 108.205 17.14C110.053 17.14 111.159 15.796 111.159 13.528C111.159 11.274 110.053 9.93 108.205 9.93ZM107.757 16.188C106.357 16.188 105.531 15.166 105.531 13.528C105.531 11.89 106.357 10.868 107.757 10.868C109.157 10.868 109.983 11.862 109.983 13.528C109.983 15.208 109.157 16.188 107.757 16.188ZM115.452 17.14C117.3 17.14 118.392 16.356 118.392 15.04C118.392 13.444 116.95 13.178 115.704 12.954C114.724 12.786 113.842 12.618 113.842 11.834C113.842 11.134 114.444 10.728 115.452 10.728C116.488 10.728 117.076 11.274 117.076 12.226H118.182C118.182 10.77 117.16 9.93 115.452 9.93C113.744 9.93 112.722 10.686 112.722 11.904C112.722 13.36 114.052 13.598 115.256 13.808C116.292 14.004 117.272 14.172 117.272 15.138C117.272 15.88 116.6 16.328 115.452 16.328C114.29 16.328 113.618 15.754 113.618 14.76H112.512C112.512 16.258 113.604 17.14 115.452 17.14ZM120.198 8.53H121.346V7.06H120.198V8.53ZM120.198 17H121.346V10.07H120.198V17ZM127.485 10.924V10.07H124.111V10.042C124.783 9.678 125.203 9.02 125.203 8.25V7.662H124.055V10.07H122.851V10.924H123.971V15.04C123.971 16.37 124.727 17.14 126.015 17.14C126.505 17.14 127.009 17.028 127.373 16.86V15.964C127.093 16.104 126.729 16.188 126.379 16.188C125.581 16.188 125.119 15.74 125.119 14.97V10.924H127.485ZM134.894 13.542C134.894 11.26 133.704 9.93 131.688 9.93C129.672 9.93 128.468 11.26 128.468 13.542C128.468 15.81 129.672 17.14 131.688 17.14C133.48 17.14 134.67 16.188 134.894 14.564H133.76C133.578 15.6 132.808 16.23 131.688 16.23C130.428 16.23 129.658 15.306 129.602 13.71H134.894V13.542ZM131.688 10.84C132.878 10.84 133.634 11.68 133.746 13.136H129.616C129.728 11.68 130.498 10.84 131.688 10.84Z" fill="#838383"/>
<path d="M19 12H5" stroke="#838383" stroke-linecap="round" stroke-linejoin="round"/>
<path d="M12 19L5 12L12 5" stroke="#838383" stroke-linecap="round" stroke-linejoin="round"/>
</svg>
