<svg width="462" height="400" viewBox="0 0 462 400" fill="none" xmlns="http://www.w3.org/2000/svg">
<rect x="0.5" y="0.5" width="461" height="399" fill="#121212"/>
<path d="M168.95 83V80.0588C165.068 80.0588 161.892 76.8824 161.892 73C161.892 69.1176 165.068 65.9412 168.95 65.9412V63C163.421 63 158.95 67.4706 158.95 73C158.95 78.5294 163.421 83 168.95 83Z" fill="#90FF03"/>
<path d="M176.375 80L173.531 67.436H176.231L177.419 73.466L178.085 76.958H178.139L178.931 73.466L180.317 67.436H183.305L184.709 73.466L185.483 76.958H185.537L186.203 73.466L187.409 67.436H190.001L187.085 80H183.971L182.387 73.196L181.775 70.442H181.721L181.091 73.196L179.507 80H176.375ZM199.627 74.852H194.839V80H192.103V67.436H194.839V72.44H199.627V67.436H202.363V80H199.627V74.852ZM213.069 80L212.169 77.012H207.975L207.075 80H204.303L208.443 67.436H211.827L215.913 80H213.069ZM210.099 69.92H210.009L208.623 74.69H211.503L210.099 69.92ZM221.911 69.866V80H219.175V69.866H215.773V67.436H225.313V69.866H221.911ZM228.911 66.5C229.451 66.5 229.841 66.626 230.081 66.878C230.333 67.118 230.459 67.424 230.459 67.796V68.174C230.459 68.522 230.405 68.876 230.297 69.236C230.201 69.584 230.063 69.92 229.883 70.244C229.715 70.568 229.511 70.874 229.271 71.162C229.031 71.438 228.773 71.684 228.497 71.9H226.823C227.219 71.54 227.555 71.174 227.831 70.802C228.119 70.43 228.335 70.016 228.479 69.56C228.095 69.488 227.813 69.332 227.633 69.092C227.453 68.84 227.363 68.558 227.363 68.246V67.796C227.363 67.424 227.483 67.118 227.723 66.878C227.975 66.626 228.371 66.5 228.911 66.5ZM236.592 80.216C235.488 80.216 234.552 80.03 233.784 79.658C233.016 79.274 232.362 78.782 231.822 78.182L233.622 76.364C234.474 77.324 235.524 77.804 236.772 77.804C237.444 77.804 237.942 77.666 238.266 77.39C238.59 77.114 238.752 76.748 238.752 76.292C238.752 75.944 238.656 75.656 238.464 75.428C238.272 75.188 237.882 75.026 237.294 74.942L236.052 74.78C234.72 74.612 233.742 74.21 233.118 73.574C232.506 72.938 232.2 72.092 232.2 71.036C232.2 70.472 232.308 69.956 232.524 69.488C232.74 69.02 233.046 68.618 233.442 68.282C233.85 67.946 234.342 67.688 234.918 67.508C235.506 67.316 236.172 67.22 236.916 67.22C237.864 67.22 238.698 67.37 239.418 67.67C240.138 67.97 240.756 68.408 241.272 68.984L239.454 70.82C239.154 70.472 238.788 70.19 238.356 69.974C237.936 69.746 237.402 69.632 236.754 69.632C236.142 69.632 235.686 69.74 235.386 69.956C235.086 70.172 234.936 70.472 234.936 70.856C234.936 71.288 235.05 71.6 235.278 71.792C235.518 71.984 235.902 72.122 236.43 72.206L237.672 72.404C238.968 72.608 239.928 73.01 240.552 73.61C241.176 74.198 241.488 75.038 241.488 76.13C241.488 76.73 241.38 77.282 241.164 77.786C240.948 78.29 240.63 78.722 240.21 79.082C239.802 79.442 239.292 79.724 238.68 79.928C238.068 80.12 237.372 80.216 236.592 80.216ZM252.245 74.06L251.039 71.54H250.985V80H248.411V67.436H251.399L254.837 73.376L256.043 75.896H256.097V67.436H258.671V80H255.683L252.245 74.06ZM261.636 80V67.436H270.186V69.866H264.372V72.44H269.358V74.852H264.372V77.57H270.186V80H261.636ZM274.75 80L271.906 67.436H274.606L275.794 73.466L276.46 76.958H276.514L277.306 73.466L278.692 67.436H281.68L283.084 73.466L283.858 76.958H283.912L284.578 73.466L285.784 67.436H288.376L285.46 80H282.346L280.762 73.196L280.15 70.442H280.096L279.466 73.196L277.882 80H274.75Z" fill="white"/>
<path d="M292.95 83V80.0588C296.871 80.0588 300.079 76.8824 300.079 73C300.079 69.1176 296.871 65.9412 292.95 65.9412V63C298.535 63 303.05 67.4706 303.05 73C303.05 78.5294 298.535 83 292.95 83Z" fill="#90FF03"/>
<path d="M118.695 160V157.822H120.315V149.614H118.695V147.436H124.671V149.614H123.051V157.822H124.671V160H118.695ZM130.985 154.06L129.779 151.54H129.725V160H127.151V147.436H130.139L133.577 153.376L134.783 155.896H134.837V147.436H137.411V160H134.423L130.985 154.06ZM140.376 160V147.436H148.71V149.866H143.112V152.44H147.882V154.852H143.112V160H140.376ZM151.106 160V147.436H153.842V157.57H158.63V160H151.106ZM162.845 147.436V155.14C162.845 156.028 163.019 156.694 163.367 157.138C163.715 157.57 164.297 157.786 165.113 157.786C165.929 157.786 166.511 157.57 166.859 157.138C167.207 156.694 167.381 156.028 167.381 155.14V147.436H170.045V154.852C170.045 155.776 169.955 156.58 169.775 157.264C169.607 157.936 169.325 158.494 168.929 158.938C168.533 159.37 168.023 159.694 167.399 159.91C166.775 160.114 166.013 160.216 165.113 160.216C164.213 160.216 163.451 160.114 162.827 159.91C162.203 159.694 161.693 159.37 161.297 158.938C160.901 158.494 160.613 157.936 160.433 157.264C160.265 156.58 160.181 155.776 160.181 154.852V147.436H162.845ZM172.951 160V147.436H181.501V149.866H175.687V152.44H180.673V154.852H175.687V157.57H181.501V160H172.951ZM187.918 154.06L186.712 151.54H186.658V160H184.084V147.436H187.072L190.51 153.376L191.716 155.896H191.77V147.436H194.344V160H191.356L187.918 154.06ZM202.386 160.216C201.534 160.216 200.766 160.084 200.082 159.82C199.398 159.544 198.816 159.142 198.336 158.614C197.856 158.074 197.484 157.408 197.22 156.616C196.956 155.812 196.824 154.876 196.824 153.808C196.824 152.752 196.956 151.816 197.22 151C197.484 150.172 197.856 149.482 198.336 148.93C198.816 148.366 199.398 147.94 200.082 147.652C200.766 147.364 201.534 147.22 202.386 147.22C203.55 147.22 204.51 147.46 205.266 147.94C206.022 148.408 206.628 149.152 207.084 150.172L204.726 151.396C204.558 150.868 204.294 150.448 203.934 150.136C203.586 149.812 203.07 149.65 202.386 149.65C201.582 149.65 200.934 149.914 200.442 150.442C199.962 150.958 199.722 151.714 199.722 152.71V154.726C199.722 155.722 199.962 156.484 200.442 157.012C200.934 157.528 201.582 157.786 202.386 157.786C203.058 157.786 203.592 157.606 203.988 157.246C204.396 156.874 204.696 156.43 204.888 155.914L207.12 157.21C206.652 158.17 206.034 158.914 205.266 159.442C204.51 159.958 203.55 160.216 202.386 160.216ZM209.234 160V147.436H217.784V149.866H211.97V152.44H216.956V154.852H211.97V157.57H217.784V160H209.234ZM223.104 160H220.368V147.436H226.326C226.902 147.436 227.424 147.532 227.892 147.724C228.36 147.916 228.756 148.192 229.08 148.552C229.416 148.9 229.674 149.32 229.854 149.812C230.034 150.304 230.124 150.85 230.124 151.45C230.124 152.302 229.932 153.046 229.548 153.682C229.176 154.318 228.606 154.78 227.838 155.068L230.304 160H227.262L225.066 155.392H223.104V160ZM225.984 153.088C226.392 153.088 226.71 152.986 226.938 152.782C227.178 152.566 227.298 152.254 227.298 151.846V151.054C227.298 150.646 227.178 150.34 226.938 150.136C226.71 149.92 226.392 149.812 225.984 149.812H223.104V153.088H225.984ZM246.547 151.756H246.493L245.575 153.592L243.127 158.038L240.733 153.61L239.779 151.63H239.725V160H237.151V147.436H240.049L243.127 153.322H243.163L246.205 147.436H249.121V160H246.547V151.756ZM259.839 160L258.939 157.012H254.745L253.845 160H251.073L255.213 147.436H258.597L262.683 160H259.839ZM256.869 149.92H256.779L255.393 154.69H258.273L256.869 149.92ZM267.357 160H264.621V147.436H270.579C271.155 147.436 271.677 147.532 272.145 147.724C272.613 147.916 273.009 148.192 273.333 148.552C273.669 148.9 273.927 149.32 274.107 149.812C274.287 150.304 274.377 150.85 274.377 151.45C274.377 152.302 274.185 153.046 273.801 153.682C273.429 154.318 272.859 154.78 272.091 155.068L274.557 160H271.515L269.319 155.392H267.357V160ZM270.237 153.088C270.645 153.088 270.963 152.986 271.191 152.782C271.431 152.566 271.551 152.254 271.551 151.846V151.054C271.551 150.646 271.431 150.34 271.191 150.136C270.963 149.92 270.645 149.812 270.237 149.812H267.357V153.088H270.237ZM281.324 154.528L279.686 156.508V160H276.95V147.436H279.686V153.412H279.794L281.576 150.982L284.402 147.436H287.498L283.268 152.602L287.876 160H284.654L281.324 154.528ZM289.683 160V147.436H298.233V149.866H292.419V152.44H297.405V154.852H292.419V157.57H298.233V160H289.683ZM306.055 149.866V160H303.319V149.866H299.917V147.436H309.457V149.866H306.055ZM310.972 160V157.822H312.592V149.614H310.972V147.436H316.948V149.614H315.328V157.822H316.948V160H310.972ZM323.262 154.06L322.056 151.54H322.002V160H319.428V147.436H322.416L325.854 153.376L327.06 155.896H327.114V147.436H329.688V160H326.7L323.262 154.06ZM340.627 158.002H340.537C340.441 158.638 340.117 159.166 339.565 159.586C339.013 160.006 338.263 160.216 337.315 160.216C336.595 160.216 335.923 160.078 335.299 159.802C334.675 159.526 334.129 159.118 333.661 158.578C333.193 158.038 332.827 157.366 332.563 156.562C332.299 155.758 332.167 154.828 332.167 153.772C332.167 152.716 332.305 151.78 332.581 150.964C332.857 150.148 333.241 149.464 333.733 148.912C334.237 148.36 334.837 147.94 335.533 147.652C336.229 147.364 337.003 147.22 337.855 147.22C338.983 147.22 339.955 147.466 340.771 147.958C341.587 148.438 342.229 149.164 342.697 150.136L340.465 151.414C340.273 150.922 339.973 150.508 339.565 150.172C339.157 149.824 338.587 149.65 337.855 149.65C337.003 149.65 336.325 149.896 335.821 150.388C335.317 150.88 335.065 151.654 335.065 152.71V154.726C335.065 155.77 335.317 156.544 335.821 157.048C336.325 157.54 337.003 157.786 337.855 157.786C338.191 157.786 338.509 157.75 338.809 157.678C339.109 157.594 339.373 157.474 339.601 157.318C339.829 157.15 340.003 156.952 340.123 156.724C340.255 156.496 340.321 156.226 340.321 155.914V155.284H337.981V152.998H342.931V160H340.627V158.002Z" fill="#F0F0F0"/>
<path d="M121.578 240V237.822H123.198V229.614H121.578V227.436H127.554V229.614H125.934V237.822H127.554V240H121.578ZM133.868 234.06L132.662 231.54H132.608V240H130.034V227.436H133.022L136.46 233.376L137.666 235.896H137.72V227.436H140.294V240H137.306L133.868 234.06ZM143.259 240V227.436H151.593V229.866H145.995V232.44H150.765V234.852H145.995V240H143.259ZM153.988 240V227.436H156.724V237.57H161.512V240H153.988ZM165.728 227.436V235.14C165.728 236.028 165.902 236.694 166.25 237.138C166.598 237.57 167.18 237.786 167.996 237.786C168.812 237.786 169.394 237.57 169.742 237.138C170.09 236.694 170.264 236.028 170.264 235.14V227.436H172.928V234.852C172.928 235.776 172.838 236.58 172.658 237.264C172.49 237.936 172.208 238.494 171.812 238.938C171.416 239.37 170.906 239.694 170.282 239.91C169.658 240.114 168.896 240.216 167.996 240.216C167.096 240.216 166.334 240.114 165.71 239.91C165.086 239.694 164.576 239.37 164.18 238.938C163.784 238.494 163.496 237.936 163.316 237.264C163.148 236.58 163.064 235.776 163.064 234.852V227.436H165.728ZM175.834 240V227.436H184.384V229.866H178.57V232.44H183.556V234.852H178.57V237.57H184.384V240H175.834ZM190.801 234.06L189.595 231.54H189.541V240H186.967V227.436H189.955L193.393 233.376L194.599 235.896H194.653V227.436H197.227V240H194.239L190.801 234.06ZM205.269 240.216C204.417 240.216 203.649 240.084 202.965 239.82C202.281 239.544 201.699 239.142 201.219 238.614C200.739 238.074 200.367 237.408 200.103 236.616C199.839 235.812 199.707 234.876 199.707 233.808C199.707 232.752 199.839 231.816 200.103 231C200.367 230.172 200.739 229.482 201.219 228.93C201.699 228.366 202.281 227.94 202.965 227.652C203.649 227.364 204.417 227.22 205.269 227.22C206.433 227.22 207.393 227.46 208.149 227.94C208.905 228.408 209.511 229.152 209.967 230.172L207.609 231.396C207.441 230.868 207.177 230.448 206.817 230.136C206.469 229.812 205.953 229.65 205.269 229.65C204.465 229.65 203.817 229.914 203.325 230.442C202.845 230.958 202.605 231.714 202.605 232.71V234.726C202.605 235.722 202.845 236.484 203.325 237.012C203.817 237.528 204.465 237.786 205.269 237.786C205.941 237.786 206.475 237.606 206.871 237.246C207.279 236.874 207.579 236.43 207.771 235.914L210.003 237.21C209.535 238.17 208.917 238.914 208.149 239.442C207.393 239.958 206.433 240.216 205.269 240.216ZM212.117 240V227.436H220.667V229.866H214.853V232.44H219.839V234.852H214.853V237.57H220.667V240H212.117ZM225.987 240H223.251V227.436H229.209C229.785 227.436 230.307 227.532 230.775 227.724C231.243 227.916 231.639 228.192 231.963 228.552C232.299 228.9 232.557 229.32 232.737 229.812C232.917 230.304 233.007 230.85 233.007 231.45C233.007 232.302 232.815 233.046 232.431 233.682C232.059 234.318 231.489 234.78 230.721 235.068L233.187 240H230.145L227.949 235.392H225.987V240ZM228.867 233.088C229.275 233.088 229.593 232.986 229.821 232.782C230.061 232.566 230.181 232.254 230.181 231.846V231.054C230.181 230.646 230.061 230.34 229.821 230.136C229.593 229.92 229.275 229.812 228.867 229.812H225.987V233.088H228.867ZM240.034 227.436H244.768C245.596 227.436 246.352 227.568 247.036 227.832C247.72 228.096 248.302 228.492 248.782 229.02C249.262 229.536 249.634 230.19 249.898 230.982C250.162 231.762 250.294 232.674 250.294 233.718C250.294 234.762 250.162 235.68 249.898 236.472C249.634 237.252 249.262 237.906 248.782 238.434C248.302 238.95 247.72 239.34 247.036 239.604C246.352 239.868 245.596 240 244.768 240H240.034V227.436ZM244.768 237.57C245.584 237.57 246.226 237.342 246.694 236.886C247.162 236.43 247.396 235.698 247.396 234.69V232.746C247.396 231.738 247.162 231.006 246.694 230.55C246.226 230.094 245.584 229.866 244.768 229.866H242.77V237.57H244.768ZM252.298 240V237.822H253.918V229.614H252.298V227.436H258.274V229.614H256.654V237.822H258.274V240H252.298ZM264.822 240.216C263.718 240.216 262.782 240.03 262.014 239.658C261.246 239.274 260.592 238.782 260.052 238.182L261.852 236.364C262.704 237.324 263.754 237.804 265.002 237.804C265.674 237.804 266.172 237.666 266.496 237.39C266.82 237.114 266.982 236.748 266.982 236.292C266.982 235.944 266.886 235.656 266.694 235.428C266.502 235.188 266.112 235.026 265.524 234.942L264.282 234.78C262.95 234.612 261.972 234.21 261.348 233.574C260.736 232.938 260.43 232.092 260.43 231.036C260.43 230.472 260.538 229.956 260.754 229.488C260.97 229.02 261.276 228.618 261.672 228.282C262.08 227.946 262.572 227.688 263.148 227.508C263.736 227.316 264.402 227.22 265.146 227.22C266.094 227.22 266.928 227.37 267.648 227.67C268.368 227.97 268.986 228.408 269.502 228.984L267.684 230.82C267.384 230.472 267.018 230.19 266.586 229.974C266.166 229.746 265.632 229.632 264.984 229.632C264.372 229.632 263.916 229.74 263.616 229.956C263.316 230.172 263.166 230.472 263.166 230.856C263.166 231.288 263.28 231.6 263.508 231.792C263.748 231.984 264.132 232.122 264.66 232.206L265.902 232.404C267.198 232.608 268.158 233.01 268.782 233.61C269.406 234.198 269.718 235.038 269.718 236.13C269.718 236.73 269.61 237.282 269.394 237.786C269.178 238.29 268.86 238.722 268.44 239.082C268.032 239.442 267.522 239.724 266.91 239.928C266.298 240.12 265.602 240.216 264.822 240.216ZM277.262 240.216C276.41 240.216 275.642 240.084 274.958 239.82C274.274 239.544 273.692 239.142 273.212 238.614C272.732 238.074 272.36 237.408 272.096 236.616C271.832 235.812 271.7 234.876 271.7 233.808C271.7 232.752 271.832 231.816 272.096 231C272.36 230.172 272.732 229.482 273.212 228.93C273.692 228.366 274.274 227.94 274.958 227.652C275.642 227.364 276.41 227.22 277.262 227.22C278.426 227.22 279.386 227.46 280.142 227.94C280.898 228.408 281.504 229.152 281.96 230.172L279.602 231.396C279.434 230.868 279.17 230.448 278.81 230.136C278.462 229.812 277.946 229.65 277.262 229.65C276.458 229.65 275.81 229.914 275.318 230.442C274.838 230.958 274.598 231.714 274.598 232.71V234.726C274.598 235.722 274.838 236.484 275.318 237.012C275.81 237.528 276.458 237.786 277.262 237.786C277.934 237.786 278.468 237.606 278.864 237.246C279.272 236.874 279.572 236.43 279.764 235.914L281.996 237.21C281.528 238.17 280.91 238.914 280.142 239.442C279.386 239.958 278.426 240.216 277.262 240.216ZM288.922 240.216C288.094 240.216 287.338 240.078 286.654 239.802C285.97 239.526 285.388 239.118 284.908 238.578C284.428 238.026 284.056 237.348 283.792 236.544C283.528 235.728 283.396 234.786 283.396 233.718C283.396 232.65 283.528 231.714 283.792 230.91C284.056 230.094 284.428 229.416 284.908 228.876C285.388 228.324 285.97 227.91 286.654 227.634C287.338 227.358 288.094 227.22 288.922 227.22C289.75 227.22 290.506 227.358 291.19 227.634C291.874 227.91 292.456 228.324 292.936 228.876C293.416 229.416 293.788 230.094 294.052 230.91C294.316 231.714 294.448 232.65 294.448 233.718C294.448 234.786 294.316 235.728 294.052 236.544C293.788 237.348 293.416 238.026 292.936 238.578C292.456 239.118 291.874 239.526 291.19 239.802C290.506 240.078 289.75 240.216 288.922 240.216ZM288.922 237.786C289.75 237.786 290.392 237.516 290.848 236.976C291.316 236.436 291.55 235.662 291.55 234.654V232.782C291.55 231.774 291.316 231 290.848 230.46C290.392 229.92 289.75 229.65 288.922 229.65C288.094 229.65 287.446 229.92 286.978 230.46C286.522 231 286.294 231.774 286.294 232.782V234.654C286.294 235.662 286.522 236.436 286.978 236.976C287.446 237.516 288.094 237.786 288.922 237.786ZM299.286 240L295.236 227.436H298.008L299.88 233.466L300.87 237.408H300.924L301.878 233.466L303.75 227.436H306.432L302.346 240H299.286ZM308.277 240V227.436H316.827V229.866H311.013V232.44H315.999V234.852H311.013V237.57H316.827V240H308.277ZM322.146 240H319.41V227.436H325.368C325.944 227.436 326.466 227.532 326.934 227.724C327.402 227.916 327.798 228.192 328.122 228.552C328.458 228.9 328.716 229.32 328.896 229.812C329.076 230.304 329.166 230.85 329.166 231.45C329.166 232.302 328.974 233.046 328.59 233.682C328.218 234.318 327.648 234.78 326.88 235.068L329.346 240H326.304L324.108 235.392H322.146V240ZM325.026 233.088C325.434 233.088 325.752 232.986 325.98 232.782C326.22 232.566 326.34 232.254 326.34 231.846V231.054C326.34 230.646 326.22 230.34 325.98 230.136C325.752 229.92 325.434 229.812 325.026 229.812H322.146V233.088H325.026ZM334.096 240V235.086L329.794 227.436H332.854L335.554 232.44H335.59L338.182 227.436H341.152L336.85 235.068V240H334.096Z" fill="#F0F0F0"/>
<path d="M129.364 320V315.086L125.062 307.436H128.122L130.822 312.44H130.858L133.45 307.436H136.42L132.118 315.068V320H129.364ZM142.319 320.216C141.491 320.216 140.735 320.078 140.051 319.802C139.367 319.526 138.785 319.118 138.305 318.578C137.825 318.026 137.453 317.348 137.189 316.544C136.925 315.728 136.793 314.786 136.793 313.718C136.793 312.65 136.925 311.714 137.189 310.91C137.453 310.094 137.825 309.416 138.305 308.876C138.785 308.324 139.367 307.91 140.051 307.634C140.735 307.358 141.491 307.22 142.319 307.22C143.147 307.22 143.903 307.358 144.587 307.634C145.271 307.91 145.853 308.324 146.333 308.876C146.813 309.416 147.185 310.094 147.449 310.91C147.713 311.714 147.845 312.65 147.845 313.718C147.845 314.786 147.713 315.728 147.449 316.544C147.185 317.348 146.813 318.026 146.333 318.578C145.853 319.118 145.271 319.526 144.587 319.802C143.903 320.078 143.147 320.216 142.319 320.216ZM142.319 317.786C143.147 317.786 143.789 317.516 144.245 316.976C144.713 316.436 144.947 315.662 144.947 314.654V312.782C144.947 311.774 144.713 311 144.245 310.46C143.789 309.92 143.147 309.65 142.319 309.65C141.491 309.65 140.843 309.92 140.375 310.46C139.919 311 139.691 311.774 139.691 312.782V314.654C139.691 315.662 139.919 316.436 140.375 316.976C140.843 317.516 141.491 317.786 142.319 317.786ZM152.921 307.436V315.14C152.921 316.028 153.095 316.694 153.443 317.138C153.791 317.57 154.373 317.786 155.189 317.786C156.005 317.786 156.587 317.57 156.935 317.138C157.283 316.694 157.457 316.028 157.457 315.14V307.436H160.121V314.852C160.121 315.776 160.031 316.58 159.851 317.264C159.683 317.936 159.401 318.494 159.005 318.938C158.609 319.37 158.099 319.694 157.475 319.91C156.851 320.114 156.089 320.216 155.189 320.216C154.289 320.216 153.527 320.114 152.903 319.91C152.279 319.694 151.769 319.37 151.373 318.938C150.977 318.494 150.689 317.936 150.509 317.264C150.341 316.58 150.257 315.776 150.257 314.852V307.436H152.921ZM168.265 309.866V320H165.529V309.866H162.127V307.436H171.667V309.866H168.265ZM176.331 307.436V315.14C176.331 316.028 176.505 316.694 176.853 317.138C177.201 317.57 177.783 317.786 178.599 317.786C179.415 317.786 179.997 317.57 180.345 317.138C180.693 316.694 180.867 316.028 180.867 315.14V307.436H183.531V314.852C183.531 315.776 183.441 316.58 183.261 317.264C183.093 317.936 182.811 318.494 182.415 318.938C182.019 319.37 181.509 319.694 180.885 319.91C180.261 320.114 179.499 320.216 178.599 320.216C177.699 320.216 176.937 320.114 176.313 319.91C175.689 319.694 175.179 319.37 174.783 318.938C174.387 318.494 174.099 317.936 173.919 317.264C173.751 316.58 173.667 315.776 173.667 314.852V307.436H176.331ZM186.437 307.436H192.539C193.583 307.436 194.393 307.73 194.969 308.318C195.557 308.906 195.851 309.686 195.851 310.658C195.851 311.138 195.785 311.546 195.653 311.882C195.533 312.218 195.365 312.494 195.149 312.71C194.945 312.926 194.699 313.088 194.411 313.196C194.135 313.292 193.835 313.346 193.511 313.358V313.466C193.811 313.466 194.123 313.52 194.447 313.628C194.783 313.736 195.089 313.91 195.365 314.15C195.641 314.378 195.869 314.678 196.049 315.05C196.241 315.422 196.337 315.878 196.337 316.418C196.337 316.91 196.253 317.378 196.085 317.822C195.929 318.254 195.707 318.632 195.419 318.956C195.131 319.28 194.789 319.538 194.393 319.73C193.997 319.91 193.565 320 193.097 320H186.437V307.436ZM189.173 317.696H192.323C192.683 317.696 192.965 317.6 193.169 317.408C193.385 317.204 193.493 316.922 193.493 316.562V315.95C193.493 315.59 193.385 315.314 193.169 315.122C192.965 314.918 192.683 314.816 192.323 314.816H189.173V317.696ZM189.173 312.584H191.891C192.251 312.584 192.533 312.482 192.737 312.278C192.941 312.074 193.043 311.792 193.043 311.432V310.892C193.043 310.532 192.941 310.25 192.737 310.046C192.533 309.842 192.251 309.74 191.891 309.74H189.173V312.584ZM198.642 320V307.436H207.192V309.866H201.378V312.44H206.364V314.852H201.378V317.57H207.192V320H198.642ZM213.744 320V317.822H215.364V309.614H213.744V307.436H219.72V309.614H218.1V317.822H219.72V320H213.744ZM226.033 314.06L224.827 311.54H224.773V320H222.199V307.436H225.187L228.625 313.376L229.831 315.896H229.885V307.436H232.459V320H229.471L226.033 314.06ZM235.425 320V307.436H243.759V309.866H238.161V312.44H242.931V314.852H238.161V320H235.425ZM246.154 320V307.436H248.89V317.57H253.678V320H246.154ZM257.893 307.436V315.14C257.893 316.028 258.067 316.694 258.415 317.138C258.763 317.57 259.345 317.786 260.161 317.786C260.977 317.786 261.559 317.57 261.907 317.138C262.255 316.694 262.429 316.028 262.429 315.14V307.436H265.093V314.852C265.093 315.776 265.003 316.58 264.823 317.264C264.655 317.936 264.373 318.494 263.977 318.938C263.581 319.37 263.071 319.694 262.447 319.91C261.823 320.114 261.061 320.216 260.161 320.216C259.261 320.216 258.499 320.114 257.875 319.91C257.251 319.694 256.741 319.37 256.345 318.938C255.949 318.494 255.661 317.936 255.481 317.264C255.313 316.58 255.229 315.776 255.229 314.852V307.436H257.893ZM267.999 320V307.436H276.549V309.866H270.735V312.44H275.721V314.852H270.735V317.57H276.549V320H267.999ZM282.967 314.06L281.761 311.54H281.707V320H279.133V307.436H282.121L285.559 313.376L286.765 315.896H286.819V307.436H289.393V320H286.405L282.967 314.06ZM296.426 320.216C295.322 320.216 294.386 320.03 293.618 319.658C292.85 319.274 292.196 318.782 291.656 318.182L293.456 316.364C294.308 317.324 295.358 317.804 296.606 317.804C297.278 317.804 297.776 317.666 298.1 317.39C298.424 317.114 298.586 316.748 298.586 316.292C298.586 315.944 298.49 315.656 298.298 315.428C298.106 315.188 297.716 315.026 297.128 314.942L295.886 314.78C294.554 314.612 293.576 314.21 292.952 313.574C292.34 312.938 292.034 312.092 292.034 311.036C292.034 310.472 292.142 309.956 292.358 309.488C292.574 309.02 292.88 308.618 293.276 308.282C293.684 307.946 294.176 307.688 294.752 307.508C295.34 307.316 296.006 307.22 296.75 307.22C297.698 307.22 298.532 307.37 299.252 307.67C299.972 307.97 300.59 308.408 301.106 308.984L299.288 310.82C298.988 310.472 298.622 310.19 298.19 309.974C297.77 309.746 297.236 309.632 296.588 309.632C295.976 309.632 295.52 309.74 295.22 309.956C294.92 310.172 294.77 310.472 294.77 310.856C294.77 311.288 294.884 311.6 295.112 311.792C295.352 311.984 295.736 312.122 296.264 312.206L297.506 312.404C298.802 312.608 299.762 313.01 300.386 313.61C301.01 314.198 301.322 315.038 301.322 316.13C301.322 316.73 301.214 317.282 300.998 317.786C300.782 318.29 300.464 318.722 300.044 319.082C299.636 319.442 299.126 319.724 298.514 319.928C297.902 320.12 297.206 320.216 296.426 320.216ZM303.791 320V307.436H312.341V309.866H306.527V312.44H311.513V314.852H306.527V317.57H312.341V320H303.791ZM317.66 320H314.924V307.436H320.882C321.458 307.436 321.98 307.532 322.448 307.724C322.916 307.916 323.312 308.192 323.636 308.552C323.972 308.9 324.23 309.32 324.41 309.812C324.59 310.304 324.68 310.85 324.68 311.45C324.68 312.302 324.488 313.046 324.104 313.682C323.732 314.318 323.162 314.78 322.394 315.068L324.86 320H321.818L319.622 315.392H317.66V320ZM320.54 313.088C320.948 313.088 321.266 312.986 321.494 312.782C321.734 312.566 321.854 312.254 321.854 311.846V311.054C321.854 310.646 321.734 310.34 321.494 310.136C321.266 309.92 320.948 309.812 320.54 309.812H317.66V313.088H320.54ZM331.321 320.216C330.217 320.216 329.281 320.03 328.513 319.658C327.745 319.274 327.091 318.782 326.551 318.182L328.351 316.364C329.203 317.324 330.253 317.804 331.501 317.804C332.173 317.804 332.671 317.666 332.995 317.39C333.319 317.114 333.481 316.748 333.481 316.292C333.481 315.944 333.385 315.656 333.193 315.428C333.001 315.188 332.611 315.026 332.023 314.942L330.781 314.78C329.449 314.612 328.471 314.21 327.847 313.574C327.235 312.938 326.929 312.092 326.929 311.036C326.929 310.472 327.037 309.956 327.253 309.488C327.469 309.02 327.775 308.618 328.171 308.282C328.579 307.946 329.071 307.688 329.647 307.508C330.235 307.316 330.901 307.22 331.645 307.22C332.593 307.22 333.427 307.37 334.147 307.67C334.867 307.97 335.485 308.408 336.001 308.984L334.183 310.82C333.883 310.472 333.517 310.19 333.085 309.974C332.665 309.746 332.131 309.632 331.483 309.632C330.871 309.632 330.415 309.74 330.115 309.956C329.815 310.172 329.665 310.472 329.665 310.856C329.665 311.288 329.779 311.6 330.007 311.792C330.247 311.984 330.631 312.122 331.159 312.206L332.401 312.404C333.697 312.608 334.657 313.01 335.281 313.61C335.905 314.198 336.217 315.038 336.217 316.13C336.217 316.73 336.109 317.282 335.893 317.786C335.677 318.29 335.359 318.722 334.939 319.082C334.531 319.442 334.021 319.724 333.409 319.928C332.797 320.12 332.101 320.216 331.321 320.216Z" fill="#F0F0F0"/>
<rect x="0.5" y="0.5" width="461" height="399" stroke="#3E3E3E"/>
</svg>
