<svg width="121" height="39" viewBox="0 0 121 39" fill="none" xmlns="http://www.w3.org/2000/svg">
<path d="M63.5979 10.1911C63.5979 11.5445 62.5076 12.6347 61.154 12.6347C59.8005 12.6347 58.7101 11.5445 58.7101 10.1911C58.7101 8.83768 59.7629 7.74744 61.154 7.74744C62.5452 7.78504 63.5979 8.87527 63.5979 10.1911ZM53.5215 15.1159C53.5215 15.3415 53.5215 15.7175 53.5215 15.7175C53.5215 15.7175 52.3559 14.2137 49.8744 14.2137C45.7762 14.2137 42.5803 17.334 42.5803 21.6574C42.5803 25.9431 45.7386 29.1011 49.8744 29.1011C52.3935 29.1011 53.5215 27.5597 53.5215 27.5597V28.1988C53.5215 28.4996 53.7471 28.7251 54.0479 28.7251H57.0934V14.5896C57.0934 14.5896 54.3111 14.5896 54.0479 14.5896C53.7471 14.5896 53.5215 14.8528 53.5215 15.1159ZM53.5215 24.1762C52.9575 25.0033 51.8296 25.7176 50.476 25.7176C48.0697 25.7176 46.2274 24.2138 46.2274 21.6574C46.2274 19.101 48.0697 17.5972 50.476 17.5972C51.792 17.5972 52.9951 18.3491 53.5215 19.1385V24.1762ZM59.3493 14.5896H62.9587V28.7251H59.3493V14.5896ZM113.266 14.2137C110.784 14.2137 109.619 15.7175 109.619 15.7175V7.78504H106.009V28.7251C106.009 28.7251 108.791 28.7251 109.055 28.7251C109.355 28.7251 109.581 28.462 109.581 28.1988V27.5597C109.581 27.5597 110.747 29.1011 113.228 29.1011C117.326 29.1011 120.522 25.9431 120.522 21.6574C120.522 17.3716 117.326 14.2137 113.266 14.2137ZM112.664 25.68C111.273 25.68 110.183 24.9657 109.619 24.1386V19.101C110.183 18.3491 111.386 17.5596 112.664 17.5596C115.07 17.5596 116.913 19.0634 116.913 21.6198C116.913 24.1762 115.07 25.68 112.664 25.68ZM104.129 20.3416V28.7627H100.52V20.7551C100.52 18.4243 99.7677 17.4844 97.7374 17.4844C96.647 17.4844 95.5191 18.0483 94.8047 18.8754V28.7251H91.1953V14.5896H94.0527C94.3535 14.5896 94.5791 14.8528 94.5791 15.1159V15.7175C95.6319 14.6272 97.023 14.2137 98.4142 14.2137C99.9933 14.2137 101.309 14.6648 102.362 15.5671C103.64 16.6197 104.129 17.9731 104.129 20.3416ZM82.4348 14.2137C79.9533 14.2137 78.7877 15.7175 78.7877 15.7175V7.78504H75.1783V28.7251C75.1783 28.7251 77.9606 28.7251 78.2238 28.7251C78.5245 28.7251 78.7501 28.462 78.7501 28.1988V27.5597C78.7501 27.5597 79.9157 29.1011 82.3972 29.1011C86.4954 29.1011 89.6913 25.9431 89.6913 21.6574C89.7289 17.3716 86.533 14.2137 82.4348 14.2137ZM81.8332 25.68C80.4421 25.68 79.3517 24.9657 78.7877 24.1386V19.101C79.3517 18.3491 80.5549 17.5596 81.8332 17.5596C84.2395 17.5596 86.0818 19.0634 86.0818 21.6198C86.0818 24.1762 84.2395 25.68 81.8332 25.68ZM72.0576 14.2137C73.1479 14.2137 73.7119 14.4017 73.7119 14.4017V17.7476C73.7119 17.7476 70.704 16.7325 68.8241 18.8754V28.7627H65.2147V14.5896C65.2147 14.5896 67.9969 14.5896 68.2601 14.5896C68.5609 14.5896 68.7865 14.8528 68.7865 15.1159V15.7175C69.4633 14.928 70.9296 14.2137 72.0576 14.2137ZM34.5718 27.4469C34.3838 26.9958 34.1958 26.5071 34.0078 26.0935C33.7071 25.4168 33.4063 24.7777 33.1431 24.1762L33.1055 24.1386C30.5112 18.4994 27.7289 12.7851 24.7962 7.14593L24.6834 6.92036C24.3826 6.35645 24.0818 5.75494 23.781 5.15343C23.4051 4.47673 23.0291 3.76244 22.4275 3.08574C21.2243 1.58196 19.4948 0.754883 17.6525 0.754883C15.7726 0.754883 14.0806 1.58196 12.8399 3.01055C12.2759 3.68725 11.8623 4.40154 11.4863 5.07824C11.1855 5.67975 10.8847 6.28126 10.5839 6.84518L10.4712 7.07074C7.57606 12.7099 4.75617 18.4243 2.16187 24.0634L2.12427 24.1386C1.86108 24.7401 1.5603 25.3792 1.25951 26.0559C1.07151 26.4695 0.883521 26.9206 0.695529 27.4093C0.206747 28.8003 0.0563532 30.1161 0.244346 31.4695C0.65793 34.2891 2.53786 36.6575 5.13216 37.7102C6.10972 38.1237 7.12488 38.3117 8.17764 38.3117C8.47843 38.3117 8.85441 38.2741 9.1552 38.2365C10.396 38.0861 11.6743 37.6726 12.9151 36.9583C14.4566 36.0936 15.9229 34.853 17.5773 33.0485C19.2316 34.853 20.7356 36.0936 22.2395 36.9583C23.4803 37.6726 24.7586 38.0861 25.9994 38.2365C26.3001 38.2741 26.6761 38.3117 26.9769 38.3117C28.0297 38.3117 29.0824 38.1237 30.0224 37.7102C32.6543 36.6575 34.4966 34.2515 34.9102 31.4695C35.211 30.1537 35.0606 28.8379 34.5718 27.4469ZM17.6149 29.4018C15.5846 26.8454 14.2686 24.4394 13.8174 22.4093C13.6294 21.5446 13.5918 20.7927 13.7046 20.116C13.7798 19.5145 14.0054 18.9882 14.3062 18.537C15.0206 17.522 16.2237 16.8829 17.6149 16.8829C19.006 16.8829 20.2468 17.4844 20.9236 18.537C21.2243 18.9882 21.4499 19.5145 21.5251 20.116C21.6379 20.7927 21.6003 21.5822 21.4123 22.4093C20.9612 24.4018 19.6452 26.8078 17.6149 29.4018ZM32.6167 31.1688C32.3535 33.1237 31.0376 34.8154 29.1952 35.5673C28.2929 35.9432 27.3153 36.056 26.3377 35.9432C25.3978 35.8305 24.4578 35.5297 23.4803 34.9658C22.1267 34.2139 20.7732 33.0485 19.194 31.3191C21.6755 28.274 23.1795 25.492 23.7434 23.0108C24.0066 21.8453 24.0442 20.7927 23.9314 19.8152C23.781 18.8754 23.4427 18.0107 22.9163 17.2588C21.7507 15.5671 19.7956 14.5896 17.6149 14.5896C15.4342 14.5896 13.479 15.6047 12.3135 17.2588C11.7871 18.0107 11.4487 18.8754 11.2983 19.8152C11.1479 20.7927 11.1855 21.8829 11.4863 23.0108C12.0503 25.492 13.5918 28.3116 16.0357 31.3567C14.4942 33.0861 13.1031 34.2515 11.7495 35.0034C10.7719 35.5673 9.83198 35.8681 8.89201 35.9808C7.87685 36.0936 6.89929 35.9432 6.03452 35.6049C4.19219 34.853 2.87624 33.1613 2.61305 31.2064C2.50026 30.2665 2.57546 29.3266 2.95144 28.274C3.06424 27.898 3.25223 27.5221 3.44022 27.071C3.70341 26.4695 4.0042 25.8304 4.30499 25.1912L4.34259 25.1161C6.93689 19.5145 9.71918 13.8001 12.6143 8.23617L12.7271 8.0106C13.0279 7.44669 13.3286 6.84518 13.6294 6.28126C13.9302 5.67975 14.2686 5.11583 14.6822 4.62711C15.4718 3.72484 16.5245 3.23611 17.6901 3.23611C18.8556 3.23611 19.9084 3.72484 20.698 4.62711C21.1115 5.11583 21.4499 5.67975 21.7507 6.28126C22.0515 6.84518 22.3523 7.44669 22.6531 8.0106L22.7659 8.23617C25.6234 13.8377 28.4057 19.5521 31 25.1537V25.1912C31.3008 25.7928 31.5639 26.4695 31.8647 27.071C32.0527 27.5221 32.2407 27.898 32.3535 28.274C32.6543 29.2514 32.7671 30.1913 32.6167 31.1688Z" fill="#838383"/>
</svg>
