<svg width="133" height="24" viewBox="0 0 133 24" fill="none" xmlns="http://www.w3.org/2000/svg">
<path d="M131.405 7.07326C131.405 6.56572 131.048 6.22736 130.461 6.22736L129.308 6.2485L129.329 8.82853H129.958V7.94032H130.335L130.88 8.82853H131.614L130.964 7.83458C131.099 7.75932 131.211 7.64888 131.288 7.51491C131.366 7.38093 131.406 7.22836 131.405 7.07326ZM130.335 7.41163H129.937V6.75605H130.398C130.481 6.74687 130.565 6.77031 130.631 6.82151C130.697 6.8727 130.742 6.94772 130.755 7.03097V7.05212C130.753 7.1044 130.741 7.15575 130.718 7.20287C130.696 7.25 130.663 7.29184 130.624 7.32572C130.584 7.35959 130.538 7.38474 130.489 7.39953C130.439 7.41433 130.387 7.41845 130.335 7.41163ZM37.3288 19.0006C36.2595 19.0006 35.5257 18.1547 35.5257 16.9069V11.2182H39.9286V7.20015H35.5362L35.4943 2.58995H30.6301L30.672 17.9432C30.672 21.0519 32.7267 23.1667 35.7458 23.1667C37.3393 23.1667 38.8489 22.934 40.0439 22.3842V18.4719C39.1953 18.8691 38.2631 19.0506 37.3288 19.0006ZM48.9441 6.94638C44.4154 6.94638 40.935 10.4992 40.935 15.2151C40.935 19.8888 44.4154 23.1455 49.2167 23.1455C51.9213 23.1455 54.4583 22.1727 56.0098 20.1637L52.2778 18.4507C51.523 19.1486 50.3698 19.4235 49.3425 19.4235C47.6652 19.4235 45.9879 18.5565 45.7572 16.7801H56.8904C57.0577 16.1453 57.1422 15.4913 57.1419 14.8345C57.1419 9.99165 53.6406 6.94638 48.9546 6.94638H48.9441ZM45.7572 13.6713C45.904 11.5566 47.4136 10.5838 49.0699 10.5838C50.9359 10.5838 52.3407 11.6412 52.3407 13.4599V13.6713H45.7572ZM26.007 19.0006C24.9377 19.0006 24.2039 18.1547 24.2039 16.9069V11.2182H28.6068V7.20015H24.2144L24.1725 2.58995H19.3083L19.3502 17.9432C19.3502 21.0519 21.4049 23.1667 24.4241 23.1667C26.0175 23.1667 27.5271 22.934 28.7221 22.3842V18.4719C27.8741 18.871 26.9414 19.0526 26.007 19.0006ZM8.91948 6.94638C4.74719 6.94638 0.365234 9.71673 0.365234 15.2997C0.365234 19.9522 3.46824 23.209 7.38894 23.209C9.63233 23.209 11.3306 22.2996 12.4418 20.6924L12.5886 22.934H17.2955V15.4901C17.2955 9.82247 13.1547 6.94638 8.91948 6.94638ZM8.91948 18.916C6.80189 18.916 5.27135 17.3299 5.27135 15.0882C5.27135 12.8466 6.78092 11.2605 8.91948 11.2605C10.8903 11.2605 12.5257 12.9946 12.5257 15.0882C12.5257 17.1819 10.8903 18.916 8.91948 18.916ZM130.23 5.06423C128.7 5.08538 127.714 6.07933 127.735 7.55966C127.756 9.04 128.763 10.0128 130.293 9.99165C131.782 9.9705 132.788 8.97656 132.767 7.47507C132.746 5.97359 131.74 5.04308 130.23 5.06423ZM130.293 9.5687C129.098 9.58984 128.281 8.78623 128.281 7.55966C128.281 6.3331 129.056 5.50833 130.251 5.48719C131.446 5.46604 132.243 6.26965 132.264 7.51737C132.264 8.72278 131.467 9.54755 130.304 9.5687H130.293ZM106.455 7.2213L103.058 17.1607L99.6197 7.2213H94.3361L100.668 22.9129H105.406L111.738 7.2213H106.455ZM119.055 6.94638C114.527 6.94638 111.046 10.4992 111.046 15.2151C111.046 19.8888 114.527 23.1455 119.328 23.1455C122.033 23.1455 124.57 22.1727 126.121 20.1637L122.389 18.4507C121.634 19.1486 120.481 19.4235 119.454 19.4235C117.776 19.4235 116.099 18.5565 115.869 16.7801H127.002C127.169 16.1453 127.254 15.4913 127.253 14.8345C127.253 9.99165 123.752 6.94638 119.055 6.94638ZM122.452 13.6713H115.869C116.015 11.5566 117.525 10.5838 119.181 10.5838C121.047 10.5838 122.452 11.6412 122.452 13.4599V13.6713ZM90.5832 0.327148C88.8639 0.327148 87.564 1.49027 87.564 3.11865C87.564 4.74702 88.8639 5.95244 90.5832 5.95244C92.3024 5.95244 93.6023 4.76817 93.6023 3.11865C93.6023 1.46913 92.3234 0.327148 90.5832 0.327148ZM68.5057 6.92523C67.5226 6.90921 66.5522 7.15009 65.6888 7.62443C64.8254 8.09878 64.0985 8.79044 63.5786 9.63214L63.4109 7.2213H58.7144V22.9129H63.5786V14.6864C63.6834 12.7197 65.2559 11.2182 66.9751 11.2182C68.904 11.2182 69.7846 12.6774 69.7846 14.5173V22.8917H74.6278V13.7559C74.6278 9.78017 72.2272 6.92523 68.5057 6.92523ZM83.3498 19.0006C82.2805 19.0006 81.5467 18.1547 81.5467 16.9069V11.2182H85.9496V7.20015H81.5467L81.5048 2.58995H76.6406L76.6825 17.9432C76.6825 21.0519 78.7372 23.1667 81.7564 23.1667C83.3498 23.1667 84.8594 22.934 86.0545 22.3842V18.4719C85.2096 18.8693 84.2807 19.0509 83.3498 19.0006ZM88.1301 7.2213V22.9129H93.0362V7.2213C92.3089 7.70747 91.4557 7.96674 90.5832 7.96674C89.7106 7.96674 88.8574 7.70747 88.1301 7.2213Z" fill="#838383"/>
</svg>
