<svg width="1725" height="804" viewBox="0 0 1725 804" fill="none" xmlns="http://www.w3.org/2000/svg">
<path d="M498.274 110.444C570.089 42.7321 666.485 0.63149 773.145 0.500307V115.753C642.728 115.977 532.546 203.834 498.431 323.49V134.771V134.048L497.755 134.303C403.944 169.608 332.84 253.292 316.336 355.402V199.584V198.377L315.483 199.231C263.957 250.756 230.976 321.867 230.976 401.225C230.976 480.58 262.925 551.694 315.486 603.224L316.336 604.057V602.867V447.049C332.84 549.159 403.944 632.843 497.755 668.148L498.431 668.403V667.68V478.861C533.492 598.564 642.69 686.474 773.145 686.698V801.951C666.485 801.82 570.089 759.719 498.274 692.007L497.431 691.213V692.371V704.717V788.433C437.064 772.977 382.821 743.252 336.737 704.336C329.552 698.178 323.393 692.019 316.19 684.816L315.336 683.963V685.17V704.717V747.059C255.049 712.142 204.972 661.964 170.181 602.616C161.949 588.209 153.737 573.837 147.58 558.444L146.616 558.629V661.205C95.7176 602.806 61.1224 530.223 50.9064 449.515L49.9103 449.578V589.636C18.6319 533.52 0.5 469.377 0.5 400.197C0.5 332.035 18.6322 266.893 49.9103 210.758V351.844L50.9064 351.907C61.1224 271.2 95.7176 198.617 146.616 140.217V243.822L147.569 244.033C154.766 228.611 161.96 214.223 170.18 199.837C205.999 140.482 255.062 90.3063 315.336 55.3919V76.1301V117.281V118.489L316.19 117.635C331.605 102.22 347.015 88.8648 364.478 76.5386L364.481 76.5362C404.394 47.8805 448.372 25.3477 497.431 12.9864V76.1301V110.08V111.238L498.274 110.444Z" stroke="#3E3E3E"/>
<path d="M1674.19 211.786C1705.47 267.902 1723.6 332.045 1723.6 401.225C1723.6 470.406 1705.47 534.548 1674.19 590.665V450.607L1673.19 450.544C1662.98 531.251 1628.38 603.834 1577.48 662.234V558.629L1576.53 558.418C1569.33 573.84 1562.14 588.228 1553.92 602.613C1518.1 661.968 1469.04 712.145 1408.76 747.059V726.321V685.17V683.963L1407.91 684.816C1392.49 700.231 1377.08 713.586 1359.62 725.912L1359.61 725.919C1320.73 754.569 1275.74 777.102 1226.67 789.465V726.321V693.4V692.241L1225.82 693.036C1154.01 760.748 1057.61 802.848 950.953 802.979V687.727C1081.37 687.503 1191.55 599.645 1225.67 479.99V667.68V668.403L1226.34 668.148C1320.15 632.843 1391.26 549.159 1407.76 447.049V602.867V604.074L1408.62 603.221C1460.14 551.695 1493.12 480.584 1493.12 401.225C1493.12 321.871 1461.17 250.757 1408.61 199.227L1407.76 198.394V199.584V355.402C1391.26 253.292 1320.15 169.608 1226.34 134.303L1225.67 134.048V134.771V323.59C1190.61 203.887 1081.41 115.977 950.953 115.753V0.500307C1057.61 0.63149 1154.01 42.7321 1225.82 110.444L1226.67 111.238V110.08V97.7344V14.0178C1287.03 29.4742 1341.28 59.1995 1387.36 98.1147C1394.55 104.273 1400.71 110.432 1407.91 117.635L1408.76 118.488V117.281V97.7344V55.3919C1469.05 90.3083 1519.12 140.485 1553.91 199.832C1562.15 214.24 1570.36 228.613 1576.52 244.007L1577.48 243.822V140.217C1628.38 198.617 1662.98 271.2 1673.19 351.907L1674.19 351.844V211.786Z" stroke="#3E3E3E"/>
</svg>
