<svg width="375" height="721" viewBox="0 0 375 721" fill="none" xmlns="http://www.w3.org/2000/svg">
<mask id="mask0_1861_81211" style="mask-type:alpha" maskUnits="userSpaceOnUse" x="0" y="-78" width="375" height="799">
<path d="M52.0395 489.757C20.4789 456.487 0.85746 411.828 0.801996 362.414H54.5536C54.6484 422.871 95.6582 473.941 151.488 489.692H63.3927H63.0885L63.1962 489.976C79.6761 533.5 118.781 566.468 166.474 574.029H93.5946H93.0852L93.4465 574.388C117.453 598.249 150.583 613.521 187.556 613.521C224.527 613.521 257.659 598.726 281.667 574.387L282.02 574.029H281.518H208.638C256.332 566.468 295.436 533.5 311.916 489.976L312.024 489.692H311.72H223.582C279.432 473.499 320.464 422.887 320.559 362.414H374.31C374.255 411.828 354.633 456.487 323.073 489.757L322.736 490.112H323.225H328.978H368.018C360.816 518.085 346.96 543.22 328.818 564.573C325.948 567.901 323.078 570.754 319.721 574.09L319.36 574.449H319.869H328.978H348.747C332.474 602.389 309.082 625.596 281.413 641.718C274.699 645.531 268.001 649.335 260.826 652.187L260.904 652.592H308.761C281.537 676.189 247.695 692.229 210.062 696.963L210.088 697.382H275.436C249.266 711.895 219.348 720.309 187.077 720.309C155.281 720.309 124.895 711.895 98.7177 697.382H164.545L164.571 696.963C126.938 692.229 93.0957 676.189 65.8721 652.592H114.209L114.297 652.192C107.11 648.858 100.405 645.526 93.7006 641.718C66.0285 625.121 42.6372 602.383 26.3649 574.449H36.0671H55.243H55.7523L55.3911 574.09C48.2071 566.95 41.9831 559.812 36.2384 551.723L36.2374 551.721C22.8779 533.227 12.3737 512.847 6.61423 490.112H36.0671H51.8871H52.376L52.0395 489.757Z" fill="white" stroke="#3E3E3E" stroke-width="0.420162"/>
<path d="M99.197 -54.8615C125.367 -69.3746 155.285 -77.789 187.556 -77.789C219.827 -77.789 249.746 -69.3746 275.915 -54.8615H210.567L210.541 -54.443C248.174 -49.7082 282.017 -33.6689 309.24 -10.0721H260.904L260.815 -9.67142C268.003 -6.33777 274.708 -3.00522 281.413 0.802521C309.084 17.4001 332.475 40.1372 348.747 68.0712H339.045H319.869H319.36L319.721 68.4303C326.905 75.5706 333.129 82.7088 338.874 90.7977L338.876 90.8011C352.234 108.819 362.738 129.669 368.498 152.409H339.045H323.705H323.216L323.552 152.763C355.113 186.033 374.734 230.693 374.79 280.106H321.038C320.943 219.649 279.934 168.58 224.104 152.829H311.72H312.024L311.916 152.544C295.436 109.021 256.332 76.0529 208.638 68.4913H281.518H282.027L281.666 68.1322C257.66 44.2717 224.529 28.9996 187.556 28.9996C150.585 28.9996 117.453 43.7941 93.4451 68.1337L93.0923 68.4913H93.5946H166.474C118.781 76.0529 79.6761 109.021 63.1962 152.544L63.0885 152.829H63.3927H151.531C95.6808 169.021 54.6484 219.633 54.5536 280.106H0.801996C0.85746 230.693 20.4789 186.033 52.0395 152.763L52.376 152.409H51.8871H46.1344H7.09476C14.2962 124.436 28.1524 99.3006 46.2941 77.9474C49.1642 74.6194 52.0347 71.7662 55.3911 68.4303L55.7523 68.0712H55.243H46.1344H26.3649C42.6381 40.1318 66.0299 16.9247 93.699 0.803009C100.412 -3.00992 107.111 -6.81421 114.286 -9.66678L114.209 -10.0721H65.8721C93.0958 -33.6689 126.938 -49.7082 164.571 -54.443L164.545 -54.8615H99.197Z" fill="white" stroke="#3E3E3E" stroke-width="0.420162"/>
</mask>
<g mask="url(#mask0_1861_81211)">
<g filter="url(#filter0_f_1861_81211)">
<circle cx="188.281" cy="405.863" r="260.887" transform="rotate(-90 188.281 405.863)" fill="url(#paint0_linear_1861_81211)"/>
</g>
</g>
<defs>
<filter id="filter0_f_1861_81211" x="-195.473" y="22.1093" width="767.507" height="767.508" filterUnits="userSpaceOnUse" color-interpolation-filters="sRGB">
<feFlood flood-opacity="0" result="BackgroundImageFix"/>
<feBlend mode="normal" in="SourceGraphic" in2="BackgroundImageFix" result="shape"/>
<feGaussianBlur stdDeviation="61.4336" result="effect1_foregroundBlur_1861_81211"/>
</filter>
<linearGradient id="paint0_linear_1861_81211" x1="188.281" y1="144.977" x2="188.281" y2="666.75" gradientUnits="userSpaceOnUse">
<stop stop-color="#83E263"/>
<stop offset="1" stop-color="#5DB8A7"/>
</linearGradient>
</defs>
</svg>
