<svg width="179" height="33" viewBox="0 0 179 33" fill="none" xmlns="http://www.w3.org/2000/svg">
<path d="M57.6455 22.1804C55.0756 22.1804 53.569 20.1719 53.569 17.8976C53.569 15.2689 55.2823 13.5262 57.6455 13.5262C58.8861 13.5262 59.7133 14.0284 60.4813 14.501L61.7219 12.2858C60.8358 11.7246 59.3588 11.0452 57.7932 11.0452C53.7167 11.0452 50.7923 13.9398 50.7923 17.8976C50.7923 21.8259 53.7758 24.7501 57.7932 24.7501C59.5065 24.7501 60.7472 24.0412 61.7219 23.4504L60.4813 21.2353C59.7133 21.7668 58.5612 22.1804 57.6455 22.1804ZM66.3596 4.99028H68.9887V24.3956H66.3596V4.99028ZM84.1424 11.4588L83.847 12.5812C83.1381 11.8132 81.6316 11.0452 80.0364 11.0452C76.7871 11.0452 73.8036 13.6149 73.8036 17.809C73.8036 22.1508 76.7871 24.7796 80.0364 24.7796C81.6316 24.7796 83.079 24.0116 83.847 23.2437L84.1424 24.4252H86.3579V11.5474H84.1424V11.4588ZM83.9061 17.9862C83.9061 20.9399 82.1042 22.269 80.3909 22.269C78.6481 22.269 76.6394 21.0876 76.6394 17.8385C76.6394 15.771 77.7324 13.5558 80.1841 13.5558C82.0451 13.5558 83.9061 15.0622 83.9061 17.8385V17.9862ZM95.7515 19.02C97.5533 19.4926 98.3214 19.847 98.3214 20.7627C98.3214 21.4716 97.701 22.2099 96.2536 22.2099C94.9243 22.2099 93.8313 21.7374 92.7975 21.1762L91.6159 23.3914C92.5317 23.9526 94.5699 24.7205 96.2536 24.7205C99.1486 24.7205 100.832 22.7711 100.832 20.7922C100.832 17.3955 97.4942 16.8639 96.6081 16.5685C94.7471 16.0664 94.2745 15.6824 94.2745 14.9145C94.2745 14.0874 94.9834 13.5262 96.3423 13.5262C97.5238 13.5262 98.41 13.8807 99.2376 14.2942L100.478 12.079C99.2963 11.5769 97.9078 11.0452 96.3423 11.0452C93.5064 11.0452 91.7932 13.0537 91.7932 14.9145C91.7932 17.8976 94.304 18.6656 95.7515 19.02ZM109.842 19.02C111.643 19.4926 112.411 19.847 112.411 20.7627C112.411 21.4716 111.791 22.2099 110.344 22.2099C109.014 22.2099 107.922 21.7374 106.888 21.1762L105.706 23.3914C106.622 23.9526 108.66 24.7205 110.344 24.7205C113.239 24.7205 114.922 22.7711 114.922 20.7922C114.922 17.3955 111.585 16.8639 110.699 16.5685C108.837 16.0664 108.365 15.6824 108.365 14.9145C108.365 14.0874 109.074 13.5262 110.433 13.5262C111.614 13.5262 112.5 13.8807 113.328 14.2942L114.568 12.079C113.387 11.5769 111.999 11.0452 110.433 11.0452C107.597 11.0452 105.883 13.0537 105.883 14.9145C105.854 17.8976 108.394 18.6656 109.842 19.02ZM126.325 11.0452C124.73 11.0452 123.282 11.8132 122.515 12.5812L122.219 11.3997H120.004V29.7417H122.484V23.3618L122.573 23.3028C123.282 24.0707 124.73 24.691 126.118 24.691C129.456 24.691 132.557 22.5348 132.557 17.7204C132.617 13.4081 129.634 11.0452 126.325 11.0452ZM126.029 22.269C124.316 22.269 122.515 20.9399 122.515 17.9862V17.8385C122.515 15.0031 124.375 13.5558 126.237 13.5558C128.717 13.5558 129.781 15.771 129.781 17.8385C129.781 21.0876 127.772 22.269 126.029 22.269ZM147.269 11.4588L146.973 12.6402C146.264 11.8723 144.758 11.1043 143.162 11.1043C139.913 11.1043 136.93 13.6739 136.93 17.8681C136.93 22.2099 139.913 24.8387 143.162 24.8387C144.758 24.8387 146.204 24.0707 146.973 23.3028L147.269 24.4842H149.484V11.6064H147.269V11.4588ZM147.003 17.9862C147.003 20.9399 145.201 22.269 143.487 22.269C141.744 22.269 139.736 21.0876 139.736 17.8385C139.736 15.771 140.829 13.5558 143.281 13.5558C145.141 13.5558 147.003 15.0622 147.003 17.8385V17.9862ZM158.877 19.02C160.679 19.4926 161.447 19.847 161.447 20.7627C161.447 21.4716 160.827 22.2099 159.379 22.2099C158.05 22.2099 156.957 21.7374 155.923 21.1762L154.742 23.3914C155.657 23.9526 157.696 24.7205 159.379 24.7205C162.274 24.7205 163.958 22.7711 163.958 20.7922C163.958 17.3955 160.62 16.8639 159.734 16.5685C157.873 16.0664 157.4 15.6824 157.4 14.9145C157.4 14.0874 158.11 13.5262 159.468 13.5262C160.65 13.5262 161.536 13.8807 162.363 14.2942L163.604 12.079C162.422 11.5769 161.034 11.0452 159.468 11.0452C156.633 11.0452 154.919 13.0537 154.919 14.9145C154.889 17.8976 157.43 18.6656 158.877 19.02ZM172.938 19.02C174.74 19.4926 175.508 19.847 175.508 20.7627C175.508 21.4716 174.888 22.2099 173.44 22.2099C172.111 22.2099 171.018 21.7374 169.984 21.1762L168.803 23.3914C169.718 23.9526 171.757 24.7205 173.44 24.7205C176.335 24.7205 178.019 22.7711 178.019 20.7922C178.019 17.3955 174.681 16.8639 173.795 16.5685C171.934 16.0664 171.461 15.6824 171.461 14.9145C171.461 14.0874 172.17 13.5262 173.529 13.5262C174.711 13.5262 175.597 13.8807 176.423 14.2942L177.665 12.079C176.483 11.5769 175.094 11.0452 173.529 11.0452C170.693 11.0452 168.98 13.0537 168.98 14.9145C168.98 17.8976 171.52 18.6656 172.938 19.02Z" fill="#838383"/>
<path d="M28.2505 0.885254H23.4946C22.6676 0.885254 21.8405 1.50543 21.7519 2.33246L21.0429 5.7292C20.9543 6.34938 20.4226 6.7629 19.8022 6.7629H14.5443C7.4252 6.85151 0.837891 12.2271 0.837891 19.8474C0.837891 26.6408 6.50948 32.8435 14.6624 32.8435H20.0385C20.8657 32.8435 21.6928 32.2232 21.7814 31.3962L22.4904 27.9995C22.579 27.3792 23.1107 26.9657 23.7309 26.9657H28.3687C36.3149 26.9657 42.1931 20.8812 42.1931 13.9698C42.075 6.34938 35.5764 0.885254 28.2505 0.885254ZM28.1323 21.915H22.5494C21.7223 21.915 21.0134 22.5353 20.8066 23.3623L20.0976 26.6704C20.009 27.2906 19.4773 27.7042 18.857 27.7042H14.7214C10.4973 27.7042 5.94822 24.7209 5.94822 19.7588C5.94822 15.2102 9.96559 11.8136 14.7214 11.8136H21.102C21.9291 11.8136 22.6381 11.1933 22.8448 10.3664L23.5537 7.05827C23.6423 6.43799 24.1741 6.02448 24.7944 6.02448H28.1028C32.5337 6.02448 36.876 9.12585 36.876 13.9698C36.8169 18.4002 33.0064 21.915 28.1323 21.915Z" fill="#838383"/>
</svg>
