<svg width="105" height="27" viewBox="0 0 105 27" fill="none" xmlns="http://www.w3.org/2000/svg">
<path fill-rule="evenodd" clip-rule="evenodd" d="M104.508 20.6956C100.134 28.1105 93.2067 25.959 91.1262 24.2744C90.2408 24.8751 88.6882 26.1917 86.618 26.0397C82.209 25.7161 80.6301 19.4162 80.6301 19.4162C80.6618 19.4414 79.3168 19.8803 78.5899 19.8724C78.5806 21.7199 76.9834 26.1332 72.6729 26.0767C67.8359 26.0137 66.8526 18.8082 66.8526 18.8082C66.8526 18.8082 66.3712 19.4765 64.541 20.1422C64.6331 18.7228 64.5658 25.8607 58.7685 25.9656C54.1853 26.0486 52.9481 18.6971 52.9481 18.6971C52.9481 18.6971 52.153 19.5229 50.6122 19.8093C50.7101 18.3669 50.5509 25.9898 44.7529 25.9656C40.8346 25.9494 39.4957 21.4371 39.5998 20.8108C39.7327 20.0126 38.2756 26.0778 34.4696 25.9834C32.899 25.9372 31.7281 24.8002 30.9933 23.2843C30.0097 24.4096 28.5816 25.9834 26.9796 25.9834C24.104 25.9834 22.8362 23.5784 23.0509 16.7095C23.0693 15.8948 23.0104 15.5744 22.2005 15.4525C21.7143 15.3714 21.2165 15.2179 20.6897 15.1369C20.5208 15.7003 19.0888 25.8001 14.1645 25.9918C12.5125 26.0561 11.6091 24.6251 10.8673 23.5631C9.73013 25.0673 8.229 26.0397 6.09051 26.0397C2.46808 26.0397 0 23.1116 0 19.4996C0 15.8876 2.46808 12.9598 6.09051 12.9598C6.73099 12.9598 6.91079 13.0516 7.49591 13.2223C6.29259 2.26756 9.13435 0.555492 11.6203 0.555492C14.0069 0.555492 18.0842 6.0942 12.3471 20.1433C13.6208 24.3338 16.3668 24.0968 17.6863 15.4704C17.9549 13.7169 17.2368 11.3507 18.3537 11.0205C20.3955 10.4169 20.6121 12.2278 21.5694 12.5295C22.5817 12.8484 23.1725 12.8172 24.1443 13.0201C25.8049 13.3444 26.4529 14.2363 26.2505 16.2229C26.0076 18.7365 25.5826 22.395 26.8784 22.8409C27.8129 23.1648 29.519 21.2271 29.8184 20.1668C30.1177 19.1066 30.1802 18.7438 30.2068 17.9661C30.2473 16.3041 30.2981 15.0858 30.5815 13.8289C30.7029 13.3425 30.8411 13.0204 31.3915 12.9984C31.8443 12.9869 32.6724 12.8505 33.037 13.1342C33.5229 13.4993 33.4622 13.8697 33.4064 14.8445C32.8413 28.744 37.1906 21.8053 38.4874 16.2494C38.0256 9.96709 38.3427 0.670532 42.2799 0.514612C44.3276 0.433525 45.2328 2.07376 45.3324 3.29804C45.6141 6.75587 44.0364 12.4837 41.9616 16.3357C40.7758 24.1954 47.1462 25.7494 48.165 19.4758C46.4982 18.6834 44.697 15.4762 46.1628 13.9132C46.9852 13.0361 50.4089 14.2962 50.465 17.0446C52.1444 16.5955 52.3686 15.6474 52.3919 15.8045C51.9302 9.52214 52.3584 0.670614 56.2959 0.514692C58.3433 0.433605 59.2484 2.07384 59.348 3.29812C59.6296 6.75594 58.052 12.4838 55.9775 16.3358C54.7915 24.1954 61.1621 25.7495 62.1806 19.476C60.9466 19.2379 58.3417 15.8265 59.8446 13.9133C60.6478 12.8909 64.059 15.0171 64.4409 17.1356C66.0542 16.6791 66.2733 15.7611 66.2964 15.9156C65.8346 9.63348 66.2628 0.781951 70.2003 0.62603C72.2477 0.544943 73.1529 2.18518 73.2524 3.40946C73.5341 6.86728 71.9565 12.5952 69.8817 16.4472C68.696 24.3069 75.0664 25.8607 76.0851 19.5871C74.3893 19.3048 71.9793 15.7029 73.919 13.8602C74.694 13.124 77.6552 15.0351 78.3483 17.2155C79.3114 17.1784 79.911 16.8463 80.0395 16.8128C78.5019 9.4377 79.6465 0.588668 83.8822 0.514801C86.1716 0.474915 88.4097 1.75234 87.4274 8.76877C86.4896 15.4633 83.1188 18.2727 83.1267 18.3156C83.3228 19.1176 85.0525 25.8295 89.4081 22.2881C89.1827 21.7776 88.9569 21.2561 88.8308 20.6243C88.1088 16.944 89.5268 12.7872 93.381 12.1153C95.5893 11.7304 97.6695 12.8054 97.9983 15.2289C98.5395 19.1945 94.9582 22.0664 93.5964 22.6894C92.9864 22.3429 99.1255 26.2797 102.769 18.3903C102.98 17.9398 103.235 17.978 103.565 18.2101C103.798 18.3742 105.125 19.6314 104.508 20.6956ZM8.72551 18.5252C8.54013 17.9711 8.1597 16.75 8.02517 16.2209C7.28427 15.5767 6.75544 15.4721 5.80443 15.4721C3.69099 15.4721 2.44706 17.4259 2.44706 19.5327C2.44706 21.6394 3.80223 23.5934 5.91568 23.5934C7.74723 23.5934 9.1412 22.3483 9.56649 20.5856C9.26881 19.8984 8.97352 19.2669 8.72551 18.5252ZM11.5685 3.45528C10.0835 3.45528 9.57972 6.99741 9.67748 10.0192C9.76396 12.6908 10.5106 15.0428 10.8979 16.0967C10.9962 16.2288 10.978 16.1429 11.0657 16.2829C13.6442 10.634 12.5747 3.45528 11.5685 3.45528ZM42.492 3.56655C40.5727 3.34645 40.5851 11.341 40.8233 13.1342C41.8202 11.5397 43.5518 3.99587 42.492 3.56655ZM56.5076 3.56655C54.5883 3.34645 54.6007 11.341 54.8391 13.1342C55.8358 11.5397 57.5675 3.99587 56.5076 3.56655ZM70.4122 3.67777C68.4927 3.45767 68.5051 11.4522 68.7435 13.2456C69.7402 11.651 71.4719 4.10706 70.4122 3.67777ZM84.094 3.09856C81.1036 3.69899 81.8 13.6684 82.2542 15.4169C85.7766 10.5794 85.8492 2.91685 84.094 3.09856ZM95.3013 15.5569C95.1493 14.9213 94.389 14.5815 93.8643 14.6652C92.3628 14.8703 90.9065 16.7401 91.4702 19.5868C91.5957 20.2208 91.9097 20.8044 91.9046 20.785C95.2649 18.5309 95.5506 16.7546 95.3013 15.5569ZM31.9801 10.798C31.551 10.798 31.1315 10.6709 30.7746 10.4325C30.4178 10.1942 30.1396 9.8554 29.9753 9.45898C29.811 9.06257 29.768 8.62634 29.8517 8.20549C29.9353 7.78462 30.1421 7.39803 30.4455 7.09459C30.7489 6.79115 31.1355 6.58451 31.5563 6.50078C31.9772 6.41705 32.4135 6.46001 32.81 6.62422C33.2065 6.78843 33.5453 7.06651 33.7837 7.4233C34.0221 7.78009 34.1494 8.19957 34.1494 8.62865C34.1494 8.91352 34.0933 9.1956 33.9843 9.45877C33.8753 9.72196 33.7156 9.96109 33.5141 10.1625C33.3126 10.364 33.0735 10.5238 32.8103 10.6328C32.5471 10.7418 32.2651 10.7979 31.9801 10.798Z" fill="#838383"/>
</svg>
