<svg width="89" height="33" viewBox="0 0 89 33" fill="none" xmlns="http://www.w3.org/2000/svg">
<path d="M0.244141 0.510254V25.421L3.43161 25.4334V13.5711H11.0938V10.4325H3.41935V3.63646H13.4108V0.510254H0.244141ZM19.1238 5.57643C19.6765 5.57643 20.2066 5.35512 20.5974 4.96118C20.9883 4.56723 21.2079 4.03294 21.2079 3.47582C21.2079 2.9187 20.9883 2.38441 20.5974 1.99047C20.2066 1.59652 19.6765 1.37521 19.1238 1.37521C18.571 1.37521 18.0409 1.59652 17.6501 1.99047C17.2592 2.38441 17.0396 2.9187 17.0396 3.47582C17.0396 4.03294 17.2592 4.56723 17.6501 4.96118C18.0409 5.35512 18.571 5.57643 19.1238 5.57643ZM17.5178 8.70263V25.4334H20.7052V8.70263H17.5178Z" fill="#838383"/>
<path fill-rule="evenodd" clip-rule="evenodd" d="M32.4866 8.22071C28.2693 8.22071 25.327 11.8165 25.327 16.0918C25.327 20.3672 28.2693 23.9629 32.4866 23.9629C34.4236 23.9629 36.0173 23.2215 37.1819 21.9859V24.2101C37.19 24.8746 37.0674 25.5342 36.821 26.1507C36.5747 26.7672 36.2095 27.3284 35.7467 27.8018C35.2838 28.2752 34.7325 28.6514 34.1245 28.9087C33.5165 29.1661 32.864 29.2994 32.2046 29.3009C31.187 29.3009 30.1818 28.9055 29.3849 28.3371L27.7912 31.1174C29.0235 31.9203 30.448 32.373 31.9144 32.4279C33.3808 32.4828 34.8347 32.1377 36.1227 31.4291C37.4107 30.7205 38.4851 29.6747 39.2326 28.402C39.98 27.1292 40.3728 25.6767 40.3694 24.1977V8.71498H37.1819V10.2101C36.0173 8.97446 34.4236 8.23307 32.4866 8.23307V8.22071ZM28.5022 16.0918C28.5022 13.4352 30.5128 11.3469 32.8421 11.3469C35.1714 11.3469 37.1697 13.4475 37.1697 16.0918C37.1697 18.7485 35.1591 20.8244 32.8421 20.8244C30.5128 20.8244 28.5022 18.7485 28.5022 16.0918Z" fill="#838383"/>
<path d="M51.8197 11.347C50.9081 11.3632 50.0395 11.7405 49.4017 12.3972C48.7639 13.0539 48.4082 13.9373 48.4116 14.8562V25.4334H45.2241V8.70269H48.4116V10.2349C48.8885 9.59785 49.508 9.08337 50.2195 8.73336C50.9311 8.38335 51.7146 8.20773 52.5063 8.22079C54.7375 8.22079 56.4538 9.33288 57.4346 11.0381C57.9817 10.1832 58.7306 9.47847 59.6142 8.98682C60.4978 8.49516 61.4885 8.23197 62.4978 8.22079C66.1143 8.22079 68.3823 11.1616 68.3823 14.8068V25.4334H65.2194V14.8439C65.2227 13.9249 64.8671 13.0416 64.2293 12.3848C63.5915 11.7281 62.7228 11.3509 61.8112 11.3346C60.8996 11.3509 60.031 11.7281 59.3932 12.3848C58.7554 13.0416 58.3997 13.9249 58.4031 14.8439V25.4211H55.2156V14.8439C55.219 13.927 54.8651 13.0455 54.2299 12.3891C53.5947 11.7327 52.7292 11.3541 51.8197 11.3346V11.347Z" fill="#838383"/>
<path fill-rule="evenodd" clip-rule="evenodd" d="M85.3372 10.6056C84.6134 9.84485 83.7433 9.24099 82.7799 8.83094C81.8166 8.42088 80.7804 8.21325 79.7347 8.22076C75.0025 8.22076 71.6434 12.249 71.6434 17.068C71.6434 21.8871 75.0025 25.9153 79.7347 25.9153C80.7801 25.9207 81.8156 25.712 82.7786 25.3021C83.7417 24.8922 84.6121 24.2895 85.3372 23.5305V25.4334H88.5125V8.70267H85.325V10.6056H85.3372ZM74.8186 17.068C74.8186 13.88 77.246 11.347 80.0779 11.347C82.8976 11.347 85.3372 13.88 85.3372 17.068C85.3372 20.256 82.9099 22.7767 80.0779 22.7767C77.2583 22.7767 74.8186 20.256 74.8186 17.068Z" fill="#838383"/>
</svg>
