<svg width="98" height="32" viewBox="0 0 98 32" fill="none" xmlns="http://www.w3.org/2000/svg">
<path d="M7.17257 20.9913H0.568278V24.2932H7.17257V20.9913Z" fill="#838383"/>
<path d="M17.076 20.9913H10.4759V24.2932H17.076V20.9913Z" fill="#838383"/>
<path d="M17.0778 14.3878H0.564453V17.6897H17.0778V14.3878Z" fill="#838383"/>
<path d="M10.4757 7.78484H0.568281V11.0865H10.4757V7.78484Z" fill="#838383"/>
<path d="M17.0795 7.78484H13.7774V11.0865H17.0795V7.78484Z" fill="#838383"/>
<path d="M65.0175 7.76601C59.7142 7.76601 56.9752 11.5159 56.9752 16.1417C56.9752 20.7678 59.6467 24.5181 65.0175 24.5181C70.3883 24.5181 73.0598 20.7678 73.0598 16.1417C73.06 11.5159 70.3206 7.76601 65.0175 7.76601ZM69.0297 16.1567C69.026 19.1314 68.0235 21.5407 65.0175 21.5407C62.0115 21.5407 61.0089 19.1316 61.0057 16.1567V16.1419C61.0089 13.1675 62.0117 10.7584 65.0177 10.7584C68.0235 10.7584 69.026 13.1675 69.0297 16.1419V16.1494C69.0297 16.1519 69.0297 16.1542 69.0297 16.1567Z" fill="#838383"/>
<path d="M41.2715 24.2929V1.13514C41.2715 1.13514 44.3263 0.701264 44.5631 0.669395C44.8315 0.633152 45.1877 0.824158 45.1877 1.2018V9.78645C45.8216 9.18385 46.5197 8.69811 47.2804 8.32797C48.0418 7.95825 48.9347 7.77307 49.9604 7.77307C50.8485 7.77307 51.6353 7.92367 52.3223 8.22507C53.0098 8.52585 53.5833 8.9491 54.043 9.49296C54.5028 10.0376 54.8517 10.6875 55.0896 11.4432C55.3273 12.1989 55.4463 13.0313 55.4463 13.9403V24.2927H51.5299V13.9403C51.5299 12.9469 51.2999 12.1779 50.8402 11.6332C50.3802 11.0891 49.6905 10.8169 48.7705 10.8169C48.0941 10.8169 47.4602 10.9702 46.8686 11.277C46.2764 11.5836 45.7162 12.0006 45.1877 12.5295V24.2929H41.2715Z" fill="#838383"/>
<path d="M93.5553 24.5159C90.8603 24.5159 89.1712 22.9477 89.1712 20.022V11.3511H86.134C86.134 11.3511 86.7796 9.11859 86.8306 8.94279C86.8818 8.7672 87.0154 8.57848 87.2835 8.5412C87.5516 8.50391 89.1675 8.27854 89.1675 8.27854L89.9139 3.53067C89.9139 3.53067 92.1069 3.22156 92.4545 3.1697C92.7829 3.12054 93.0805 3.35696 93.0805 3.7146V8.27854H96.9219V11.3511H93.0805V19.9051C93.0805 21.073 93.7917 21.5194 94.4734 21.5194C94.89 21.5194 95.4606 21.2982 95.8864 21.1007C96.1495 20.9791 96.5571 21.0693 96.6626 21.4365C96.7557 21.7619 97.2508 23.4888 97.2508 23.4888C96.8236 23.7646 95.4731 24.5159 93.5553 24.5159Z" fill="#838383"/>
<path d="M83.9828 11.4029C83.2195 11.155 81.7848 10.7582 80.4202 10.7582C79.0296 10.7582 77.9355 11.2385 77.9355 12.3946C77.9355 13.8385 80.2935 14.2588 81.9075 14.8474C82.9866 15.2409 85.8804 16.008 85.8804 19.12C85.8804 22.9001 82.7408 24.5163 79.3917 24.5163C76.0422 24.5163 74.0633 23.2707 74.0633 23.2707C74.0633 23.2707 74.5829 21.4356 74.6881 21.0734C74.7833 20.7474 75.1622 20.633 75.4037 20.7257C76.2657 21.0579 77.8222 21.5197 79.5817 21.5197C81.363 21.5197 82.2248 20.9759 82.2248 19.8165C82.2248 18.2735 79.8194 17.8019 78.2284 17.3001C77.1325 16.9547 74.2317 16.1493 74.2317 12.7268C74.2317 9.35533 77.1925 7.77354 80.3568 7.77354C83.0354 7.77354 84.3492 8.33364 85.3306 8.83355C85.3306 8.83355 84.7838 10.7392 84.7025 11.0231C84.6067 11.3606 84.3299 11.5153 83.9828 11.4029Z" fill="#838383"/>
<path d="M39.7434 8.33168C39.7434 7.96695 39.4317 7.75824 39.1345 7.7922C37.8202 7.94279 36.8826 8.56122 36.2759 9.13694C35.0848 8.20378 33.4314 7.75824 31.5757 7.75824C27.8551 7.75824 24.9483 9.55374 24.9483 13.4688C24.9483 15.7163 25.9051 17.265 27.4245 18.1767C26.2961 18.7108 25.5445 19.8441 25.5445 20.9583C25.5445 22.8221 27.0171 23.4057 27.0171 23.4057C27.0171 23.4057 24.4422 24.6553 24.4422 27.1553C24.4422 30.3555 27.3876 31.6494 30.9868 31.6494C36.1747 31.6494 39.744 29.5069 39.744 25.5728C39.744 23.1516 37.891 21.815 33.853 21.6561C31.4567 21.5615 29.9045 21.4753 29.52 21.348C29.0119 21.1793 28.7621 20.7725 28.7621 20.3234C28.7621 19.8277 29.1694 19.3557 29.8114 19.0316C30.3714 19.1307 30.9624 19.1797 31.5761 19.1797C35.2998 19.1797 38.2037 17.3894 38.2037 13.4691C38.2037 12.5184 38.0321 11.6931 37.72 10.9881C38.267 10.6962 38.9401 10.4909 39.7438 10.4909C39.7438 10.4909 39.7434 8.66432 39.7434 8.33168ZM29.4902 24.3135C29.4902 24.3135 31.444 24.3874 33.3964 24.4778C35.5897 24.5793 36.2732 25.0519 36.2732 26.1875C36.2732 27.575 34.3671 28.9245 31.7034 28.9245C29.1748 28.9245 27.9118 28.0449 27.9118 26.5804C27.9118 25.7401 28.3555 24.8001 29.4902 24.3135ZM31.5827 16.4468C29.8202 16.4468 28.4451 15.5108 28.4451 13.4688C28.4451 11.4267 29.8214 10.4907 31.5827 10.4907C33.3443 10.4907 34.7204 11.4242 34.7204 13.4688C34.7204 15.5135 33.3459 16.4468 31.5827 16.4468Z" fill="#838383"/>
</svg>
