<svg width="22" height="21" viewBox="0 0 22 21" fill="none" xmlns="http://www.w3.org/2000/svg">
<path d="M5.24777 20.1318V6.62537H0.762428V20.1318H5.24824H5.24777ZM3.00604 4.78161C4.56984 4.78161 5.54342 3.74448 5.54342 2.44835C5.51415 1.12269 4.56984 0.114502 3.03578 0.114502C1.50066 0.114502 0.498047 1.12269 0.498047 2.44823C0.498047 3.74436 1.47127 4.7815 2.97665 4.7815H3.00569L3.00604 4.78161ZM7.73048 20.1318H12.2155V12.59C12.2155 12.1869 12.2447 11.7827 12.3632 11.4948C12.6873 10.6879 13.4253 9.85268 14.6647 9.85268C16.2873 9.85268 16.9367 11.0911 16.9367 12.907V20.1318H21.4216V12.3876C21.4216 8.2392 19.2092 6.30872 16.2582 6.30872C13.8389 6.30872 12.7763 7.66216 12.186 8.58398H12.2158V6.62584H7.73071C7.78925 7.8929 7.73036 20.1323 7.73036 20.1323L7.73048 20.1318Z" fill="white"/>
</svg>
