<svg width="134" height="17" viewBox="0 0 134 17" fill="none" xmlns="http://www.w3.org/2000/svg">
<g clip-path="url(#clip0_918_8910)">
<path d="M124.7 0V2.5C128 2.5 130.7 5.2 130.7 8.5C130.7 11.8 128 14.5 124.7 14.5V17C129.4 17 133.2 13.2 133.2 8.5C133.2 3.8 129.4 0 124.7 0Z" fill="#90FF03"/>
<path d="M20.6998 7.4C22.5998 7 23.7998 5.8 23.7998 4C23.7998 1.5 21.9998 0 19.0998 0H12.2998V17H19.1998C22.8998 17 24.9998 15.1 24.9998 12C25.0998 9.5 23.4998 7.8 20.6998 7.4ZM14.9998 2.2H18.3998C20.0998 2.2 21.1998 3.2 21.1998 4.8C21.1998 6.4 20.1998 7.3 18.3998 7.3H14.9998V2.2ZM19.3998 14.8H14.9998V9.3H19.3998C21.2998 9.3 22.3998 10.3 22.3998 12.1C22.3998 13.8 21.1998 14.8 19.3998 14.8Z" fill="white"/>
<path d="M34.5 9.9C37.5 9.5 39.3 7.7 39.3 4.8C39.3 1.8 37 0 33.2 0H27V17H29.7V10H33L37 17H40L37 12C36.4 11 35.5 10.2 34.5 9.9ZM29.6 7.9V2.2H33.4C35.4 2.2 36.6 3.3 36.6 5C36.6 6.9 35.4 7.9 33.4 7.9H29.6Z" fill="white"/>
<path d="M69.8998 14.5L63.6998 0.1L63.5998 0H59.2998V17H61.7998V2.5L67.9998 16.9V17H72.3998V0H69.8998V14.5Z" fill="white"/>
<path d="M41.2998 17H43.9998L49.5998 0H46.8998L41.2998 17Z" fill="white"/>
<path d="M49.5996 0L55.2996 17H57.9996L52.3996 0H49.5996Z" fill="white"/>
<path d="M80.4004 0H74.9004V2.5H80.4004C83.4004 2.5 85.9004 5.2 85.9004 8.5C85.9004 11.8 83.5004 14.5 80.4004 14.5H74.9004V17H80.4004C84.8004 17 88.4004 13.2 88.4004 8.5C88.4004 3.8 84.8004 0 80.4004 0Z" fill="white"/>
<path d="M89.5996 8.5C89.5996 13.2 93.1996 17 97.5996 17H103.1V14.5H97.5996C94.9996 14.5 92.7996 12.5 92.2996 9.8H100.6V7.2H92.2996C92.7996 4.5 94.9996 2.5 97.5996 2.5H103.1V0H97.5996C93.1996 0 89.5996 3.8 89.5996 8.5Z" fill="white"/>
<path d="M120.9 2.5V0C117.5 0 114.6 2 113.2 4.8C111.9 2 109 0 105.6 0V2.5C108.9 2.5 111.6 5.2 111.6 8.5C111.6 11.8 108.9 14.5 105.6 14.5V17C109 17 111.9 15 113.3 12.2C114.7 15.1 117.6 17 121 17V14.5C117.7 14.5 115 11.8 115 8.5C114.9 5.2 117.6 2.5 120.9 2.5Z" fill="white"/>
<path d="M8.5 17V14.5C5.2 14.5 2.5 11.8 2.5 8.5C2.5 5.2 5.2 2.5 8.5 2.5V0C3.8 0 0 3.8 0 8.5C0 13.2 3.8 17 8.5 17Z" fill="#90FF03"/>
</g>
<defs>
<clipPath id="clip0_918_8910">
<rect width="133.2" height="17" fill="white"/>
</clipPath>
</defs>
</svg>
