<svg width="158" height="43" viewBox="0 0 158 43" fill="none" xmlns="http://www.w3.org/2000/svg">
<path fill-rule="evenodd" clip-rule="evenodd" d="M72.326 26.5779C71.2287 26.831 70.6611 26.4934 70.6611 25.7667C70.6611 24.771 71.6907 24.3724 73.1617 24.3724C73.8087 24.3724 74.419 24.4283 74.419 24.4283C74.419 24.8545 73.4927 26.3089 72.326 26.5779ZM73.4425 16.609C69.9301 16.609 67.4083 17.9005 67.4083 17.9005V21.697C67.4083 21.697 70.1925 20.0966 72.4513 20.0966C74.2533 20.0966 74.4749 21.0688 74.3932 21.8754C74.3932 21.8754 73.873 21.7378 72.287 21.7378C68.5483 21.7378 66.6618 23.4368 66.6618 26.1606C66.6618 28.7445 68.7821 29.8242 70.5691 29.8242C73.1758 29.8242 74.3223 28.0722 74.674 27.2413C74.9186 26.6648 74.9637 26.2761 75.1825 26.2761C75.4336 26.2761 75.3491 26.5549 75.3365 27.1286C75.3158 28.1337 75.3637 28.8933 75.5229 29.5336H78.9798V23.3161C78.9798 19.4342 77.6061 16.609 73.4425 16.609Z" fill="#838383"/>
<path fill-rule="evenodd" clip-rule="evenodd" d="M96.1953 23.2229C96.1953 22.0873 97.2512 21.0531 99.1894 21.0531C101.301 21.0531 103 22.0699 103.381 22.3009V17.9058C103.381 17.9058 102.039 16.6139 98.7405 16.6139C95.2638 16.6139 92.3683 18.648 92.3683 23.0267C92.3683 27.4048 94.9962 29.8329 98.7311 29.8329C101.649 29.8329 103.388 28.2297 103.388 28.2297V24.0557C102.838 24.3632 101.305 25.4275 99.2105 25.4275C96.993 25.4275 96.1953 24.4069 96.1953 23.2229ZM49.9908 16.9017C49.9913 16.9045 50.2115 17.849 49.9214 19.0842C49.7735 19.7123 49.5016 20.2465 49.8298 20.2465C50.0561 20.2465 50.0566 20.0588 50.351 19.3856C50.7815 18.4016 51.6891 16.6106 53.8098 16.6106C55.8259 16.6106 56.7757 17.8354 57.0903 18.9823C57.3298 19.8536 57.1203 20.2465 57.4124 20.2465C57.6199 20.2465 57.6917 19.7945 57.9472 19.2227C58.4059 18.1983 59.4036 16.6106 61.4215 16.6106C64.4663 16.6106 65.6288 18.8091 65.6288 22.107V29.5381H61.1055V22.6873C61.1055 21.5451 60.921 20.4371 59.8797 20.4371C58.9148 20.4371 58.465 22.1469 58.465 23.2506V29.5409H53.8587V22.6877C53.8587 21.2263 53.6525 20.4376 52.6253 20.4376C51.736 20.4376 51.2172 22.0108 51.2172 23.2511V29.5385H46.6292V16.9017H49.9908ZM80.4855 16.919C80.4874 16.92 81.2682 17.3702 82.7838 17.3702C84.3021 17.3702 85.0731 16.919 85.0731 16.919V29.5413H80.4855V16.919ZM118.36 16.919C118.362 16.92 119.143 17.3702 120.659 17.3702C122.177 17.3702 122.948 16.919 122.948 16.919V29.5413H118.36V16.919ZM91.1457 13.076V29.5413H86.5577V13.076H91.1457ZM108.833 13.076C108.834 13.0775 109.023 13.5507 109.023 14.9581C109.023 17.0364 108.571 18.7278 108.357 19.3724C108.244 19.7137 108.042 20.2404 108.332 20.2498C108.499 20.255 108.6 20.0034 108.804 19.5668C109.008 19.1297 110.019 16.6134 112.674 16.6134C116.332 16.6134 116.87 19.6085 116.87 22.852V29.5409H112.282V22.5774C112.282 21.1493 111.983 20.44 111.025 20.44C109.869 20.44 109.461 22.2295 109.461 23.2539V29.5409H104.873V13.0756L108.833 13.076ZM127.86 16.9017C127.86 16.9045 128.081 17.849 127.79 19.0842C127.643 19.7123 127.371 20.2465 127.699 20.2465C127.925 20.2465 127.926 20.0588 128.22 19.3856C128.65 18.4016 129.558 16.6106 131.679 16.6106C133.787 16.6106 134.623 17.841 134.959 18.9823C135.185 19.747 134.989 20.2465 135.282 20.2465C135.489 20.2465 135.561 19.7945 135.816 19.2227C136.274 18.1983 137.273 16.6106 139.291 16.6106C142.335 16.6106 143.498 18.8091 143.498 22.107V29.5381H138.975V22.6873C138.975 21.5451 138.79 20.4371 137.749 20.4371C136.784 20.4371 136.334 22.1469 136.334 23.2506V29.5409H131.727V22.6877C131.727 21.2263 131.522 20.4376 130.494 20.4376C129.605 20.4376 129.086 22.0108 129.086 23.2511V29.5385H124.498V16.9017H127.86ZM82.7654 12.9483C81.2151 12.9483 79.9573 13.769 79.9573 14.7811C79.9573 15.7933 81.2147 16.6139 82.7654 16.6139C84.3167 16.6139 85.5741 15.7933 85.5741 14.7811C85.5741 13.769 84.3172 12.9483 82.7654 12.9483ZM120.641 12.9483C119.09 12.9483 117.832 13.769 117.832 14.7811C117.832 15.7933 119.09 16.6139 120.641 16.6139C122.192 16.6139 123.449 15.7933 123.449 14.7811C123.449 13.769 122.192 12.9483 120.641 12.9483Z" fill="#838383"/>
<path fill-rule="evenodd" clip-rule="evenodd" d="M151.313 26.8183C150.261 26.8183 149.488 25.4846 149.488 23.626C149.488 21.8209 150.282 20.4346 151.277 20.4346C152.553 20.4346 153.097 21.605 153.097 23.626C153.097 25.7287 152.595 26.8183 151.313 26.8183ZM152.572 16.6062C150.215 16.6062 149.133 18.3737 148.664 19.3807C148.353 20.0459 148.37 20.2417 148.143 20.2417C147.815 20.2417 148.087 19.7074 148.235 19.0793C148.526 17.8423 148.305 16.8972 148.305 16.8972H144.945V33.0198H149.531V27.9084C150.073 28.829 151.078 29.8125 152.628 29.8125C155.945 29.8125 157.614 27.0065 157.614 23.2157C157.614 18.9192 155.617 16.6062 152.573 16.6062" fill="#838383"/>
<path fill-rule="evenodd" clip-rule="evenodd" d="M30.4106 20.4211C30.7191 20.3845 31.0144 20.3826 31.2862 20.4211C31.4435 20.0605 31.4703 19.4394 31.329 18.7629C31.1191 17.7574 30.8346 17.149 30.2467 17.2438C29.6589 17.3386 29.6373 18.0672 29.8476 19.0723C29.966 19.638 30.1763 20.1216 30.4106 20.4211Z" fill="#838383"/>
<path fill-rule="evenodd" clip-rule="evenodd" d="M25.3675 21.2169C25.7877 21.4014 26.0464 21.5239 26.1474 21.4168C26.2127 21.3502 26.1929 21.223 26.0925 21.0591C25.8849 20.7206 25.4582 20.377 25.0051 20.184C24.0792 19.7855 22.9744 19.9179 22.1223 20.53C21.841 20.7361 21.5744 21.0216 21.6124 21.1948C21.6246 21.2507 21.6669 21.2929 21.7655 21.307C21.9974 21.3333 22.8078 20.9239 23.7416 20.8666C24.4003 20.8263 24.9469 21.0324 25.3675 21.2169Z" fill="#838383"/>
<path fill-rule="evenodd" clip-rule="evenodd" d="M24.5236 21.6995C23.9756 21.7859 23.6737 21.9666 23.4798 22.1342C23.3146 22.2788 23.2122 22.4389 23.2132 22.5511C23.2136 22.6046 23.2366 22.6356 23.2549 22.6511C23.2798 22.6732 23.3094 22.6854 23.3451 22.6854C23.4686 22.6854 23.746 22.5741 23.746 22.5741C24.5081 22.3013 25.0109 22.3347 25.5091 22.391C25.7842 22.422 25.9147 22.4389 25.9748 22.3445C25.9927 22.3173 26.0143 22.2586 25.9593 22.1694C25.8311 21.9615 25.2776 21.6098 24.5236 21.6995Z" fill="#838383"/>
<path fill-rule="evenodd" clip-rule="evenodd" d="M28.7088 23.4704C29.0807 23.653 29.4901 23.5812 29.6234 23.3103C29.7568 23.0395 29.5633 22.6714 29.1915 22.4888C28.8196 22.3062 28.4102 22.378 28.2769 22.6489C28.1435 22.9202 28.337 23.2878 28.7088 23.4704Z" fill="#838383"/>
<path fill-rule="evenodd" clip-rule="evenodd" d="M31.0999 21.3819C30.798 21.3768 30.5473 21.7082 30.5403 22.1227C30.5332 22.5373 30.7727 22.8767 31.0746 22.8819C31.3765 22.887 31.6272 22.5556 31.6342 22.141C31.6413 21.727 31.4018 21.3871 31.0999 21.3819Z" fill="#838383"/>
<path fill-rule="evenodd" clip-rule="evenodd" d="M10.8078 28.8508C10.7326 28.7564 10.6092 28.785 10.4894 28.8132C10.4059 28.8329 10.3115 28.8545 10.2077 28.8531C9.98564 28.8489 9.79737 28.754 9.69173 28.5916C9.55416 28.3804 9.56214 28.0654 9.71379 27.7048L9.78469 27.5433C10.027 26.9997 10.4321 26.0903 9.97719 25.2237C9.63445 24.5712 9.07573 24.1651 8.40387 24.0797C7.75876 23.998 7.09487 24.2369 6.67137 24.704C6.00326 25.4411 5.89856 26.4443 6.02767 26.7988C6.07509 26.9283 6.14928 26.9645 6.2028 26.972C6.31642 26.987 6.48451 26.9044 6.58968 26.6213L6.61973 26.5293C6.66668 26.3795 6.754 26.1007 6.8972 25.8772C7.06998 25.6077 7.33855 25.4223 7.65406 25.3542C7.9752 25.2852 8.30386 25.3467 8.57899 25.527C9.04709 25.8331 9.22739 26.4068 9.02738 26.9537C8.92408 27.2368 8.75599 27.778 8.79309 28.2226C8.86821 29.1226 9.42176 29.4841 9.91897 29.5225C10.4026 29.5409 10.7406 29.269 10.8261 29.0709C10.8763 28.9536 10.834 28.8822 10.8063 28.8517" fill="#838383"/>
<path fill-rule="evenodd" clip-rule="evenodd" d="M15.4074 12.3213C16.9849 10.4988 18.9263 8.91443 20.6659 8.02481C20.726 7.99382 20.7898 8.05908 20.7574 8.11823C20.6194 8.36845 20.3532 8.9041 20.2691 9.31018C20.256 9.37356 20.325 9.42098 20.3785 9.38483C21.4608 8.64731 23.343 7.85674 24.9943 7.75534C25.0652 7.75111 25.0994 7.84172 25.0431 7.88538C24.7919 8.07786 24.5173 8.34451 24.3168 8.61398C24.2825 8.65999 24.3149 8.72571 24.3722 8.72618C25.5314 8.73463 27.1658 9.14024 28.2311 9.73786C28.3029 9.77823 28.2517 9.91766 28.171 9.89935C26.5592 9.52989 23.921 9.24963 21.18 9.91813C18.7334 10.5148 16.8657 11.4364 15.5036 12.4269C15.4346 12.4771 15.3515 12.3856 15.4074 12.3213ZM23.2632 29.9785L23.2637 29.9795L23.2646 29.9814L23.2632 29.9785ZM29.7678 30.7461C29.8147 30.7264 29.8467 30.6733 29.8415 30.6203C29.8349 30.555 29.7767 30.5076 29.7114 30.5142C29.7114 30.5142 26.3455 31.0123 23.1655 29.8485C23.512 28.7227 24.4327 29.1293 25.8248 29.2415C28.3339 29.3912 30.5829 29.0246 32.2449 28.5476C33.6849 28.1345 35.5766 27.3195 37.0457 26.16C37.541 27.2482 37.7161 28.4462 37.7161 28.4462C37.7161 28.4462 38.0997 28.3777 38.4204 28.5749C38.7232 28.7612 38.9453 29.1485 38.7936 30.1504C38.4847 32.0216 37.6894 33.5408 36.3522 34.9383C35.5381 35.8144 34.5502 36.5758 33.4196 37.1298C32.8191 37.4453 32.1801 37.718 31.5045 37.9382C26.4638 39.5846 21.3039 37.7748 19.6409 33.8886C19.5081 33.5966 19.3958 33.2906 19.3076 32.9709C18.5991 30.41 19.2005 27.3374 21.0814 25.4032C21.1974 25.2802 21.3157 25.1342 21.3157 24.9516C21.3157 24.799 21.2185 24.638 21.1344 24.5234C20.4762 23.569 18.1967 21.9428 18.6545 18.7956C18.9832 16.5347 20.9607 14.9423 22.8045 15.0366L23.2717 15.0634C24.0708 15.1108 24.7675 15.2131 25.4253 15.2408C26.5263 15.2887 27.516 15.1286 28.6889 14.1517C29.0842 13.8221 29.4016 13.5362 29.9382 13.4456C29.9946 13.4358 30.1349 13.3855 30.4152 13.3987C30.7016 13.4142 30.974 13.4926 31.2186 13.6555C32.1585 14.2808 32.2919 15.7957 32.3407 16.9037C32.3684 17.536 32.4449 19.0665 32.4712 19.5059C32.5308 20.5105 32.7952 20.6518 33.3295 20.8279C33.63 20.9269 33.9089 21.0006 34.3201 21.1161C35.5644 21.4654 36.3019 21.8198 36.7672 22.2752C37.0447 22.5597 37.1738 22.862 37.2137 23.1503C37.3602 24.2206 36.3827 25.5426 33.7943 26.744C30.965 28.057 27.5324 28.3894 25.161 28.1251L24.3299 28.0312C22.4331 27.7758 21.3509 30.2269 22.4894 31.9066C23.2233 32.9892 25.222 33.6933 27.2216 33.6938C31.8064 33.6943 35.3305 31.7367 36.6414 30.0461L36.7461 29.8968C36.8109 29.7997 36.7574 29.7462 36.6771 29.8011C35.6061 30.5339 30.8491 33.4431 25.7605 32.5676C25.7605 32.5676 25.1422 32.4657 24.5778 32.2465C24.1294 32.0718 23.1904 31.6399 23.0763 30.6771C27.1827 31.947 29.7678 30.7461 29.7678 30.7461ZM7.21301 20.9884C5.78476 21.2659 4.52601 22.0752 3.75648 23.1935C3.29636 22.8099 2.4395 22.0672 2.28785 21.7776C1.05915 19.4444 3.62877 14.9085 5.42418 12.3466C9.86104 6.016 16.8098 1.22424 20.0264 2.09368C20.5494 2.24156 22.2815 4.24943 22.2815 4.24943C22.2815 4.24943 19.0658 6.03337 16.0839 8.52008C12.0659 11.6133 9.03142 16.1093 7.21301 20.9884ZM9.61267 31.6944C9.3967 31.7315 9.17603 31.746 8.95348 31.7404C6.80454 31.6827 4.48375 29.7485 4.25322 27.4547C3.99828 24.9192 5.29412 22.9681 7.58815 22.5052C7.86234 22.4498 8.19381 22.4179 8.55111 22.4367C9.83663 22.5071 11.7306 23.4939 12.1631 26.2938C12.5462 28.7734 11.9377 31.2982 9.61267 31.6944ZM38.7204 27.2045C38.7021 27.1392 38.5819 26.7013 38.4171 26.1731C38.2523 25.6445 38.0819 25.2732 38.0819 25.2732C38.7429 24.284 38.7547 23.3991 38.6664 22.8982C38.5725 22.2771 38.3138 21.748 37.7926 21.2006C37.2715 20.6537 36.2052 20.0932 34.707 19.6725L33.9211 19.4542C33.9173 19.4218 33.8797 17.6013 33.8459 16.8196C33.8211 16.2544 33.7727 15.3723 33.499 14.5038C33.1727 13.3278 32.6046 12.2987 31.8951 11.6406C33.853 9.61157 35.0751 7.37602 35.0718 5.45875C35.0662 1.77116 30.5368 0.655264 24.9548 2.9664L23.7721 3.46825C23.767 3.46309 21.634 1.37072 21.6021 1.34255C15.2379 -4.20785 -4.65995 17.9069 1.70144 23.278L3.09166 24.4558C2.73107 25.3901 2.58928 26.4604 2.70525 27.6111C2.85361 29.0894 3.6161 30.5062 4.85232 31.601C6.02562 32.6404 7.56843 33.2985 9.06522 33.2971C11.5409 39.0015 17.1976 42.5008 23.8299 42.698C30.9444 42.9093 36.9165 39.5714 39.419 33.5755C39.5829 33.1549 40.2773 31.2587 40.2773 29.5847C40.2773 27.9026 39.3261 27.2045 38.7204 27.2045Z" fill="#838383"/>
</svg>
