<svg width="136" height="22" viewBox="0 0 136 22" fill="none" xmlns="http://www.w3.org/2000/svg">
<path d="M10.475 0.961823C16.08 0.961823 20.6454 5.52668 20.6454 11.1763C20.6454 16.8258 16.08 21.3907 10.475 21.3907C4.87005 21.3907 0.304688 16.871 0.304688 11.1763C0.304688 5.48148 4.87005 0.961823 10.475 0.961823ZM90.2106 0.73584V18.6337C90.2106 19.9896 90.753 20.3512 91.7927 20.6223L91.8379 20.8483H86.0973V18.6337C85.4192 20.2608 84.018 21.2551 82.2099 21.2551C79.1362 21.2551 77.1021 18.4529 77.1021 14.2948C77.1021 11.9446 77.7802 9.95595 79.0458 8.46446C80.2663 7.01817 81.9387 6.24982 83.792 6.24982C84.696 6.24982 85.4644 6.43061 86.0973 6.83738V4.39676C86.0973 3.8544 85.9617 3.49283 85.6905 3.22165C85.3288 2.90528 84.7412 2.76969 83.8372 2.86008H83.792V2.6341L90.2106 0.73584ZM111.998 6.29502V18.6337C111.998 19.9896 112.54 20.3512 113.58 20.6223V20.8483H107.839V18.5885C107.161 20.2156 105.67 21.2551 103.997 21.2551C102.008 21.2551 100.743 20.3512 100.245 18.5885L100.155 18.1365C100.065 17.6846 100.019 17.2326 100.019 16.7806V10.1819C100.019 8.73564 99.7029 8.28367 98.4373 8.19328H98.3921V7.9673L104.133 6.29502V16.6902C104.133 18.2269 104.811 19.0857 106.076 19.0857C106.845 19.0857 107.478 18.6789 107.839 18.0009V10.1819C107.839 8.69044 107.568 8.23847 106.528 8.14808H106.483V7.9221L111.998 6.29502ZM70.5479 6.24982C72.0848 6.24982 73.5764 6.79218 74.5709 7.74131C75.7009 8.82603 76.2885 10.4079 76.3337 12.487V12.5322H67.7002C67.5194 15.5151 69.3727 17.9557 71.8136 18.0461C73.5764 18.1817 75.1133 17.097 75.9721 15.3343L76.1981 15.4247C75.7009 18.7241 73.7572 21.2099 70.3671 21.2099C66.525 21.2099 64.3553 18.0009 64.2649 13.9784V12.9389C64.4457 11.1763 64.9881 9.59437 65.9374 8.41926C66.525 7.69611 67.203 7.15376 68.0166 6.79218C68.6947 6.43061 69.6891 6.24982 70.5027 6.24982H70.5479ZM130.35 6.29502C132.79 6.29502 134.282 7.83171 134.282 10.4531V18.8597C134.282 19.854 134.734 20.3512 135.864 20.6223H135.909V20.8483H130.124V10.5887C130.124 8.96162 129.536 8.14808 128.316 8.14808C127.321 8.14808 126.824 8.87123 126.553 9.50398C126.598 9.82036 126.643 10.1367 126.643 10.4531V18.9953C126.643 20.0348 126.959 20.3964 127.864 20.6223H127.909V20.8483H122.53V10.5887C122.53 8.96162 121.897 8.14808 120.722 8.14808C119.772 8.14808 119.275 8.82603 119.049 9.36839V19.0405C119.049 20.08 119.366 20.4416 120.27 20.6675H120.315V20.8935H114.936V10.1367C114.936 8.69044 114.574 8.23847 113.354 8.14808H113.309V7.9221L119.049 6.34022V8.73564C119.637 7.19895 120.993 6.29502 122.711 6.29502C124.654 6.29502 126.01 7.24415 126.462 8.96162C127.05 7.33454 128.542 6.29502 130.35 6.29502ZM47.9019 1.63977L53.2809 14.2496L58.6599 1.63977H64.4457L64.4005 1.86575L64.3348 1.88037C63.338 2.10753 62.8185 2.48024 62.8185 3.71882V19.0857C62.9089 20.08 63.4513 20.3964 64.4005 20.6223H64.4457V20.8483H57.0779V20.6223H57.1231C58.0723 20.3964 58.6147 20.08 58.7051 19.0857V4.12558L51.6085 20.8031H51.2017L44.2858 4.57755V18.7241C44.2858 19.9896 44.8282 20.3512 45.8679 20.5771H45.9131V20.8031H41.6641V20.5771H41.7093C42.749 20.3512 43.2914 19.9896 43.2914 18.7241V3.71882C43.2914 2.45331 42.749 2.09174 41.7093 1.86575H41.6641V1.63977H47.9019ZM97.2169 6.29502V18.6337L97.2176 18.7171C97.2397 20.0046 97.7809 20.3568 98.7989 20.6223L98.8441 20.8483H93.1035V10.1819C93.1035 8.73564 92.7871 8.28367 91.5215 8.19328H91.4763V7.9673L97.2169 6.29502ZM26.7476 1.54938C29.5049 1.54938 31.8102 5.88825 31.8102 11.1763C31.8102 16.5094 29.5501 20.8031 26.7476 20.8031C23.9451 20.8031 21.685 16.5094 21.685 11.1763C21.685 5.84305 23.9451 1.54938 26.7476 1.54938ZM34.5223 2.5437C35.5619 2.5437 36.3303 6.43061 36.3303 11.1763C36.3303 15.9219 35.5167 19.8088 34.5223 19.8088C33.5378 19.8088 32.7305 15.9992 32.7145 11.3184L32.7142 11.1763C32.7142 6.43061 33.5278 2.5437 34.5223 2.5437ZM84.47 7.06336C82.6619 7.06336 81.5319 9.45878 81.5319 13.1649C81.5319 14.9276 81.8483 16.4643 82.3907 17.5038C82.8879 18.4981 83.6112 19.0405 84.4248 19.0405C85.2384 19.0405 85.826 18.6789 86.0973 18.0009V8.05769C85.7808 7.42494 85.1932 7.06336 84.47 7.06336ZM70.5027 7.10856C68.8755 7.10856 67.9262 9.05201 67.7906 11.7638V11.809H72.7176C72.808 9.68476 72.4464 8.28367 71.7684 7.60572C71.4068 7.28935 70.9999 7.10856 70.5027 7.10856ZM95.002 0.87143C96.3128 0.87143 97.3073 1.86575 97.3073 3.17646C97.3073 4.48716 96.3128 5.48148 95.002 5.48148C93.6911 5.48148 92.6967 4.48716 92.6967 3.17646C92.6967 1.86575 93.6911 0.87143 95.002 0.87143Z" fill="#838383"/>
</svg>
