<svg width="121" height="33" viewBox="0 0 121 33" fill="none" xmlns="http://www.w3.org/2000/svg">
<path d="M42.3656 27.6502V13.9842H42.6091L52.5577 27.6502H55.6884V7.58145H52.2099V21.2131H51.9664L42.0177 7.58145H38.887V27.6502H42.3656ZM65.5327 27.96C70.1244 27.96 72.942 24.9996 72.942 20.0427C72.942 15.1201 70.1244 12.1253 65.5327 12.1253C60.9758 12.1253 58.1234 15.1201 58.1234 20.0427C58.1582 24.9996 60.941 27.96 65.5327 27.96ZM65.5327 25.0685C63.0977 25.0685 61.7063 23.244 61.7063 20.0427C61.7063 16.8757 63.0977 15.0169 65.5327 15.0169C67.9677 15.0169 69.3591 16.8757 69.3591 20.0427C69.3591 23.244 67.9677 25.0685 65.5327 25.0685ZM76.1075 8.71741V12.5384H73.6725V15.2923H76.1075V23.5883C76.1075 26.5487 77.4989 27.7191 81.047 27.7191C81.708 27.7191 82.3689 27.6502 82.8907 27.5469V24.8619C82.4732 24.8963 82.195 24.9308 81.708 24.9308C80.247 24.9308 79.586 24.2767 79.586 22.7621V15.2923H82.8907V12.5384H79.586V8.71741H76.1075ZM84.9778 27.6502H88.4563V12.4351H84.9778V27.6502ZM86.7171 9.92223C87.865 9.92223 88.8042 8.9928 88.8042 7.85683C88.8042 6.68644 87.865 5.75702 86.7171 5.75702C85.5691 5.75702 84.6299 6.68644 84.6299 7.85683C84.6299 8.9928 85.5691 9.92223 86.7171 9.92223ZM97.9876 27.96C102.579 27.96 105.397 24.9996 105.397 20.0427C105.397 15.1201 102.579 12.1253 97.9876 12.1253C93.4307 12.1253 90.5783 15.1201 90.5783 20.0427C90.5783 24.9996 93.3611 27.96 97.9876 27.96ZM97.9876 25.0685C95.5526 25.0685 94.1612 23.244 94.1612 20.0427C94.1612 16.8757 95.5526 15.0169 97.9876 15.0169C100.388 15.0169 101.814 16.8757 101.814 20.0427C101.779 23.244 100.388 25.0685 97.9876 25.0685ZM107.449 27.6502H110.928V18.8034C110.928 16.5659 112.25 15.1546 114.302 15.1546C116.424 15.1546 117.398 16.325 117.398 18.6313V27.6502H120.876V17.8052C120.876 14.1563 118.998 12.1253 115.589 12.1253C113.293 12.1253 111.763 13.158 111.032 14.8792H110.789V12.4351H107.414C107.449 12.4351 107.449 27.6502 107.449 27.6502Z" fill="#838383"/>
<path fill-rule="evenodd" clip-rule="evenodd" d="M5.53368 6.29696C6.54612 7.11363 6.91232 7.04916 8.80794 6.92021L26.6656 5.84564C27.0533 5.84564 26.7302 5.4588 26.601 5.41581L23.6283 3.28817C23.0682 2.85834 22.2927 2.34255 20.8495 2.4715L3.57343 3.73949C2.94874 3.80396 2.81949 4.12633 3.07798 4.36274L5.53368 6.29696ZM6.61074 10.4448V29.1853C6.61074 30.1954 7.10619 30.5607 8.24787 30.4962L27.8719 29.3572C29.0136 29.2927 29.1428 28.605 29.1428 27.7883V9.1768C29.1428 8.36013 28.8197 7.90881 28.1304 7.97328L7.62318 9.1768C6.86923 9.24128 6.61074 9.62812 6.61074 10.4448ZM25.9763 11.4549C26.1055 12.0137 25.9763 12.5939 25.4162 12.6584L24.4684 12.8518V26.6923C23.6498 27.1221 22.8959 27.38 22.2497 27.38C21.2372 27.38 20.9787 27.0576 20.2248 26.112L14.0425 16.4194V25.7896L16.0027 26.2195C16.0027 26.2195 16.0027 27.3585 14.4302 27.3585L10.0789 27.6164C9.94963 27.3585 10.0789 26.7352 10.5097 26.6063L11.6514 26.2839V13.9049L10.0789 13.776C9.94963 13.2172 10.2727 12.4005 11.1559 12.336L15.8304 12.0137L22.2712 21.8137V13.1527L20.6341 12.9593C20.5048 12.2716 21.0218 11.7558 21.6465 11.6913L25.9763 11.4549ZM2.13017 2.02018L20.1171 0.709204C22.3143 0.515782 22.8959 0.64473 24.2745 1.65482L30.0045 5.67371C30.9523 6.36143 31.2754 6.55486 31.2754 7.30705V29.3787C31.2754 30.7541 30.78 31.5708 29.0136 31.6997L8.14017 32.9677C6.80461 33.0322 6.17992 32.8388 5.4906 31.9576L1.24698 26.4773C0.49304 25.4673 0.169922 24.7151 0.169922 23.8339V4.2123C0.169922 3.07325 0.68691 2.14912 2.13017 2.02018Z" fill="#838383"/>
</svg>
