<svg width="41" height="21" viewBox="0 0 41 21" fill="none" xmlns="http://www.w3.org/2000/svg">
<path d="M49.2947 7.47711V19.9506H46.4135V0.433366L59.3071 13.4592V0.918906H62.1899V20.5074L49.2947 7.47711ZM79.1625 0.15332C73.5217 0.15332 68.9343 4.77923 68.9343 10.4696C68.9343 16.1573 73.5217 20.7829 79.1625 20.7829C84.8016 20.7829 89.3911 16.1573 89.3911 10.4696C89.3911 4.77923 84.8016 0.15332 79.1625 0.15332ZM79.1625 17.8534C75.1644 17.8534 71.9091 14.5403 71.9091 10.4696C71.9091 6.39841 75.1644 3.08584 79.1625 3.08584C83.1623 3.08584 86.414 6.39841 86.414 10.4696C86.414 14.5404 83.1623 17.8534 79.1625 17.8534ZM29.4312 0.15332C23.7906 0.15332 19.2029 4.77923 19.2029 10.4696C19.2029 16.1573 23.7906 20.7829 29.4312 20.7829C35.073 20.7829 39.6594 16.1573 39.6594 10.4696C39.6594 4.77923 35.0731 0.15332 29.4312 0.15332ZM29.4312 17.8534C25.4315 17.8534 22.1802 14.5403 22.1802 10.4696C22.1802 6.39841 25.4315 3.08584 29.4312 3.08584C33.4297 3.08584 36.6843 6.39841 36.6843 10.4696C36.6844 14.5404 33.4297 17.8534 29.4312 17.8534ZM6.65665 11.9187L6.64499 11.9138C4.71921 11.297 3.43016 10.6891 2.45897 9.94046C1.0707 8.87398 0.365234 7.51299 0.365234 5.89617C0.365234 4.38203 1.06341 2.90647 2.28003 1.83965C3.523 0.751417 5.23575 0.15332 7.10121 0.15332C11.006 0.15332 13.2374 2.77721 13.3311 2.88976L10.9617 4.50412C10.413 4.09067 8.97127 3.16252 7.1011 3.16252C4.75228 3.16252 3.34831 4.55221 3.34831 5.89617C3.34831 6.83372 3.85812 7.86467 7.547 9.04864L7.56124 9.051C9.48197 9.66602 10.7757 10.2757 11.7458 11.0222C13.1354 12.091 13.8399 13.452 13.8399 15.0691C13.8399 16.5831 13.1415 18.061 11.9223 19.1256C10.682 20.2117 8.96981 20.8096 7.10233 20.8096C3.19874 20.8096 0.967097 18.1881 0.873701 18.075L3.24494 16.4608C3.79287 16.875 5.23463 17.8028 7.10222 17.8028C9.45204 17.8028 10.8571 16.4159 10.8571 15.0691C10.8575 14.1315 10.349 13.1003 6.65665 11.9187ZM101.047 11.9187L101.034 11.9138C99.1101 11.297 97.8197 10.6891 96.8504 9.94035C95.463 8.87364 94.7545 7.51265 94.7545 5.89583C94.7545 4.3817 95.4546 2.90624 96.6721 1.83942C97.9108 0.751417 99.6219 0.15332 101.492 0.15332C105.397 0.15332 107.63 2.77721 107.725 2.88976L105.352 4.50412C104.805 4.09067 103.363 3.16252 101.492 3.16252C99.1417 3.16252 97.7373 4.55221 97.7373 5.89617C97.7373 6.83372 98.2478 7.86467 101.939 9.04864L101.954 9.051C103.877 9.66602 105.166 10.2757 106.138 11.0222C107.524 12.091 108.23 13.452 108.23 15.0691C108.23 16.5831 107.532 18.061 106.316 19.1256C105.074 20.2117 103.362 20.8096 101.493 20.8096C97.5892 20.8096 95.3593 18.1881 95.265 18.075L97.635 16.4608C98.1845 16.875 99.6222 17.8028 101.493 17.8028C103.845 17.8028 105.246 16.4159 105.246 15.0691C105.246 14.1315 104.738 13.1003 101.047 11.9187Z" fill="#838383"/>
</svg>
