<svg width="101" height="46" viewBox="0 0 101 46" fill="none" xmlns="http://www.w3.org/2000/svg">
<g clip-path="url(#clip0_2269_785)">
<path d="M6.78836 18.88C11.2674 17.3363 12.0298 13.3152 11.458 9.61799C11.458 9.48459 11.5724 9.3893 11.6867 9.42741C15.9752 11.5238 20.7973 16.0976 20.7973 22.9583C20.7973 28.2183 16.7185 32.8683 10.7909 32.8683C8.67578 32.9645 6.58884 32.3536 4.8595 31.1321C3.13015 29.9106 1.85688 28.148 1.24066 26.1226C0.62444 24.0971 0.700357 21.9242 1.45643 19.9467C2.21251 17.9692 3.60568 16.2997 5.41606 15.2019C5.53041 15.1256 5.68289 15.2019 5.68289 15.3353C5.74007 16.0404 5.93067 17.8128 6.71212 18.88H6.78836Z" fill="#838383"/>
<path d="M33.4157 28.6934L33.7397 28.3123L34.7498 31.5139L34.6164 31.6474C33.854 32.3525 32.7104 32.7146 31.2428 32.7146H31.1857C29.8515 32.7146 28.8032 32.3334 28.0789 31.6283C27.3547 30.9041 26.9735 29.8178 26.9735 28.4457V19.7173H24.4004V16.1916H26.9735V11.9417H30.9379V16.1916H34.0827V19.7173H30.9188V27.5881C30.9188 27.9502 31.0141 29.1127 32.1196 29.1127C32.6914 29.1127 33.2251 28.903 33.4157 28.6744V28.6934ZM35.5122 32.3525V16.2106H39.4767V32.3525H35.5122ZM37.4754 9.6167C37.9458 9.61671 38.4056 9.75596 38.797 10.0169C39.1884 10.2778 39.4937 10.6487 39.6746 11.0829C39.8555 11.5171 39.9038 11.9951 39.8134 12.4567C39.723 12.9183 39.498 13.3428 39.1667 13.6767C38.8354 14.0106 38.4126 14.2389 37.9518 14.333C37.4909 14.4271 37.0124 14.3826 36.5768 14.2052C36.1411 14.0278 35.7677 13.7255 35.5037 13.3362C35.2396 12.947 35.0967 12.4883 35.0929 12.018C35.0929 10.722 36.1793 9.6167 37.4754 9.6167ZM50.1311 15.8104C53.5618 15.8104 55.4487 17.6781 55.4487 21.0894V32.3334H51.4843V22.0423C51.4081 20.2128 50.5313 19.3742 48.6635 19.3742C46.9862 19.3742 45.633 20.4033 44.9468 21.28V32.3334H40.9824V16.2297H44.9468V17.9449C46.0904 16.8396 47.9201 15.8486 50.1311 15.8486V15.8104ZM68.6381 17.8877V10.3028H72.6025V32.3715H68.6381V30.6945C68.0315 31.3342 67.3017 31.8447 66.4926 32.1951C65.6836 32.5455 64.812 32.7287 63.9303 32.7336C59.6038 32.7336 56.7067 29.3414 56.7067 24.2911C56.7067 19.2218 59.6038 15.8295 63.9303 15.8295C64.8139 15.8335 65.6873 16.0182 66.4969 16.3721C67.3065 16.7261 68.0352 17.2419 68.6381 17.8877ZM68.6381 21.299C68.1963 20.7237 67.6317 20.254 66.9855 19.9244C66.3392 19.5947 65.6276 19.4133 64.9024 19.3933C62.4437 19.3933 60.8045 21.3562 60.8045 24.2911C60.8045 27.2069 62.4437 29.1699 64.9024 29.1699C66.3319 29.1699 67.8948 28.4075 68.6381 27.3022V21.299ZM81.8656 15.8295C86.5543 15.8295 89.8135 19.4504 89.8135 24.596V25.6823H77.8249C78.2252 27.9502 80.0168 29.3985 82.4564 29.3985C84.0003 29.3985 85.6966 28.7315 86.6686 27.7596L86.9355 27.5309L88.8224 30.2371L88.6318 30.4086C86.8458 31.9919 84.5175 32.8249 82.1324 32.7336C77.1769 32.7336 73.6889 29.2461 73.6889 24.272C73.6504 23.1739 73.8342 22.0792 74.2293 21.0538C74.6243 20.0284 75.2225 19.0934 75.988 18.3049C76.7534 17.5164 77.6703 16.8907 78.6836 16.4653C79.6969 16.04 80.7857 15.8237 81.8846 15.8295H81.8656ZM77.8058 22.6903H85.9443C85.7156 20.2699 83.7144 19.1646 81.8656 19.1646C79.0828 19.1646 78.0346 21.2609 77.8058 22.7093V22.6903ZM99.4005 15.8295H99.6864V19.8316L99.3434 19.7744C99.0575 19.7173 98.6953 19.6791 98.3332 19.6791C97.0562 19.6791 95.2836 20.5749 94.6165 21.5277V32.3334H90.6521V16.2106H94.6356V18.0021C95.9507 16.6299 97.6852 15.8295 99.4005 15.8295Z" fill="#838383"/>
</g>
<defs>
<clipPath id="clip0_2269_785">
<rect width="99.5366" height="45.0682" fill="white" transform="translate(0.828125)"/>
</clipPath>
</defs>
</svg>
