<svg width="26" height="22" viewBox="0 0 26 22" fill="none" xmlns="http://www.w3.org/2000/svg">
<path d="M25.4085 3.08399C24.5829 3.43961 23.715 3.68724 22.8261 3.82076C23.2417 3.74946 23.8531 3.00081 24.0965 2.69778C24.4663 2.2407 24.7481 1.7189 24.9276 1.15889C24.9276 1.1173 24.9692 1.05788 24.9276 1.02817C24.9067 1.01673 24.8832 1.01074 24.8594 1.01074C24.8355 1.01074 24.812 1.01673 24.7911 1.02817C23.826 1.55129 22.7988 1.95055 21.7339 2.21651C21.6967 2.22786 21.6572 2.22888 21.6196 2.21946C21.5819 2.21003 21.5476 2.19053 21.5201 2.16303C21.4372 2.06424 21.348 1.97096 21.253 1.88378C20.8187 1.49427 20.3259 1.17547 19.7926 0.939049C19.0729 0.643497 18.2954 0.515499 17.519 0.564724C16.7656 0.612345 16.0301 0.814593 15.3582 1.15889C14.6965 1.52188 14.1149 2.01502 13.6485 2.60866C13.1578 3.21967 12.8036 3.92877 12.6096 4.68825C12.4496 5.41067 12.4315 6.15732 12.5562 6.88667C12.5562 7.01144 12.5562 7.02927 12.4493 7.01144C8.21667 6.38756 4.74388 4.88432 1.90628 1.65799C1.78162 1.51539 1.71632 1.51539 1.6154 1.65799C0.380626 3.53556 0.980203 6.5064 2.52367 7.97399C2.73144 8.17007 2.94515 8.3602 3.17073 8.53845C2.46307 8.48817 1.77268 8.29622 1.14049 7.97399C1.02176 7.89675 0.956457 7.93834 0.950521 8.08094C0.933692 8.27864 0.933692 8.47741 0.950521 8.67511C1.07439 9.62257 1.44744 10.5201 2.03154 11.2759C2.61563 12.0317 3.38981 12.6187 4.2749 12.9769C4.49067 13.0694 4.71549 13.1391 4.94572 13.1848C4.29059 13.3139 3.61868 13.334 2.95702 13.2443C2.81455 13.2145 2.76112 13.2918 2.81455 13.4284C3.6872 15.8051 5.58091 16.53 6.97003 16.934C7.15999 16.9637 7.34996 16.9637 7.56367 17.0113C7.56367 17.0113 7.56367 17.0113 7.52805 17.0469C7.11844 17.7956 5.46218 18.3006 4.70232 18.5621C3.31539 19.0607 1.83665 19.2513 0.368754 19.1206C0.137234 19.0849 0.0838065 19.0909 0.0244425 19.1206C-0.0349215 19.1503 0.0244425 19.2156 0.0897429 19.2751C0.386563 19.4711 0.683383 19.6434 0.992075 19.8098C1.91106 20.3115 2.88261 20.71 3.88904 20.9981C9.1012 22.436 14.9664 21.3784 18.8784 17.4866C21.9535 14.4326 23.0339 10.2199 23.0339 6.00136C23.0339 5.84093 23.2298 5.74586 23.3426 5.66268C24.1206 5.05597 24.8065 4.33946 25.3788 3.53556C25.4779 3.41573 25.5287 3.26315 25.5213 3.10776C25.5213 3.01864 25.5213 3.03646 25.4085 3.08399Z" fill="white"/>
</svg>
