<svg width="68" height="24" viewBox="0 0 68 24" fill="none" xmlns="http://www.w3.org/2000/svg">
<path d="M4.10935 17.0913C4.39512 17.8496 4.79077 18.4979 5.29635 19.0364C5.80194 19.5749 6.40091 19.9869 7.09326 20.2727C7.78569 20.5584 8.53852 20.7012 9.35184 20.7012C10.1432 20.7012 10.885 20.5529 11.5774 20.2561C12.2699 19.9594 12.8743 19.5418 13.3908 19.0034C13.9074 18.4649 14.3086 17.8221 14.5943 17.0748C14.8801 16.3275 15.0229 15.4924 15.0229 14.5692V0.327148H18.4849V23.4046H15.0559V21.2616C14.2866 22.0748 13.3798 22.7012 12.3357 23.1409C11.2916 23.5804 10.1652 23.8002 8.9562 23.8002C7.72521 23.8002 6.57673 23.5858 5.51062 23.1573C4.44459 22.7287 3.52133 22.1188 2.74106 21.3276C1.9608 20.5363 1.34527 19.5859 0.894689 18.4759C0.444039 17.366 0.21875 16.1297 0.21875 14.767V0.327148H3.68074V14.5692C3.68074 15.4924 3.82359 16.333 4.10935 17.0913Z" fill="#838383"/>
<path d="M24.4524 0.327148V8.7339C25.2218 7.96466 26.1121 7.35482 27.1232 6.90422C28.1343 6.45362 29.2333 6.22835 30.4203 6.22835C31.6513 6.22835 32.8051 6.45909 33.8823 6.92063C34.9593 7.38217 35.8934 8.00858 36.6848 8.79985C37.4761 9.59111 38.1026 10.5251 38.5642 11.6021C39.0258 12.6791 39.2566 13.822 39.2566 15.0308C39.2566 16.2395 39.0258 17.3769 38.5642 18.4428C38.1026 19.5088 37.4761 20.4375 36.6848 21.2286C35.8934 22.0199 34.9593 22.6463 33.8823 23.1078C32.8051 23.5693 31.6512 23.8001 30.4203 23.8001C29.2333 23.8001 28.1288 23.5748 27.1067 23.1242C26.0846 22.6737 25.1888 22.0638 24.4195 21.2945V23.4045H21.1224V0.327148H24.4524ZM24.8316 17.3055C25.1283 18.0089 25.5405 18.6243 26.0681 19.1518C26.5956 19.6792 27.2111 20.0969 27.9144 20.4046C28.6179 20.7123 29.3762 20.8661 30.1895 20.8661C30.9809 20.8661 31.7282 20.7123 32.4315 20.4046C33.1349 20.0969 33.7448 19.6793 34.2615 19.1518C34.778 18.6243 35.1901 18.0089 35.4979 17.3055C35.8056 16.6022 35.9595 15.844 35.9595 15.0308C35.9595 14.2176 35.8056 13.4538 35.4979 12.7395C35.1901 12.0252 34.778 11.4043 34.2615 10.8768C33.7449 10.3494 33.135 9.93725 32.4315 9.64057C31.7281 9.34389 30.9808 9.19544 30.1895 9.19544C29.3982 9.19544 28.6509 9.34382 27.9475 9.64057C27.2441 9.93732 26.6287 10.3494 26.101 10.8768C25.5736 11.4043 25.1559 12.0252 24.8482 12.7395C24.5404 13.4538 24.3866 14.2176 24.3866 15.0308C24.3865 15.844 24.5349 16.6022 24.8316 17.3055Z" fill="#838383"/>
<path d="M41.1355 11.6351C41.5751 10.5801 42.1797 9.65153 42.9489 8.84932C43.7182 8.04711 44.6305 7.41524 45.6856 6.95369C46.7407 6.49215 47.8837 6.26142 49.1146 6.26142C50.3235 6.26142 51.4446 6.48121 52.4777 6.92072C53.5108 7.36031 54.401 7.97023 55.1483 8.75048C55.8957 9.53066 56.4783 10.4538 56.8958 11.5197C57.3135 12.5857 57.5223 13.7451 57.5223 14.9979V16.0858H43.8392C43.9491 16.7672 44.169 17.399 44.4986 17.9814C44.8284 18.5638 45.2405 19.0693 45.735 19.4979C46.2296 19.9266 46.7901 20.2617 47.4166 20.5034C48.0431 20.7452 48.7079 20.8661 49.4114 20.8661C51.4117 20.8661 53.0273 20.0419 54.2582 18.3935L56.6651 20.1737C55.8298 21.2946 54.7968 22.1738 53.5659 22.8111C52.3349 23.4485 50.9501 23.7672 49.4114 23.7672C48.1585 23.7672 46.9881 23.5473 45.9 23.1078C44.8119 22.6683 43.8668 22.0528 43.0645 21.2616C42.2622 20.4703 41.6302 19.5418 41.1686 18.4758C40.7071 17.4099 40.4762 16.2505 40.4762 14.9977C40.4761 13.811 40.696 12.69 41.1355 11.6351ZM45.768 10.3328C44.8338 11.113 44.2129 12.1515 43.9052 13.4483H54.1593C53.8735 12.1515 53.2635 11.113 52.3293 10.3328C51.3951 9.55261 50.3016 9.16249 49.0487 9.16249C47.7958 9.16249 46.7022 9.55261 45.768 10.3328Z" fill="#838383"/>
<path d="M63.7538 10.712C63.0504 11.4812 62.6987 12.5252 62.6987 13.8439V23.4046H59.3685V6.59105H62.6657V8.66803C63.0833 7.98669 63.6274 7.44819 64.2978 7.05259C64.9682 6.65692 65.765 6.45909 66.6882 6.45909H67.8422V9.55807H66.4574C65.3584 9.55814 64.4572 9.94272 63.7538 10.712Z" fill="#838383"/>
</svg>
