<svg width="436" height="39" viewBox="0 0 436 39" fill="none" xmlns="http://www.w3.org/2000/svg">
<path d="M146.045 10V12.7941C149.91 12.7941 153.072 15.8118 153.072 19.5C153.072 23.1882 149.91 26.2059 146.045 26.2059V29C151.549 29 156 24.7529 156 19.5C156 14.2471 151.549 10 146.045 10Z" fill="white"/>
<path d="M24.2441 18.2706C26.4693 17.8235 27.8747 16.4824 27.8747 14.4706C27.8747 11.6765 25.7666 10 22.3702 10H14.4062V29H22.4873C26.8207 29 29.2801 26.8765 29.2801 23.4118C29.3972 20.6176 27.5234 18.7176 24.2441 18.2706ZM17.5684 12.4588H21.5504C23.5414 12.4588 24.8297 13.5765 24.8297 15.3647C24.8297 17.1529 23.6585 18.1588 21.5504 18.1588H17.5684V12.4588ZM22.7216 26.5412H17.5684V20.3941H22.7216C24.9468 20.3941 26.2351 21.5118 26.2351 23.5235C26.2351 25.4235 24.8297 26.5412 22.7216 26.5412Z" fill="#040404"/>
<path d="M40.4049 21.0647C43.9184 20.6176 46.0265 18.6059 46.0265 15.3647C46.0265 12.0118 43.3328 10 38.8824 10H31.6211V29H34.7833V21.1765H38.6481L43.3328 29H46.8463L43.3328 23.4118C42.6301 22.2941 41.576 21.4 40.4049 21.0647ZM34.6661 18.8294V12.4588H39.1166C41.4589 12.4588 42.8643 13.6882 42.8643 15.5882C42.8643 17.7118 41.4589 18.8294 39.1166 18.8294H34.6661Z" fill="#040404"/>
<path d="M81.8636 26.2059L74.6024 10.1118L74.4853 10H69.4492V29H72.3771V12.7941L79.6384 28.8882V29H84.7916V10H81.8636V26.2059Z" fill="#040404"/>
<path d="M48.3691 29H51.5313L58.0899 10H54.9277L48.3691 29Z" fill="#040404"/>
<path d="M58.0898 10L64.7655 29H67.9277L61.3691 10H58.0898Z" fill="#040404"/>
<path d="M94.1621 10H87.7207V12.7941H94.1621C97.6757 12.7941 100.604 15.8118 100.604 19.5C100.604 23.1882 97.7928 26.2059 94.1621 26.2059H87.7207V29H94.1621C99.3153 29 103.532 24.7529 103.532 19.5C103.532 14.2471 99.3153 10 94.1621 10Z" fill="#040404"/>
<path d="M104.938 19.5C104.938 24.7529 109.154 29 114.307 29H120.748V26.2059H114.307C111.262 26.2059 108.685 23.9706 108.1 20.9529H117.82V18.0471H108.1C108.685 15.0294 111.262 12.7941 114.307 12.7941H120.748V10H114.307C109.154 10 104.938 14.2471 104.938 19.5Z" fill="#040404"/>
<path d="M141.595 12.7941V10C137.613 10 134.216 12.2353 132.577 15.3647C131.054 12.2353 127.658 10 123.676 10V12.7941C127.541 12.7941 130.703 15.8118 130.703 19.5C130.703 23.1882 127.541 26.2059 123.676 26.2059V29C127.658 29 131.054 26.7647 132.694 23.6353C134.333 26.8765 137.73 29 141.712 29V26.2059C137.847 26.2059 134.685 23.1882 134.685 19.5C134.568 15.8118 137.73 12.7941 141.595 12.7941Z" fill="#040404"/>
<path d="M9.95496 29V26.2059C6.09009 26.2059 2.92793 23.1882 2.92793 19.5C2.92793 15.8118 6.09009 12.7941 9.95496 12.7941V10C4.45045 10 0 14.2471 0 19.5C0 24.7529 4.45045 29 9.95496 29Z" fill="white"/>
<path d="M172.66 27.512V22.496H167.98V20.864H172.66V15.848H174.484V20.864H179.164V22.496H174.484V27.512H172.66ZM191.906 29V22.376L186.146 12.248H188.45L192.914 20.312H192.986L197.45 12.248H199.754L193.922 22.304V29H191.906ZM207.53 29.288C206.442 29.288 205.458 29.104 204.578 28.736C203.714 28.352 202.97 27.8 202.346 27.08C201.738 26.344 201.266 25.44 200.93 24.368C200.594 23.28 200.426 22.032 200.426 20.624C200.426 19.216 200.594 17.976 200.93 16.904C201.266 15.832 201.738 14.928 202.346 14.192C202.97 13.456 203.714 12.904 204.578 12.536C205.458 12.152 206.442 11.96 207.53 11.96C208.602 11.96 209.578 12.152 210.458 12.536C211.338 12.904 212.082 13.456 212.69 14.192C213.314 14.928 213.794 15.832 214.13 16.904C214.466 17.976 214.634 19.216 214.634 20.624C214.634 22.032 214.466 23.28 214.13 24.368C213.794 25.44 213.314 26.344 212.69 27.08C212.082 27.8 211.338 28.352 210.458 28.736C209.578 29.104 208.602 29.288 207.53 29.288ZM207.53 27.488C208.25 27.488 208.914 27.36 209.522 27.104C210.13 26.848 210.65 26.48 211.082 26C211.53 25.52 211.874 24.944 212.114 24.272C212.354 23.6 212.474 22.848 212.474 22.016V19.232C212.474 18.4 212.354 17.648 212.114 16.976C211.874 16.304 211.53 15.728 211.082 15.248C210.65 14.768 210.13 14.4 209.522 14.144C208.914 13.888 208.25 13.76 207.53 13.76C206.81 13.76 206.146 13.888 205.538 14.144C204.93 14.4 204.402 14.768 203.954 15.248C203.522 15.728 203.186 16.304 202.946 16.976C202.706 17.648 202.586 18.4 202.586 19.232V22.016C202.586 22.848 202.706 23.6 202.946 24.272C203.186 24.944 203.522 25.52 203.954 26C204.402 26.48 204.93 26.848 205.538 27.104C206.146 27.36 206.81 27.488 207.53 27.488ZM219.855 12.248V22.616C219.855 24.216 220.151 25.432 220.743 26.264C221.335 27.08 222.375 27.488 223.863 27.488C225.351 27.488 226.391 27.08 226.983 26.264C227.575 25.432 227.871 24.216 227.871 22.616V12.248H229.887V22.136C229.887 23.352 229.775 24.408 229.551 25.304C229.343 26.2 228.999 26.944 228.519 27.536C228.039 28.128 227.407 28.568 226.623 28.856C225.855 29.144 224.911 29.288 223.791 29.288C222.671 29.288 221.727 29.144 220.959 28.856C220.207 28.568 219.599 28.128 219.135 27.536C218.671 26.944 218.335 26.2 218.127 25.304C217.935 24.408 217.839 23.352 217.839 22.136V12.248H219.855ZM235.94 29H233.924V12.248H240.596C242.068 12.248 243.212 12.656 244.028 13.472C244.86 14.288 245.276 15.464 245.276 17C245.276 18.232 244.988 19.248 244.412 20.048C243.852 20.832 243.02 21.352 241.916 21.608L245.756 29H243.476L239.852 21.8H235.94V29ZM240.596 20.072C241.396 20.072 242.012 19.864 242.444 19.448C242.892 19.032 243.116 18.44 243.116 17.672V16.424C243.116 15.656 242.892 15.064 242.444 14.648C242.012 14.232 241.396 14.024 240.596 14.024H235.94V20.072H240.596ZM254.348 12.248H261.236C262.628 12.248 263.716 12.64 264.5 13.424C265.3 14.208 265.7 15.256 265.7 16.568C265.7 17.192 265.612 17.72 265.436 18.152C265.26 18.584 265.036 18.944 264.764 19.232C264.492 19.504 264.196 19.712 263.876 19.856C263.556 19.984 263.26 20.072 262.988 20.12V20.264C263.292 20.28 263.628 20.36 263.996 20.504C264.38 20.648 264.74 20.88 265.076 21.2C265.412 21.504 265.692 21.904 265.916 22.4C266.156 22.88 266.276 23.464 266.276 24.152C266.276 24.84 266.164 25.48 265.94 26.072C265.732 26.664 265.436 27.176 265.052 27.608C264.668 28.04 264.212 28.384 263.684 28.64C263.156 28.88 262.58 29 261.956 29H254.348V12.248ZM256.364 27.224H261.332C262.196 27.224 262.876 27.008 263.372 26.576C263.868 26.128 264.116 25.48 264.116 24.632V23.816C264.116 22.968 263.868 22.328 263.372 21.896C262.876 21.448 262.196 21.224 261.332 21.224H256.364V27.224ZM256.364 19.496H260.996C261.796 19.496 262.42 19.296 262.868 18.896C263.316 18.496 263.54 17.92 263.54 17.168V16.352C263.54 15.6 263.316 15.024 262.868 14.624C262.42 14.224 261.796 14.024 260.996 14.024H256.364V19.496ZM271.743 29H269.727V12.248H276.399C277.871 12.248 279.015 12.656 279.831 13.472C280.663 14.288 281.079 15.464 281.079 17C281.079 18.232 280.791 19.248 280.215 20.048C279.655 20.832 278.823 21.352 277.719 21.608L281.559 29H279.279L275.655 21.8H271.743V29ZM276.399 20.072C277.199 20.072 277.815 19.864 278.247 19.448C278.695 19.032 278.919 18.44 278.919 17.672V16.424C278.919 15.656 278.695 15.064 278.247 14.648C277.815 14.232 277.199 14.024 276.399 14.024H271.743V20.072H276.399ZM295.267 29L293.587 24.056H286.819L285.139 29H283.099L288.955 12.248H291.523L297.379 29H295.267ZM290.251 14.12H290.131L287.299 22.28H293.083L290.251 14.12ZM303.91 18.776L301.894 15.056H301.822V29H299.854V12.248H302.182L308.302 22.472L310.318 26.192H310.39V12.248H312.358V29H310.03L303.91 18.776ZM316.523 12.248H322.139C323.179 12.248 324.123 12.424 324.971 12.776C325.819 13.128 326.539 13.656 327.131 14.36C327.739 15.048 328.203 15.92 328.523 16.976C328.843 18.016 329.003 19.232 329.003 20.624C329.003 22.016 328.843 23.24 328.523 24.296C328.203 25.336 327.739 26.208 327.131 26.912C326.539 27.6 325.819 28.12 324.971 28.472C324.123 28.824 323.179 29 322.139 29H316.523V12.248ZM322.139 27.224C322.827 27.224 323.459 27.112 324.035 26.888C324.611 26.648 325.107 26.304 325.523 25.856C325.939 25.408 326.259 24.864 326.483 24.224C326.723 23.568 326.843 22.824 326.843 21.992V19.256C326.843 18.424 326.723 17.688 326.483 17.048C326.259 16.392 325.939 15.84 325.523 15.392C325.107 14.944 324.611 14.608 324.035 14.384C323.459 14.144 322.827 14.024 322.139 14.024H318.539V27.224H322.139ZM337.072 20.072V18.44H348.256V20.072H337.072ZM337.072 24.872V23.24H348.256V24.872H337.072ZM362.199 29.288C360.727 29.288 359.479 29.04 358.455 28.544C357.431 28.032 356.559 27.376 355.839 26.576L358.239 24.152C359.375 25.432 360.775 26.072 362.439 26.072C363.335 26.072 363.999 25.888 364.431 25.52C364.863 25.152 365.079 24.664 365.079 24.056C365.079 23.592 364.951 23.208 364.695 22.904C364.439 22.584 363.919 22.368 363.135 22.256L361.479 22.04C359.703 21.816 358.399 21.28 357.567 20.432C356.751 19.584 356.343 18.456 356.343 17.048C356.343 16.296 356.487 15.608 356.775 14.984C357.063 14.36 357.471 13.824 357.999 13.376C358.543 12.928 359.199 12.584 359.967 12.344C360.751 12.088 361.639 11.96 362.631 11.96C363.895 11.96 365.007 12.16 365.967 12.56C366.927 12.96 367.751 13.544 368.439 14.312L366.015 16.76C365.615 16.296 365.127 15.92 364.551 15.632C363.991 15.328 363.279 15.176 362.415 15.176C361.599 15.176 360.991 15.32 360.591 15.608C360.191 15.896 359.991 16.296 359.991 16.808C359.991 17.384 360.143 17.8 360.447 18.056C360.767 18.312 361.279 18.496 361.983 18.608L363.639 18.872C365.367 19.144 366.647 19.68 367.479 20.48C368.311 21.264 368.727 22.384 368.727 23.84C368.727 24.64 368.583 25.376 368.295 26.048C368.007 26.72 367.583 27.296 367.023 27.776C366.479 28.256 365.799 28.632 364.983 28.904C364.167 29.16 363.239 29.288 362.199 29.288ZM378.219 29.288C377.083 29.288 376.059 29.112 375.147 28.76C374.235 28.392 373.459 27.856 372.819 27.152C372.179 26.432 371.683 25.544 371.331 24.488C370.979 23.416 370.803 22.168 370.803 20.744C370.803 19.336 370.979 18.088 371.331 17C371.683 15.896 372.179 14.976 372.819 14.24C373.459 13.488 374.235 12.92 375.147 12.536C376.059 12.152 377.083 11.96 378.219 11.96C379.771 11.96 381.051 12.28 382.059 12.92C383.067 13.544 383.875 14.536 384.483 15.896L381.339 17.528C381.115 16.824 380.763 16.264 380.283 15.848C379.819 15.416 379.131 15.2 378.219 15.2C377.147 15.2 376.283 15.552 375.627 16.256C374.987 16.944 374.667 17.952 374.667 19.28V21.968C374.667 23.296 374.987 24.312 375.627 25.016C376.283 25.704 377.147 26.048 378.219 26.048C379.115 26.048 379.827 25.808 380.355 25.328C380.899 24.832 381.299 24.24 381.555 23.552L384.531 25.28C383.907 26.56 383.083 27.552 382.059 28.256C381.051 28.944 379.771 29.288 378.219 29.288ZM396.916 29L395.716 25.016H390.124L388.924 29H385.228L390.748 12.248H395.26L400.708 29H396.916ZM392.956 15.56H392.836L390.988 21.92H394.828L392.956 15.56ZM402.726 29V12.248H406.374V25.76H412.758V29H402.726ZM415.153 29V12.248H426.553V15.488H418.801V18.92H425.449V22.136H418.801V25.76H426.553V29H415.153ZM430.703 23.72L429.575 16.904V12.248H433.319V16.904L432.215 23.72H430.703ZM431.423 29.288C430.655 29.288 430.103 29.112 429.767 28.76C429.447 28.408 429.287 27.976 429.287 27.464V26.888C429.287 26.376 429.447 25.944 429.767 25.592C430.103 25.24 430.655 25.064 431.423 25.064C432.191 25.064 432.735 25.24 433.055 25.592C433.391 25.944 433.559 26.376 433.559 26.888V27.464C433.559 27.976 433.391 28.408 433.055 28.76C432.735 29.112 432.191 29.288 431.423 29.288Z" fill="black"/>
</svg>
